<?xml version="1.0" encoding="utf-8" standalone="no"?>
<!DOCTYPE svg PUBLIC "-//W3C//DTD SVG 1.1//EN"
  "http://www.w3.org/Graphics/SVG/1.1/DTD/svg11.dtd">
<svg xmlns:xlink="http://www.w3.org/1999/xlink" width="1152pt" height="720pt" viewBox="0 0 1152 720" xmlns="http://www.w3.org/2000/svg" version="1.1">
 <metadata>
  <rdf:RDF xmlns:dc="http://purl.org/dc/elements/1.1/" xmlns:cc="http://creativecommons.org/ns#" xmlns:rdf="http://www.w3.org/1999/02/22-rdf-syntax-ns#">
   <cc:Work>
    <dc:type rdf:resource="http://purl.org/dc/dcmitype/StillImage"/>
    <dc:date>2025-10-04T13:24:08.394111</dc:date>
    <dc:format>image/svg+xml</dc:format>
    <dc:creator>
     <cc:Agent>
      <dc:title>Matplotlib v3.10.6, https://matplotlib.org/</dc:title>
     </cc:Agent>
    </dc:creator>
   </cc:Work>
  </rdf:RDF>
 </metadata>
 <defs>
  <style type="text/css">*{stroke-linejoin: round; stroke-linecap: butt}</style>
 </defs>
 <g id="figure_1">
  <g id="patch_1">
   <path d="M 0 720 
L 1152 720 
L 1152 0 
L 0 0 
z
"/>
  </g>
  <g id="axes_1">
   <g id="patch_2">
    <path d="M 79.87 656.42 
L 1141.2 656.42 
L 1141.2 65.28 
L 79.87 65.28 
z
"/>
   </g>
   <g id="patch_3">
    <path d="M 79.87 230.7992 
L 1141.2 230.7992 
L 1141.2 65.28 
L 79.87 65.28 
z
" clip-path="url(#pe621971214)" style="opacity: 0.3; stroke: #000000; stroke-linejoin: miter"/>
   </g>
   <g id="FillBetweenPolyCollection_1">
    <defs>
     <path id="mf6b1c93c78" d="M 128.112273 -344.96264 
L 128.112273 -63.58 
L 165.221713 -63.58 
L 202.331154 -63.58 
L 239.440594 -63.58 
L 276.550035 -63.58 
L 313.659476 -63.58 
L 350.768916 -63.58 
L 387.878357 -63.58 
L 424.987797 -63.58 
L 462.097238 -63.58 
L 499.206678 -63.58 
L 536.316119 -63.58 
L 573.425559 -63.58 
L 610.535 -63.58 
L 647.644441 -63.58 
L 684.753881 -63.58 
L 721.863322 -63.58 
L 758.972762 -63.58 
L 796.082203 -63.58 
L 833.191643 -63.58 
L 870.301084 -63.58 
L 907.410524 -63.58 
L 944.519965 -63.58 
L 981.629406 -63.58 
L 1018.738846 -63.58 
L 1055.848287 -63.58 
L 1092.957727 -63.58 
L 1092.957727 -670.407344 
L 1092.957727 -670.407344 
L 1055.848287 -652.732761 
L 1018.738846 -635.572972 
L 981.629406 -618.912983 
L 944.519965 -602.738236 
L 907.410524 -587.034598 
L 870.301084 -571.788347 
L 833.191643 -556.986162 
L 796.082203 -542.615109 
L 758.972762 -528.66263 
L 721.863322 -515.116534 
L 684.753881 -501.964985 
L 647.644441 -489.19649 
L 610.535 -476.799893 
L 573.425559 -464.764362 
L 536.316119 -453.079381 
L 499.206678 -441.734739 
L 462.097238 -430.720523 
L 424.987797 -420.02711 
L 387.878357 -409.645155 
L 350.768916 -399.565587 
L 313.659476 -389.7796 
L 276.550035 -380.27864 
L 239.440594 -371.054408 
L 202.331154 -362.098843 
L 165.221713 -353.404119 
L 128.112273 -344.96264 
z
" style="stroke: #ff0000; stroke-opacity: 0.4"/>
    </defs>
    <g clip-path="url(#pe621971214)">
     <use xlink:href="#mf6b1c93c78" x="0" y="720" style="fill: #ff0000; fill-opacity: 0.4; stroke: #ff0000; stroke-opacity: 0.4"/>
    </g>
   </g>
   <g id="FillBetweenPolyCollection_2">
    <defs>
     <path id="ma02a6db21c" d="M 128.112273 -224.37008 
L 128.112273 -63.58 
L 165.221713 -63.58 
L 202.331154 -63.58 
L 239.440594 -63.58 
L 276.550035 -63.58 
L 313.659476 -63.58 
L 350.768916 -63.58 
L 387.878357 -63.58 
L 424.987797 -63.58 
L 462.097238 -63.58 
L 499.206678 -63.58 
L 536.316119 -63.58 
L 573.425559 -63.58 
L 610.535 -63.58 
L 647.644441 -63.58 
L 684.753881 -63.58 
L 721.863322 -63.58 
L 758.972762 -63.58 
L 796.082203 -63.58 
L 833.191643 -63.58 
L 870.301084 -63.58 
L 907.410524 -63.58 
L 944.519965 -63.58 
L 981.629406 -63.58 
L 1018.738846 -63.58 
L 1055.848287 -63.58 
L 1092.957727 -63.58 
L 1092.957727 -332.649032 
L 1092.957727 -332.649032 
L 1055.848287 -327.373169 
L 1018.738846 -322.200754 
L 981.629406 -317.129759 
L 944.519965 -312.158195 
L 907.410524 -307.284113 
L 870.301084 -302.505601 
L 833.191643 -297.820785 
L 796.082203 -293.227828 
L 758.972762 -288.72493 
L 721.863322 -284.310323 
L 684.753881 -279.982278 
L 647.644441 -275.739096 
L 610.535 -271.579114 
L 573.425559 -267.5007 
L 536.316119 -263.502255 
L 499.206678 -259.58221 
L 462.097238 -255.73903 
L 424.987797 -251.971206 
L 387.878357 -248.27726 
L 350.768916 -244.655745 
L 313.659476 -241.105241 
L 276.550035 -237.624354 
L 239.440594 -234.211719 
L 202.331154 -230.865999 
L 165.221713 -227.585882 
L 128.112273 -224.37008 
z
" style="stroke: #00ff00; stroke-opacity: 0.4"/>
    </defs>
    <g clip-path="url(#pe621971214)">
     <use xlink:href="#ma02a6db21c" x="0" y="720" style="fill: #00ff00; fill-opacity: 0.4; stroke: #00ff00; stroke-opacity: 0.4"/>
    </g>
   </g>
   <g id="matplotlib.axis_1">
    <g id="xtick_1">
     <g id="line2d_1">
      <path d="M 165.221713 656.42 
L 165.221713 65.28 
" clip-path="url(#pe621971214)" style="fill: none; stroke: #ffffff; stroke-opacity: 0.2; stroke-width: 2; stroke-linecap: square"/>
     </g>
     <g id="line2d_2">
      <defs>
       <path id="m9e756d5e3d" d="M 0 0 
L 0 10 
" style="stroke: #ffffff; stroke-width: 4"/>
      </defs>
      <g>
       <use xlink:href="#m9e756d5e3d" x="165.221713" y="656.42" style="fill: #ffffff; stroke: #ffffff; stroke-width: 4"/>
      </g>
     </g>
     <g id="text_1">
      <!-- 2025 -->
      <g style="fill: #ffffff" transform="translate(144.861713 682.0775) scale(0.16 -0.16)">
       <defs>
        <path id="DejaVuSans-32" d="M 1228 531 
L 3431 531 
L 3431 0 
L 469 0 
L 469 531 
Q 828 903 1448 1529 
Q 2069 2156 2228 2338 
Q 2531 2678 2651 2914 
Q 2772 3150 2772 3378 
Q 2772 3750 2511 3984 
Q 2250 4219 1831 4219 
Q 1534 4219 1204 4116 
Q 875 4013 500 3803 
L 500 4441 
Q 881 4594 1212 4672 
Q 1544 4750 1819 4750 
Q 2544 4750 2975 4387 
Q 3406 4025 3406 3419 
Q 3406 3131 3298 2873 
Q 3191 2616 2906 2266 
Q 2828 2175 2409 1742 
Q 1991 1309 1228 531 
z
" transform="scale(0.015625)"/>
        <path id="DejaVuSans-30" d="M 2034 4250 
Q 1547 4250 1301 3770 
Q 1056 3291 1056 2328 
Q 1056 1369 1301 889 
Q 1547 409 2034 409 
Q 2525 409 2770 889 
Q 3016 1369 3016 2328 
Q 3016 3291 2770 3770 
Q 2525 4250 2034 4250 
z
M 2034 4750 
Q 2819 4750 3233 4129 
Q 3647 3509 3647 2328 
Q 3647 1150 3233 529 
Q 2819 -91 2034 -91 
Q 1250 -91 836 529 
Q 422 1150 422 2328 
Q 422 3509 836 4129 
Q 1250 4750 2034 4750 
z
" transform="scale(0.015625)"/>
        <path id="DejaVuSans-35" d="M 691 4666 
L 3169 4666 
L 3169 4134 
L 1269 4134 
L 1269 2991 
Q 1406 3038 1543 3061 
Q 1681 3084 1819 3084 
Q 2600 3084 3056 2656 
Q 3513 2228 3513 1497 
Q 3513 744 3044 326 
Q 2575 -91 1722 -91 
Q 1428 -91 1123 -41 
Q 819 9 494 109 
L 494 744 
Q 775 591 1075 516 
Q 1375 441 1709 441 
Q 2250 441 2565 725 
Q 2881 1009 2881 1497 
Q 2881 1984 2565 2268 
Q 2250 2553 1709 2553 
Q 1456 2553 1204 2497 
Q 953 2441 691 2322 
L 691 4666 
z
" transform="scale(0.015625)"/>
       </defs>
       <use xlink:href="#DejaVuSans-32"/>
       <use xlink:href="#DejaVuSans-30" transform="translate(63.623047 0)"/>
       <use xlink:href="#DejaVuSans-32" transform="translate(127.246094 0)"/>
       <use xlink:href="#DejaVuSans-35" transform="translate(190.869141 0)"/>
      </g>
     </g>
    </g>
    <g id="xtick_2">
     <g id="line2d_3">
      <path d="M 350.768916 656.42 
L 350.768916 65.28 
" clip-path="url(#pe621971214)" style="fill: none; stroke: #ffffff; stroke-opacity: 0.2; stroke-width: 2; stroke-linecap: square"/>
     </g>
     <g id="line2d_4">
      <g>
       <use xlink:href="#m9e756d5e3d" x="350.768916" y="656.42" style="fill: #ffffff; stroke: #ffffff; stroke-width: 4"/>
      </g>
     </g>
     <g id="text_2">
      <!-- 2030 -->
      <g style="fill: #ffffff" transform="translate(330.408916 682.0775) scale(0.16 -0.16)">
       <defs>
        <path id="DejaVuSans-33" d="M 2597 2516 
Q 3050 2419 3304 2112 
Q 3559 1806 3559 1356 
Q 3559 666 3084 287 
Q 2609 -91 1734 -91 
Q 1441 -91 1130 -33 
Q 819 25 488 141 
L 488 750 
Q 750 597 1062 519 
Q 1375 441 1716 441 
Q 2309 441 2620 675 
Q 2931 909 2931 1356 
Q 2931 1769 2642 2001 
Q 2353 2234 1838 2234 
L 1294 2234 
L 1294 2753 
L 1863 2753 
Q 2328 2753 2575 2939 
Q 2822 3125 2822 3475 
Q 2822 3834 2567 4026 
Q 2313 4219 1838 4219 
Q 1578 4219 1281 4162 
Q 984 4106 628 3988 
L 628 4550 
Q 988 4650 1302 4700 
Q 1616 4750 1894 4750 
Q 2613 4750 3031 4423 
Q 3450 4097 3450 3541 
Q 3450 3153 3228 2886 
Q 3006 2619 2597 2516 
z
" transform="scale(0.015625)"/>
       </defs>
       <use xlink:href="#DejaVuSans-32"/>
       <use xlink:href="#DejaVuSans-30" transform="translate(63.623047 0)"/>
       <use xlink:href="#DejaVuSans-33" transform="translate(127.246094 0)"/>
       <use xlink:href="#DejaVuSans-30" transform="translate(190.869141 0)"/>
      </g>
     </g>
    </g>
    <g id="xtick_3">
     <g id="line2d_5">
      <path d="M 536.316119 656.42 
L 536.316119 65.28 
" clip-path="url(#pe621971214)" style="fill: none; stroke: #ffffff; stroke-opacity: 0.2; stroke-width: 2; stroke-linecap: square"/>
     </g>
     <g id="line2d_6">
      <g>
       <use xlink:href="#m9e756d5e3d" x="536.316119" y="656.42" style="fill: #ffffff; stroke: #ffffff; stroke-width: 4"/>
      </g>
     </g>
     <g id="text_3">
      <!-- 2035 -->
      <g style="fill: #ffffff" transform="translate(515.956119 682.0775) scale(0.16 -0.16)">
       <use xlink:href="#DejaVuSans-32"/>
       <use xlink:href="#DejaVuSans-30" transform="translate(63.623047 0)"/>
       <use xlink:href="#DejaVuSans-33" transform="translate(127.246094 0)"/>
       <use xlink:href="#DejaVuSans-35" transform="translate(190.869141 0)"/>
      </g>
     </g>
    </g>
    <g id="xtick_4">
     <g id="line2d_7">
      <path d="M 721.863322 656.42 
L 721.863322 65.28 
" clip-path="url(#pe621971214)" style="fill: none; stroke: #ffffff; stroke-opacity: 0.2; stroke-width: 2; stroke-linecap: square"/>
     </g>
     <g id="line2d_8">
      <g>
       <use xlink:href="#m9e756d5e3d" x="721.863322" y="656.42" style="fill: #ffffff; stroke: #ffffff; stroke-width: 4"/>
      </g>
     </g>
     <g id="text_4">
      <!-- 2040 -->
      <g style="fill: #ffffff" transform="translate(701.503322 682.0775) scale(0.16 -0.16)">
       <defs>
        <path id="DejaVuSans-34" d="M 2419 4116 
L 825 1625 
L 2419 1625 
L 2419 4116 
z
M 2253 4666 
L 3047 4666 
L 3047 1625 
L 3713 1625 
L 3713 1100 
L 3047 1100 
L 3047 0 
L 2419 0 
L 2419 1100 
L 313 1100 
L 313 1709 
L 2253 4666 
z
" transform="scale(0.015625)"/>
       </defs>
       <use xlink:href="#DejaVuSans-32"/>
       <use xlink:href="#DejaVuSans-30" transform="translate(63.623047 0)"/>
       <use xlink:href="#DejaVuSans-34" transform="translate(127.246094 0)"/>
       <use xlink:href="#DejaVuSans-30" transform="translate(190.869141 0)"/>
      </g>
     </g>
    </g>
    <g id="xtick_5">
     <g id="line2d_9">
      <path d="M 907.410524 656.42 
L 907.410524 65.28 
" clip-path="url(#pe621971214)" style="fill: none; stroke: #ffffff; stroke-opacity: 0.2; stroke-width: 2; stroke-linecap: square"/>
     </g>
     <g id="line2d_10">
      <g>
       <use xlink:href="#m9e756d5e3d" x="907.410524" y="656.42" style="fill: #ffffff; stroke: #ffffff; stroke-width: 4"/>
      </g>
     </g>
     <g id="text_5">
      <!-- 2045 -->
      <g style="fill: #ffffff" transform="translate(887.050524 682.0775) scale(0.16 -0.16)">
       <use xlink:href="#DejaVuSans-32"/>
       <use xlink:href="#DejaVuSans-30" transform="translate(63.623047 0)"/>
       <use xlink:href="#DejaVuSans-34" transform="translate(127.246094 0)"/>
       <use xlink:href="#DejaVuSans-35" transform="translate(190.869141 0)"/>
      </g>
     </g>
    </g>
    <g id="xtick_6">
     <g id="line2d_11">
      <path d="M 1092.957727 656.42 
L 1092.957727 65.28 
" clip-path="url(#pe621971214)" style="fill: none; stroke: #ffffff; stroke-opacity: 0.2; stroke-width: 2; stroke-linecap: square"/>
     </g>
     <g id="line2d_12">
      <g>
       <use xlink:href="#m9e756d5e3d" x="1092.957727" y="656.42" style="fill: #ffffff; stroke: #ffffff; stroke-width: 4"/>
      </g>
     </g>
     <g id="text_6">
      <!-- 2050 -->
      <g style="fill: #ffffff" transform="translate(1072.597727 682.0775) scale(0.16 -0.16)">
       <use xlink:href="#DejaVuSans-32"/>
       <use xlink:href="#DejaVuSans-30" transform="translate(63.623047 0)"/>
       <use xlink:href="#DejaVuSans-35" transform="translate(127.246094 0)"/>
       <use xlink:href="#DejaVuSans-30" transform="translate(190.869141 0)"/>
      </g>
     </g>
    </g>
    <g id="text_7">
     <!-- YEAR -->
     <g style="fill: #ffffff" transform="translate(578.072969 706.121562) scale(0.22 -0.22)">
      <defs>
       <path id="DejaVuSans-Bold-59" d="M -63 4666 
L 1253 4666 
L 2316 3003 
L 3378 4666 
L 4697 4666 
L 2919 1966 
L 2919 0 
L 1716 0 
L 1716 1966 
L -63 4666 
z
" transform="scale(0.015625)"/>
       <path id="DejaVuSans-Bold-45" d="M 588 4666 
L 3834 4666 
L 3834 3756 
L 1791 3756 
L 1791 2888 
L 3713 2888 
L 3713 1978 
L 1791 1978 
L 1791 909 
L 3903 909 
L 3903 0 
L 588 0 
L 588 4666 
z
" transform="scale(0.015625)"/>
       <path id="DejaVuSans-Bold-41" d="M 3419 850 
L 1538 850 
L 1241 0 
L 31 0 
L 1759 4666 
L 3194 4666 
L 4922 0 
L 3713 0 
L 3419 850 
z
M 1838 1716 
L 3116 1716 
L 2478 3572 
L 1838 1716 
z
" transform="scale(0.015625)"/>
       <path id="DejaVuSans-Bold-52" d="M 2297 2597 
Q 2675 2597 2839 2737 
Q 3003 2878 3003 3200 
Q 3003 3519 2839 3656 
Q 2675 3794 2297 3794 
L 1791 3794 
L 1791 2597 
L 2297 2597 
z
M 1791 1766 
L 1791 0 
L 588 0 
L 588 4666 
L 2425 4666 
Q 3347 4666 3776 4356 
Q 4206 4047 4206 3378 
Q 4206 2916 3982 2619 
Q 3759 2322 3309 2181 
Q 3556 2125 3751 1926 
Q 3947 1728 4147 1325 
L 4800 0 
L 3519 0 
L 2950 1159 
Q 2778 1509 2601 1637 
Q 2425 1766 2131 1766 
L 1791 1766 
z
" transform="scale(0.015625)"/>
      </defs>
      <use xlink:href="#DejaVuSans-Bold-59"/>
      <use xlink:href="#DejaVuSans-Bold-45" transform="translate(72.412109 0)"/>
      <use xlink:href="#DejaVuSans-Bold-41" transform="translate(140.722656 0)"/>
      <use xlink:href="#DejaVuSans-Bold-52" transform="translate(218.115234 0)"/>
     </g>
    </g>
   </g>
   <g id="matplotlib.axis_2">
    <g id="ytick_1">
     <g id="line2d_13">
      <path d="M 79.87 656.42 
L 1141.2 656.42 
" clip-path="url(#pe621971214)" style="fill: none; stroke: #ffffff; stroke-opacity: 0.2; stroke-width: 2; stroke-linecap: square"/>
     </g>
     <g id="line2d_14">
      <defs>
       <path id="m4ea2153671" d="M 0 0 
L -10 0 
" style="stroke: #ffffff; stroke-width: 4"/>
      </defs>
      <g>
       <use xlink:href="#m4ea2153671" x="79.87" y="656.42" style="fill: #ffffff; stroke: #ffffff; stroke-width: 4"/>
      </g>
     </g>
     <g id="text_8">
      <!-- 0 -->
      <g style="fill: #ffffff" transform="translate(56.19 662.49875) scale(0.16 -0.16)">
       <use xlink:href="#DejaVuSans-30"/>
      </g>
     </g>
    </g>
    <g id="ytick_2">
     <g id="line2d_15">
      <path d="M 79.87 538.192 
L 1141.2 538.192 
" clip-path="url(#pe621971214)" style="fill: none; stroke: #ffffff; stroke-opacity: 0.2; stroke-width: 2; stroke-linecap: square"/>
     </g>
     <g id="line2d_16">
      <g>
       <use xlink:href="#m4ea2153671" x="79.87" y="538.192" style="fill: #ffffff; stroke: #ffffff; stroke-width: 4"/>
      </g>
     </g>
     <g id="text_9">
      <!-- 50 -->
      <g style="fill: #ffffff" transform="translate(46.01 544.27075) scale(0.16 -0.16)">
       <use xlink:href="#DejaVuSans-35"/>
       <use xlink:href="#DejaVuSans-30" transform="translate(63.623047 0)"/>
      </g>
     </g>
    </g>
    <g id="ytick_3">
     <g id="line2d_17">
      <path d="M 79.87 419.964 
L 1141.2 419.964 
" clip-path="url(#pe621971214)" style="fill: none; stroke: #ffffff; stroke-opacity: 0.2; stroke-width: 2; stroke-linecap: square"/>
     </g>
     <g id="line2d_18">
      <g>
       <use xlink:href="#m4ea2153671" x="79.87" y="419.964" style="fill: #ffffff; stroke: #ffffff; stroke-width: 4"/>
      </g>
     </g>
     <g id="text_10">
      <!-- 100 -->
      <g style="fill: #ffffff" transform="translate(35.83 426.04275) scale(0.16 -0.16)">
       <defs>
        <path id="DejaVuSans-31" d="M 794 531 
L 1825 531 
L 1825 4091 
L 703 3866 
L 703 4441 
L 1819 4666 
L 2450 4666 
L 2450 531 
L 3481 531 
L 3481 0 
L 794 0 
L 794 531 
z
" transform="scale(0.015625)"/>
       </defs>
       <use xlink:href="#DejaVuSans-31"/>
       <use xlink:href="#DejaVuSans-30" transform="translate(63.623047 0)"/>
       <use xlink:href="#DejaVuSans-30" transform="translate(127.246094 0)"/>
      </g>
     </g>
    </g>
    <g id="ytick_4">
     <g id="line2d_19">
      <path d="M 79.87 301.736 
L 1141.2 301.736 
" clip-path="url(#pe621971214)" style="fill: none; stroke: #ffffff; stroke-opacity: 0.2; stroke-width: 2; stroke-linecap: square"/>
     </g>
     <g id="line2d_20">
      <g>
       <use xlink:href="#m4ea2153671" x="79.87" y="301.736" style="fill: #ffffff; stroke: #ffffff; stroke-width: 4"/>
      </g>
     </g>
     <g id="text_11">
      <!-- 150 -->
      <g style="fill: #ffffff" transform="translate(35.83 307.81475) scale(0.16 -0.16)">
       <use xlink:href="#DejaVuSans-31"/>
       <use xlink:href="#DejaVuSans-35" transform="translate(63.623047 0)"/>
       <use xlink:href="#DejaVuSans-30" transform="translate(127.246094 0)"/>
      </g>
     </g>
    </g>
    <g id="ytick_5">
     <g id="line2d_21">
      <path d="M 79.87 183.508 
L 1141.2 183.508 
" clip-path="url(#pe621971214)" style="fill: none; stroke: #ffffff; stroke-opacity: 0.2; stroke-width: 2; stroke-linecap: square"/>
     </g>
     <g id="line2d_22">
      <g>
       <use xlink:href="#m4ea2153671" x="79.87" y="183.508" style="fill: #ffffff; stroke: #ffffff; stroke-width: 4"/>
      </g>
     </g>
     <g id="text_12">
      <!-- 200 -->
      <g style="fill: #ffffff" transform="translate(35.83 189.58675) scale(0.16 -0.16)">
       <use xlink:href="#DejaVuSans-32"/>
       <use xlink:href="#DejaVuSans-30" transform="translate(63.623047 0)"/>
       <use xlink:href="#DejaVuSans-30" transform="translate(127.246094 0)"/>
      </g>
     </g>
    </g>
    <g id="ytick_6">
     <g id="line2d_23">
      <path d="M 79.87 65.28 
L 1141.2 65.28 
" clip-path="url(#pe621971214)" style="fill: none; stroke: #ffffff; stroke-opacity: 0.2; stroke-width: 2; stroke-linecap: square"/>
     </g>
     <g id="line2d_24">
      <g>
       <use xlink:href="#m4ea2153671" x="79.87" y="65.28" style="fill: #ffffff; stroke: #ffffff; stroke-width: 4"/>
      </g>
     </g>
     <g id="text_13">
      <!-- 250 -->
      <g style="fill: #ffffff" transform="translate(35.83 71.35875) scale(0.16 -0.16)">
       <use xlink:href="#DejaVuSans-32"/>
       <use xlink:href="#DejaVuSans-35" transform="translate(63.623047 0)"/>
       <use xlink:href="#DejaVuSans-30" transform="translate(127.246094 0)"/>
      </g>
     </g>
    </g>
    <g id="text_14">
     <!-- TRILLIONS PER YEAR -->
     <g style="fill: #ffffff" transform="translate(27.254688 489.67375) rotate(-90) scale(0.22 -0.22)">
      <defs>
       <path id="DejaVuSans-Bold-54" d="M 31 4666 
L 4331 4666 
L 4331 3756 
L 2784 3756 
L 2784 0 
L 1581 0 
L 1581 3756 
L 31 3756 
L 31 4666 
z
" transform="scale(0.015625)"/>
       <path id="DejaVuSans-Bold-49" d="M 588 4666 
L 1791 4666 
L 1791 0 
L 588 0 
L 588 4666 
z
" transform="scale(0.015625)"/>
       <path id="DejaVuSans-Bold-4c" d="M 588 4666 
L 1791 4666 
L 1791 909 
L 3903 909 
L 3903 0 
L 588 0 
L 588 4666 
z
" transform="scale(0.015625)"/>
       <path id="DejaVuSans-Bold-4f" d="M 2719 3878 
Q 2169 3878 1866 3472 
Q 1563 3066 1563 2328 
Q 1563 1594 1866 1187 
Q 2169 781 2719 781 
Q 3272 781 3575 1187 
Q 3878 1594 3878 2328 
Q 3878 3066 3575 3472 
Q 3272 3878 2719 3878 
z
M 2719 4750 
Q 3844 4750 4481 4106 
Q 5119 3463 5119 2328 
Q 5119 1197 4481 553 
Q 3844 -91 2719 -91 
Q 1597 -91 958 553 
Q 319 1197 319 2328 
Q 319 3463 958 4106 
Q 1597 4750 2719 4750 
z
" transform="scale(0.015625)"/>
       <path id="DejaVuSans-Bold-4e" d="M 588 4666 
L 1931 4666 
L 3628 1466 
L 3628 4666 
L 4769 4666 
L 4769 0 
L 3425 0 
L 1728 3200 
L 1728 0 
L 588 0 
L 588 4666 
z
" transform="scale(0.015625)"/>
       <path id="DejaVuSans-Bold-53" d="M 3834 4519 
L 3834 3531 
Q 3450 3703 3084 3790 
Q 2719 3878 2394 3878 
Q 1963 3878 1756 3759 
Q 1550 3641 1550 3391 
Q 1550 3203 1689 3098 
Q 1828 2994 2194 2919 
L 2706 2816 
Q 3484 2659 3812 2340 
Q 4141 2022 4141 1434 
Q 4141 663 3683 286 
Q 3225 -91 2284 -91 
Q 1841 -91 1394 -6 
Q 947 78 500 244 
L 500 1259 
Q 947 1022 1364 901 
Q 1781 781 2169 781 
Q 2563 781 2772 912 
Q 2981 1044 2981 1288 
Q 2981 1506 2839 1625 
Q 2697 1744 2272 1838 
L 1806 1941 
Q 1106 2091 782 2419 
Q 459 2747 459 3303 
Q 459 4000 909 4375 
Q 1359 4750 2203 4750 
Q 2588 4750 2994 4692 
Q 3400 4634 3834 4519 
z
" transform="scale(0.015625)"/>
       <path id="DejaVuSans-Bold-20" transform="scale(0.015625)"/>
       <path id="DejaVuSans-Bold-50" d="M 588 4666 
L 2584 4666 
Q 3475 4666 3951 4270 
Q 4428 3875 4428 3144 
Q 4428 2409 3951 2014 
Q 3475 1619 2584 1619 
L 1791 1619 
L 1791 0 
L 588 0 
L 588 4666 
z
M 1791 3794 
L 1791 2491 
L 2456 2491 
Q 2806 2491 2997 2661 
Q 3188 2831 3188 3144 
Q 3188 3456 2997 3625 
Q 2806 3794 2456 3794 
L 1791 3794 
z
" transform="scale(0.015625)"/>
      </defs>
      <use xlink:href="#DejaVuSans-Bold-54"/>
      <use xlink:href="#DejaVuSans-Bold-52" transform="translate(68.212891 0)"/>
      <use xlink:href="#DejaVuSans-Bold-49" transform="translate(145.214844 0)"/>
      <use xlink:href="#DejaVuSans-Bold-4c" transform="translate(182.421875 0)"/>
      <use xlink:href="#DejaVuSans-Bold-4c" transform="translate(246.142578 0)"/>
      <use xlink:href="#DejaVuSans-Bold-49" transform="translate(309.863281 0)"/>
      <use xlink:href="#DejaVuSans-Bold-4f" transform="translate(347.070312 0)"/>
      <use xlink:href="#DejaVuSans-Bold-4e" transform="translate(432.080078 0)"/>
      <use xlink:href="#DejaVuSans-Bold-53" transform="translate(515.771484 0)"/>
      <use xlink:href="#DejaVuSans-Bold-20" transform="translate(587.792969 0)"/>
      <use xlink:href="#DejaVuSans-Bold-50" transform="translate(622.607422 0)"/>
      <use xlink:href="#DejaVuSans-Bold-45" transform="translate(695.898438 0)"/>
      <use xlink:href="#DejaVuSans-Bold-52" transform="translate(764.208984 0)"/>
      <use xlink:href="#DejaVuSans-Bold-20" transform="translate(841.210938 0)"/>
      <use xlink:href="#DejaVuSans-Bold-59" transform="translate(876.025391 0)"/>
      <use xlink:href="#DejaVuSans-Bold-45" transform="translate(948.4375 0)"/>
      <use xlink:href="#DejaVuSans-Bold-41" transform="translate(1016.748047 0)"/>
      <use xlink:href="#DejaVuSans-Bold-52" transform="translate(1094.140625 0)"/>
     </g>
    </g>
   </g>
   <g id="line2d_25">
    <path d="M 128.112273 375.03736 
L 165.221713 366.595881 
L 202.331154 357.901157 
L 239.440594 348.945592 
L 276.550035 339.72136 
L 313.659476 330.2204 
L 350.768916 320.434413 
L 387.878357 310.354845 
L 424.987797 299.97289 
L 462.097238 289.279477 
L 499.206678 278.265261 
L 536.316119 266.920619 
L 573.425559 255.235638 
L 610.535 243.200107 
L 647.644441 230.80351 
L 684.753881 218.035015 
L 721.863322 204.883466 
L 758.972762 191.33737 
L 796.082203 177.384891 
L 833.191643 163.013838 
L 870.301084 148.211653 
L 907.410524 132.965402 
L 944.519965 117.261764 
L 981.629406 101.087017 
L 1018.738846 84.427028 
L 1055.848287 67.267239 
L 1092.957727 49.592656 
" clip-path="url(#pe621971214)" style="fill: none; stroke: #ff0000; stroke-width: 5; stroke-linecap: square"/>
    <defs>
     <path id="me5a03115d5" d="M 0 2 
C 0.530406 2 1.03916 1.789267 1.414214 1.414214 
C 1.789267 1.03916 2 0.530406 2 0 
C 2 -0.530406 1.789267 -1.03916 1.414214 -1.414214 
C 1.03916 -1.789267 0.530406 -2 0 -2 
C -0.530406 -2 -1.03916 -1.789267 -1.414214 -1.414214 
C -1.789267 -1.03916 -2 -0.530406 -2 0 
C -2 0.530406 -1.789267 1.03916 -1.414214 1.414214 
C -1.03916 1.789267 -0.530406 2 0 2 
z
" style="stroke: #ff0000"/>
    </defs>
    <g clip-path="url(#pe621971214)">
     <use xlink:href="#me5a03115d5" x="128.112273" y="375.03736" style="fill: #ff0000; stroke: #ff0000"/>
     <use xlink:href="#me5a03115d5" x="165.221713" y="366.595881" style="fill: #ff0000; stroke: #ff0000"/>
     <use xlink:href="#me5a03115d5" x="202.331154" y="357.901157" style="fill: #ff0000; stroke: #ff0000"/>
     <use xlink:href="#me5a03115d5" x="239.440594" y="348.945592" style="fill: #ff0000; stroke: #ff0000"/>
     <use xlink:href="#me5a03115d5" x="276.550035" y="339.72136" style="fill: #ff0000; stroke: #ff0000"/>
     <use xlink:href="#me5a03115d5" x="313.659476" y="330.2204" style="fill: #ff0000; stroke: #ff0000"/>
     <use xlink:href="#me5a03115d5" x="350.768916" y="320.434413" style="fill: #ff0000; stroke: #ff0000"/>
     <use xlink:href="#me5a03115d5" x="387.878357" y="310.354845" style="fill: #ff0000; stroke: #ff0000"/>
     <use xlink:href="#me5a03115d5" x="424.987797" y="299.97289" style="fill: #ff0000; stroke: #ff0000"/>
     <use xlink:href="#me5a03115d5" x="462.097238" y="289.279477" style="fill: #ff0000; stroke: #ff0000"/>
     <use xlink:href="#me5a03115d5" x="499.206678" y="278.265261" style="fill: #ff0000; stroke: #ff0000"/>
     <use xlink:href="#me5a03115d5" x="536.316119" y="266.920619" style="fill: #ff0000; stroke: #ff0000"/>
     <use xlink:href="#me5a03115d5" x="573.425559" y="255.235638" style="fill: #ff0000; stroke: #ff0000"/>
     <use xlink:href="#me5a03115d5" x="610.535" y="243.200107" style="fill: #ff0000; stroke: #ff0000"/>
     <use xlink:href="#me5a03115d5" x="647.644441" y="230.80351" style="fill: #ff0000; stroke: #ff0000"/>
     <use xlink:href="#me5a03115d5" x="684.753881" y="218.035015" style="fill: #ff0000; stroke: #ff0000"/>
     <use xlink:href="#me5a03115d5" x="721.863322" y="204.883466" style="fill: #ff0000; stroke: #ff0000"/>
     <use xlink:href="#me5a03115d5" x="758.972762" y="191.33737" style="fill: #ff0000; stroke: #ff0000"/>
     <use xlink:href="#me5a03115d5" x="796.082203" y="177.384891" style="fill: #ff0000; stroke: #ff0000"/>
     <use xlink:href="#me5a03115d5" x="833.191643" y="163.013838" style="fill: #ff0000; stroke: #ff0000"/>
     <use xlink:href="#me5a03115d5" x="870.301084" y="148.211653" style="fill: #ff0000; stroke: #ff0000"/>
     <use xlink:href="#me5a03115d5" x="907.410524" y="132.965402" style="fill: #ff0000; stroke: #ff0000"/>
     <use xlink:href="#me5a03115d5" x="944.519965" y="117.261764" style="fill: #ff0000; stroke: #ff0000"/>
     <use xlink:href="#me5a03115d5" x="981.629406" y="101.087017" style="fill: #ff0000; stroke: #ff0000"/>
     <use xlink:href="#me5a03115d5" x="1018.738846" y="84.427028" style="fill: #ff0000; stroke: #ff0000"/>
     <use xlink:href="#me5a03115d5" x="1055.848287" y="67.267239" style="fill: #ff0000; stroke: #ff0000"/>
     <use xlink:href="#me5a03115d5" x="1092.957727" y="49.592656" style="fill: #ff0000; stroke: #ff0000"/>
    </g>
   </g>
   <g id="line2d_26">
    <path d="M 128.112273 495.62992 
L 165.221713 492.414118 
L 202.331154 489.134001 
L 239.440594 485.788281 
L 276.550035 482.375646 
L 313.659476 478.894759 
L 350.768916 475.344255 
L 387.878357 471.72274 
L 424.987797 468.028794 
L 462.097238 464.26097 
L 499.206678 460.41779 
L 536.316119 456.497745 
L 573.425559 452.4993 
L 610.535 448.420886 
L 647.644441 444.260904 
L 684.753881 440.017722 
L 721.863322 435.689677 
L 758.972762 431.27507 
L 796.082203 426.772172 
L 833.191643 422.179215 
L 870.301084 417.494399 
L 907.410524 412.715887 
L 944.519965 407.841805 
L 981.629406 402.870241 
L 1018.738846 397.799246 
L 1055.848287 392.626831 
L 1092.957727 387.350968 
" clip-path="url(#pe621971214)" style="fill: none; stroke: #00ff00; stroke-width: 5; stroke-linecap: square"/>
    <defs>
     <path id="m1670d4c1ea" d="M -2 2 
L 2 2 
L 2 -2 
L -2 -2 
z
" style="stroke: #00ff00; stroke-linejoin: miter"/>
    </defs>
    <g clip-path="url(#pe621971214)">
     <use xlink:href="#m1670d4c1ea" x="128.112273" y="495.62992" style="fill: #00ff00; stroke: #00ff00; stroke-linejoin: miter"/>
     <use xlink:href="#m1670d4c1ea" x="165.221713" y="492.414118" style="fill: #00ff00; stroke: #00ff00; stroke-linejoin: miter"/>
     <use xlink:href="#m1670d4c1ea" x="202.331154" y="489.134001" style="fill: #00ff00; stroke: #00ff00; stroke-linejoin: miter"/>
     <use xlink:href="#m1670d4c1ea" x="239.440594" y="485.788281" style="fill: #00ff00; stroke: #00ff00; stroke-linejoin: miter"/>
     <use xlink:href="#m1670d4c1ea" x="276.550035" y="482.375646" style="fill: #00ff00; stroke: #00ff00; stroke-linejoin: miter"/>
     <use xlink:href="#m1670d4c1ea" x="313.659476" y="478.894759" style="fill: #00ff00; stroke: #00ff00; stroke-linejoin: miter"/>
     <use xlink:href="#m1670d4c1ea" x="350.768916" y="475.344255" style="fill: #00ff00; stroke: #00ff00; stroke-linejoin: miter"/>
     <use xlink:href="#m1670d4c1ea" x="387.878357" y="471.72274" style="fill: #00ff00; stroke: #00ff00; stroke-linejoin: miter"/>
     <use xlink:href="#m1670d4c1ea" x="424.987797" y="468.028794" style="fill: #00ff00; stroke: #00ff00; stroke-linejoin: miter"/>
     <use xlink:href="#m1670d4c1ea" x="462.097238" y="464.26097" style="fill: #00ff00; stroke: #00ff00; stroke-linejoin: miter"/>
     <use xlink:href="#m1670d4c1ea" x="499.206678" y="460.41779" style="fill: #00ff00; stroke: #00ff00; stroke-linejoin: miter"/>
     <use xlink:href="#m1670d4c1ea" x="536.316119" y="456.497745" style="fill: #00ff00; stroke: #00ff00; stroke-linejoin: miter"/>
     <use xlink:href="#m1670d4c1ea" x="573.425559" y="452.4993" style="fill: #00ff00; stroke: #00ff00; stroke-linejoin: miter"/>
     <use xlink:href="#m1670d4c1ea" x="610.535" y="448.420886" style="fill: #00ff00; stroke: #00ff00; stroke-linejoin: miter"/>
     <use xlink:href="#m1670d4c1ea" x="647.644441" y="444.260904" style="fill: #00ff00; stroke: #00ff00; stroke-linejoin: miter"/>
     <use xlink:href="#m1670d4c1ea" x="684.753881" y="440.017722" style="fill: #00ff00; stroke: #00ff00; stroke-linejoin: miter"/>
     <use xlink:href="#m1670d4c1ea" x="721.863322" y="435.689677" style="fill: #00ff00; stroke: #00ff00; stroke-linejoin: miter"/>
     <use xlink:href="#m1670d4c1ea" x="758.972762" y="431.27507" style="fill: #00ff00; stroke: #00ff00; stroke-linejoin: miter"/>
     <use xlink:href="#m1670d4c1ea" x="796.082203" y="426.772172" style="fill: #00ff00; stroke: #00ff00; stroke-linejoin: miter"/>
     <use xlink:href="#m1670d4c1ea" x="833.191643" y="422.179215" style="fill: #00ff00; stroke: #00ff00; stroke-linejoin: miter"/>
     <use xlink:href="#m1670d4c1ea" x="870.301084" y="417.494399" style="fill: #00ff00; stroke: #00ff00; stroke-linejoin: miter"/>
     <use xlink:href="#m1670d4c1ea" x="907.410524" y="412.715887" style="fill: #00ff00; stroke: #00ff00; stroke-linejoin: miter"/>
     <use xlink:href="#m1670d4c1ea" x="944.519965" y="407.841805" style="fill: #00ff00; stroke: #00ff00; stroke-linejoin: miter"/>
     <use xlink:href="#m1670d4c1ea" x="981.629406" y="402.870241" style="fill: #00ff00; stroke: #00ff00; stroke-linejoin: miter"/>
     <use xlink:href="#m1670d4c1ea" x="1018.738846" y="397.799246" style="fill: #00ff00; stroke: #00ff00; stroke-linejoin: miter"/>
     <use xlink:href="#m1670d4c1ea" x="1055.848287" y="392.626831" style="fill: #00ff00; stroke: #00ff00; stroke-linejoin: miter"/>
     <use xlink:href="#m1670d4c1ea" x="1092.957727" y="387.350968" style="fill: #00ff00; stroke: #00ff00; stroke-linejoin: miter"/>
    </g>
   </g>
   <g id="patch_4">
    <path d="M 79.87 656.42 
L 79.87 65.28 
" style="fill: none; stroke: #ffffff; stroke-width: 4; stroke-linejoin: miter; stroke-linecap: square"/>
   </g>
   <g id="patch_5">
    <path d="M 1141.2 656.42 
L 1141.2 65.28 
" style="fill: none; stroke: #ffffff; stroke-width: 4; stroke-linejoin: miter; stroke-linecap: square"/>
   </g>
   <g id="patch_6">
    <path d="M 79.87 656.42 
L 1141.2 656.42 
" style="fill: none; stroke: #ffffff; stroke-width: 4; stroke-linejoin: miter; stroke-linecap: square"/>
   </g>
   <g id="patch_7">
    <path d="M 79.87 65.28 
L 1141.2 65.28 
" style="fill: none; stroke: #ffffff; stroke-width: 4; stroke-linejoin: miter; stroke-linecap: square"/>
   </g>
   <g id="patch_8">
    <path d="M 192.141712 336.933984 
Q 160.984809 355.475193 132.710247 372.301145 
" style="fill: none; stroke: #ffffff; stroke-width: 3; stroke-linecap: round"/>
    <path d="M 139.846526 371.778158 
L 132.710247 372.301145 
L 136.573625 366.278329 
" style="fill: none; stroke: #ffffff; stroke-width: 3; stroke-linecap: round"/>
   </g>
   <g id="text_15">
    <g id="patch_9">
     <path d="M 202.331154 339.07366 
L 257.776154 339.07366 
Q 265.776154 339.07366 265.776154 331.07366 
L 265.776154 297.67216 
Q 265.776154 289.67216 257.776154 289.67216 
L 202.331154 289.67216 
Q 194.331154 289.67216 194.331154 297.67216 
L 194.331154 331.07366 
Q 194.331154 339.07366 202.331154 339.07366 
z
" style="fill: #ff0000; stroke: #ffffff; stroke-width: 3; stroke-linejoin: miter"/>
    </g>
    <!-- 2024: -->
    <g style="fill: #ffffff" transform="translate(202.331154 309.82966) scale(0.16 -0.16)">
     <defs>
      <path id="DejaVuSans-Bold-32" d="M 1844 884 
L 3897 884 
L 3897 0 
L 506 0 
L 506 884 
L 2209 2388 
Q 2438 2594 2547 2791 
Q 2656 2988 2656 3200 
Q 2656 3528 2436 3728 
Q 2216 3928 1850 3928 
Q 1569 3928 1234 3808 
Q 900 3688 519 3450 
L 519 4475 
Q 925 4609 1322 4679 
Q 1719 4750 2100 4750 
Q 2938 4750 3402 4381 
Q 3866 4013 3866 3353 
Q 3866 2972 3669 2642 
Q 3472 2313 2841 1759 
L 1844 884 
z
" transform="scale(0.015625)"/>
      <path id="DejaVuSans-Bold-30" d="M 2944 2338 
Q 2944 3213 2780 3570 
Q 2616 3928 2228 3928 
Q 1841 3928 1675 3570 
Q 1509 3213 1509 2338 
Q 1509 1453 1675 1090 
Q 1841 728 2228 728 
Q 2613 728 2778 1090 
Q 2944 1453 2944 2338 
z
M 4147 2328 
Q 4147 1169 3647 539 
Q 3147 -91 2228 -91 
Q 1306 -91 806 539 
Q 306 1169 306 2328 
Q 306 3491 806 4120 
Q 1306 4750 2228 4750 
Q 3147 4750 3647 4120 
Q 4147 3491 4147 2328 
z
" transform="scale(0.015625)"/>
      <path id="DejaVuSans-Bold-34" d="M 2356 3675 
L 1038 1722 
L 2356 1722 
L 2356 3675 
z
M 2156 4666 
L 3494 4666 
L 3494 1722 
L 4159 1722 
L 4159 850 
L 3494 850 
L 3494 0 
L 2356 0 
L 2356 850 
L 288 850 
L 288 1881 
L 2156 4666 
z
" transform="scale(0.015625)"/>
      <path id="DejaVuSans-Bold-3a" d="M 716 3500 
L 1844 3500 
L 1844 2291 
L 716 2291 
L 716 3500 
z
M 716 1209 
L 1844 1209 
L 1844 0 
L 716 0 
L 716 1209 
z
" transform="scale(0.015625)"/>
     </defs>
     <use xlink:href="#DejaVuSans-Bold-32"/>
     <use xlink:href="#DejaVuSans-Bold-30" transform="translate(69.580078 0)"/>
     <use xlink:href="#DejaVuSans-Bold-32" transform="translate(139.160156 0)"/>
     <use xlink:href="#DejaVuSans-Bold-34" transform="translate(208.740234 0)"/>
     <use xlink:href="#DejaVuSans-Bold-3a" transform="translate(278.320312 0)"/>
    </g>
    <!-- $119T -->
    <g style="fill: #ffffff" transform="translate(202.331154 327.74616) scale(0.16 -0.16)">
     <defs>
      <path id="DejaVuSans-Bold-24" d="M 2484 -941 
L 1978 -941 
L 1975 0 
Q 1584 16 1218 87 
Q 853 159 506 288 
L 506 1106 
Q 866 922 1233 823 
Q 1600 725 1978 713 
L 1978 1684 
L 1875 1703 
Q 1128 1834 814 2115 
Q 500 2397 500 2925 
Q 500 3484 883 3798 
Q 1266 4113 1975 4141 
L 1978 4863 
L 2484 4863 
L 2484 4153 
Q 2797 4128 3109 4075 
Q 3422 4022 3738 3938 
L 3738 3144 
Q 3425 3275 3112 3348 
Q 2800 3422 2484 3438 
L 2484 2541 
L 2584 2522 
Q 3378 2397 3698 2105 
Q 4019 1813 4019 1241 
Q 4019 666 3637 358 
Q 3256 50 2484 6 
L 2484 -941 
z
M 1978 2613 
L 1978 3428 
Q 1756 3416 1623 3308 
Q 1491 3200 1491 3034 
Q 1491 2850 1612 2745 
Q 1734 2641 1978 2613 
z
M 2484 1594 
L 2484 725 
Q 2756 728 2892 831 
Q 3028 934 3028 1141 
Q 3028 1353 2903 1458 
Q 2778 1563 2484 1594 
z
" transform="scale(0.015625)"/>
      <path id="DejaVuSans-Bold-31" d="M 750 831 
L 1813 831 
L 1813 3847 
L 722 3622 
L 722 4441 
L 1806 4666 
L 2950 4666 
L 2950 831 
L 4013 831 
L 4013 0 
L 750 0 
L 750 831 
z
" transform="scale(0.015625)"/>
      <path id="DejaVuSans-Bold-39" d="M 641 103 
L 641 966 
Q 928 831 1190 764 
Q 1453 697 1709 697 
Q 2247 697 2547 995 
Q 2847 1294 2900 1881 
Q 2688 1725 2447 1647 
Q 2206 1569 1925 1569 
Q 1209 1569 770 1986 
Q 331 2403 331 3084 
Q 331 3838 820 4291 
Q 1309 4744 2131 4744 
Q 3044 4744 3544 4128 
Q 4044 3513 4044 2388 
Q 4044 1231 3459 570 
Q 2875 -91 1856 -91 
Q 1528 -91 1228 -42 
Q 928 6 641 103 
z
M 2125 2350 
Q 2441 2350 2600 2554 
Q 2759 2759 2759 3169 
Q 2759 3575 2600 3781 
Q 2441 3988 2125 3988 
Q 1809 3988 1650 3781 
Q 1491 3575 1491 3169 
Q 1491 2759 1650 2554 
Q 1809 2350 2125 2350 
z
" transform="scale(0.015625)"/>
     </defs>
     <use xlink:href="#DejaVuSans-Bold-24"/>
     <use xlink:href="#DejaVuSans-Bold-31" transform="translate(69.580078 0)"/>
     <use xlink:href="#DejaVuSans-Bold-31" transform="translate(139.160156 0)"/>
     <use xlink:href="#DejaVuSans-Bold-39" transform="translate(208.740234 0)"/>
     <use xlink:href="#DejaVuSans-Bold-54" transform="translate(278.320312 0)"/>
    </g>
   </g>
   <g id="patch_10">
    <path d="M 685.157465 197.686023 
Q 702.526881 201.091893 714.410592 203.422102 
" style="fill: none; stroke: #ffff00; stroke-width: 5; stroke-linecap: round"/>
    <path d="M 705.913606 196.864569 
L 714.410592 203.422102 
L 704.066374 206.285171 
" style="fill: none; stroke: #ffff00; stroke-width: 5; stroke-linecap: round"/>
   </g>
   <g id="text_16">
    <g id="patch_11">
     <path d="M 610.535 254.99045 
L 755.8625 254.99045 
Q 775.0625 254.99045 775.0625 235.79045 
L 775.0625 158.81345 
Q 775.0625 139.61345 755.8625 139.61345 
L 610.535 139.61345 
Q 591.335 139.61345 591.335 158.81345 
L 591.335 235.79045 
Q 591.335 254.99045 610.535 254.99045 
z
" style="stroke: #ffff00; stroke-width: 5; stroke-linejoin: miter"/>
    </g>
    <!-- ECONOMIC -->
    <g style="fill: #ffff00" transform="translate(610.535 177.0497) scale(0.24 -0.24)">
     <defs>
      <path id="DejaVuSans-Bold-43" d="M 4288 256 
Q 3956 84 3597 -3 
Q 3238 -91 2847 -91 
Q 1681 -91 1000 561 
Q 319 1213 319 2328 
Q 319 3447 1000 4098 
Q 1681 4750 2847 4750 
Q 3238 4750 3597 4662 
Q 3956 4575 4288 4403 
L 4288 3438 
Q 3953 3666 3628 3772 
Q 3303 3878 2944 3878 
Q 2300 3878 1931 3465 
Q 1563 3053 1563 2328 
Q 1563 1606 1931 1193 
Q 2300 781 2944 781 
Q 3303 781 3628 887 
Q 3953 994 4288 1222 
L 4288 256 
z
" transform="scale(0.015625)"/>
      <path id="DejaVuSans-Bold-4d" d="M 588 4666 
L 2119 4666 
L 3181 2169 
L 4250 4666 
L 5778 4666 
L 5778 0 
L 4641 0 
L 4641 3413 
L 3566 897 
L 2803 897 
L 1728 3413 
L 1728 0 
L 588 0 
L 588 4666 
z
" transform="scale(0.015625)"/>
     </defs>
     <use xlink:href="#DejaVuSans-Bold-45"/>
     <use xlink:href="#DejaVuSans-Bold-43" transform="translate(68.310547 0)"/>
     <use xlink:href="#DejaVuSans-Bold-4f" transform="translate(141.699219 0)"/>
     <use xlink:href="#DejaVuSans-Bold-4e" transform="translate(226.708984 0)"/>
     <use xlink:href="#DejaVuSans-Bold-4f" transform="translate(310.400391 0)"/>
     <use xlink:href="#DejaVuSans-Bold-4d" transform="translate(395.410156 0)"/>
     <use xlink:href="#DejaVuSans-Bold-49" transform="translate(494.921875 0)"/>
     <use xlink:href="#DejaVuSans-Bold-43" transform="translate(532.128906 0)"/>
    </g>
    <!-- COLLAPSE -->
    <g style="fill: #ffff00" transform="translate(610.535 203.92445) scale(0.24 -0.24)">
     <use xlink:href="#DejaVuSans-Bold-43"/>
     <use xlink:href="#DejaVuSans-Bold-4f" transform="translate(73.388672 0)"/>
     <use xlink:href="#DejaVuSans-Bold-4c" transform="translate(158.398438 0)"/>
     <use xlink:href="#DejaVuSans-Bold-4c" transform="translate(222.119141 0)"/>
     <use xlink:href="#DejaVuSans-Bold-41" transform="translate(285.839844 0)"/>
     <use xlink:href="#DejaVuSans-Bold-50" transform="translate(363.232422 0)"/>
     <use xlink:href="#DejaVuSans-Bold-53" transform="translate(436.523438 0)"/>
     <use xlink:href="#DejaVuSans-Bold-45" transform="translate(508.544922 0)"/>
    </g>
    <!-- ZONE -->
    <g style="fill: #ffff00" transform="translate(610.535 230.7992) scale(0.24 -0.24)">
     <defs>
      <path id="DejaVuSans-Bold-5a" d="M 359 4666 
L 4281 4666 
L 4281 3938 
L 1778 909 
L 4353 909 
L 4353 0 
L 288 0 
L 288 728 
L 2791 3756 
L 359 3756 
L 359 4666 
z
" transform="scale(0.015625)"/>
     </defs>
     <use xlink:href="#DejaVuSans-Bold-5a"/>
     <use xlink:href="#DejaVuSans-Bold-4f" transform="translate(72.509766 0)"/>
     <use xlink:href="#DejaVuSans-Bold-4e" transform="translate(157.519531 0)"/>
     <use xlink:href="#DejaVuSans-Bold-45" transform="translate(241.210938 0)"/>
    </g>
   </g>
   <g id="text_17">
    <g id="patch_12">
     <path d="M 903.426281 162.198975 
L 1059.832531 162.198975 
L 1059.832531 78.051475 
L 903.426281 78.051475 
z
" style="stroke: #ff0000; stroke-width: 4; stroke-linejoin: miter"/>
    </g>
    <!-- SPECIES -->
    <g style="fill: #ffffff" transform="translate(935.174718 103.24835) scale(0.2 -0.2)">
     <use xlink:href="#DejaVuSans-Bold-53"/>
     <use xlink:href="#DejaVuSans-Bold-50" transform="translate(72.021484 0)"/>
     <use xlink:href="#DejaVuSans-Bold-45" transform="translate(145.3125 0)"/>
     <use xlink:href="#DejaVuSans-Bold-43" transform="translate(213.623047 0)"/>
     <use xlink:href="#DejaVuSans-Bold-49" transform="translate(287.011719 0)"/>
     <use xlink:href="#DejaVuSans-Bold-45" transform="translate(324.21875 0)"/>
     <use xlink:href="#DejaVuSans-Bold-53" transform="translate(392.529297 0)"/>
    </g>
    <!-- EXTINCTION -->
    <g style="fill: #ffffff" transform="translate(913.426281 125.643975) scale(0.2 -0.2)">
     <defs>
      <path id="DejaVuSans-Bold-58" d="M 3188 2381 
L 4806 0 
L 3553 0 
L 2463 1594 
L 1381 0 
L 122 0 
L 1741 2381 
L 184 4666 
L 1441 4666 
L 2463 3163 
L 3481 4666 
L 4744 4666 
L 3188 2381 
z
" transform="scale(0.015625)"/>
     </defs>
     <use xlink:href="#DejaVuSans-Bold-45"/>
     <use xlink:href="#DejaVuSans-Bold-58" transform="translate(68.310547 0)"/>
     <use xlink:href="#DejaVuSans-Bold-54" transform="translate(145.410156 0)"/>
     <use xlink:href="#DejaVuSans-Bold-49" transform="translate(213.623047 0)"/>
     <use xlink:href="#DejaVuSans-Bold-4e" transform="translate(250.830078 0)"/>
     <use xlink:href="#DejaVuSans-Bold-43" transform="translate(334.521484 0)"/>
     <use xlink:href="#DejaVuSans-Bold-54" transform="translate(407.910156 0)"/>
     <use xlink:href="#DejaVuSans-Bold-49" transform="translate(476.123047 0)"/>
     <use xlink:href="#DejaVuSans-Bold-4f" transform="translate(513.330078 0)"/>
     <use xlink:href="#DejaVuSans-Bold-4e" transform="translate(598.339844 0)"/>
    </g>
    <!-- LIKELY -->
    <g style="fill: #ffffff" transform="translate(944.907531 148.0396) scale(0.2 -0.2)">
     <defs>
      <path id="DejaVuSans-Bold-4b" d="M 588 4666 
L 1791 4666 
L 1791 2963 
L 3525 4666 
L 4922 4666 
L 2675 2456 
L 5153 0 
L 3647 0 
L 1791 1838 
L 1791 0 
L 588 0 
L 588 4666 
z
" transform="scale(0.015625)"/>
     </defs>
     <use xlink:href="#DejaVuSans-Bold-4c"/>
     <use xlink:href="#DejaVuSans-Bold-49" transform="translate(63.720703 0)"/>
     <use xlink:href="#DejaVuSans-Bold-4b" transform="translate(100.927734 0)"/>
     <use xlink:href="#DejaVuSans-Bold-45" transform="translate(178.417969 0)"/>
     <use xlink:href="#DejaVuSans-Bold-4c" transform="translate(246.728516 0)"/>
     <use xlink:href="#DejaVuSans-Bold-59" transform="translate(294.824219 0)"/>
    </g>
   </g>
   <g id="text_18">
    <g id="patch_13">
     <path d="M 54.075 73.935 
L 1166.995 73.935 
L 1166.995 -21.035 
L 54.075 -21.035 
z
" style="fill: #ff0000; stroke: #ffffff; stroke-width: 8; stroke-linejoin: miter"/>
    </g>
    <!-- THE DEATH SPIRAL: COSTS EXPLODING, CURES STAGNANT -->
    <g style="fill: #ffffff" transform="translate(86.075 35.28) scale(0.32 -0.32)">
     <defs>
      <path id="DejaVuSans-Bold-48" d="M 588 4666 
L 1791 4666 
L 1791 2888 
L 3566 2888 
L 3566 4666 
L 4769 4666 
L 4769 0 
L 3566 0 
L 3566 1978 
L 1791 1978 
L 1791 0 
L 588 0 
L 588 4666 
z
" transform="scale(0.015625)"/>
      <path id="DejaVuSans-Bold-44" d="M 1791 3756 
L 1791 909 
L 2222 909 
Q 2959 909 3348 1275 
Q 3738 1641 3738 2338 
Q 3738 3031 3350 3393 
Q 2963 3756 2222 3756 
L 1791 3756 
z
M 588 4666 
L 1856 4666 
Q 2919 4666 3439 4514 
Q 3959 4363 4331 4000 
Q 4659 3684 4818 3271 
Q 4978 2859 4978 2338 
Q 4978 1809 4818 1395 
Q 4659 981 4331 666 
Q 3956 303 3431 151 
Q 2906 0 1856 0 
L 588 0 
L 588 4666 
z
" transform="scale(0.015625)"/>
      <path id="DejaVuSans-Bold-47" d="M 4781 347 
Q 4331 128 3847 18 
Q 3363 -91 2847 -91 
Q 1681 -91 1000 561 
Q 319 1213 319 2328 
Q 319 3456 1012 4103 
Q 1706 4750 2913 4750 
Q 3378 4750 3804 4662 
Q 4231 4575 4609 4403 
L 4609 3438 
Q 4219 3659 3833 3768 
Q 3447 3878 3059 3878 
Q 2341 3878 1952 3476 
Q 1563 3075 1563 2328 
Q 1563 1588 1938 1184 
Q 2313 781 3003 781 
Q 3191 781 3352 804 
Q 3513 828 3641 878 
L 3641 1784 
L 2906 1784 
L 2906 2591 
L 4781 2591 
L 4781 347 
z
" transform="scale(0.015625)"/>
      <path id="DejaVuSans-Bold-2c" d="M 653 1209 
L 1778 1209 
L 1778 256 
L 1006 -909 
L 341 -909 
L 653 256 
L 653 1209 
z
" transform="scale(0.015625)"/>
      <path id="DejaVuSans-Bold-55" d="M 588 4666 
L 1791 4666 
L 1791 1869 
Q 1791 1291 1980 1042 
Q 2169 794 2597 794 
Q 3028 794 3217 1042 
Q 3406 1291 3406 1869 
L 3406 4666 
L 4609 4666 
L 4609 1869 
Q 4609 878 4112 393 
Q 3616 -91 2597 -91 
Q 1581 -91 1084 393 
Q 588 878 588 1869 
L 588 4666 
z
" transform="scale(0.015625)"/>
     </defs>
     <use xlink:href="#DejaVuSans-Bold-54"/>
     <use xlink:href="#DejaVuSans-Bold-48" transform="translate(68.212891 0)"/>
     <use xlink:href="#DejaVuSans-Bold-45" transform="translate(151.904297 0)"/>
     <use xlink:href="#DejaVuSans-Bold-20" transform="translate(220.214844 0)"/>
     <use xlink:href="#DejaVuSans-Bold-44" transform="translate(255.029297 0)"/>
     <use xlink:href="#DejaVuSans-Bold-45" transform="translate(338.037109 0)"/>
     <use xlink:href="#DejaVuSans-Bold-41" transform="translate(406.347656 0)"/>
     <use xlink:href="#DejaVuSans-Bold-54" transform="translate(475.990234 0)"/>
     <use xlink:href="#DejaVuSans-Bold-48" transform="translate(544.203125 0)"/>
     <use xlink:href="#DejaVuSans-Bold-20" transform="translate(627.894531 0)"/>
     <use xlink:href="#DejaVuSans-Bold-53" transform="translate(662.708984 0)"/>
     <use xlink:href="#DejaVuSans-Bold-50" transform="translate(734.730469 0)"/>
     <use xlink:href="#DejaVuSans-Bold-49" transform="translate(808.021484 0)"/>
     <use xlink:href="#DejaVuSans-Bold-52" transform="translate(845.228516 0)"/>
     <use xlink:href="#DejaVuSans-Bold-41" transform="translate(922.230469 0)"/>
     <use xlink:href="#DejaVuSans-Bold-4c" transform="translate(999.623047 0)"/>
     <use xlink:href="#DejaVuSans-Bold-3a" transform="translate(1063.34375 0)"/>
     <use xlink:href="#DejaVuSans-Bold-20" transform="translate(1103.333984 0)"/>
     <use xlink:href="#DejaVuSans-Bold-43" transform="translate(1138.148438 0)"/>
     <use xlink:href="#DejaVuSans-Bold-4f" transform="translate(1211.537109 0)"/>
     <use xlink:href="#DejaVuSans-Bold-53" transform="translate(1296.546875 0)"/>
     <use xlink:href="#DejaVuSans-Bold-54" transform="translate(1368.568359 0)"/>
     <use xlink:href="#DejaVuSans-Bold-53" transform="translate(1436.78125 0)"/>
     <use xlink:href="#DejaVuSans-Bold-20" transform="translate(1508.802734 0)"/>
     <use xlink:href="#DejaVuSans-Bold-45" transform="translate(1543.617188 0)"/>
     <use xlink:href="#DejaVuSans-Bold-58" transform="translate(1611.927734 0)"/>
     <use xlink:href="#DejaVuSans-Bold-50" transform="translate(1689.027344 0)"/>
     <use xlink:href="#DejaVuSans-Bold-4c" transform="translate(1762.318359 0)"/>
     <use xlink:href="#DejaVuSans-Bold-4f" transform="translate(1822.414062 0)"/>
     <use xlink:href="#DejaVuSans-Bold-44" transform="translate(1907.423828 0)"/>
     <use xlink:href="#DejaVuSans-Bold-49" transform="translate(1990.431641 0)"/>
     <use xlink:href="#DejaVuSans-Bold-4e" transform="translate(2027.638672 0)"/>
     <use xlink:href="#DejaVuSans-Bold-47" transform="translate(2111.330078 0)"/>
     <use xlink:href="#DejaVuSans-Bold-2c" transform="translate(2193.410156 0)"/>
     <use xlink:href="#DejaVuSans-Bold-20" transform="translate(2231.398438 0)"/>
     <use xlink:href="#DejaVuSans-Bold-43" transform="translate(2266.212891 0)"/>
     <use xlink:href="#DejaVuSans-Bold-55" transform="translate(2339.601562 0)"/>
     <use xlink:href="#DejaVuSans-Bold-52" transform="translate(2420.802734 0)"/>
     <use xlink:href="#DejaVuSans-Bold-45" transform="translate(2497.804688 0)"/>
     <use xlink:href="#DejaVuSans-Bold-53" transform="translate(2566.115234 0)"/>
     <use xlink:href="#DejaVuSans-Bold-20" transform="translate(2638.136719 0)"/>
     <use xlink:href="#DejaVuSans-Bold-53" transform="translate(2672.951172 0)"/>
     <use xlink:href="#DejaVuSans-Bold-54" transform="translate(2744.972656 0)"/>
     <use xlink:href="#DejaVuSans-Bold-41" transform="translate(2805.435547 0)"/>
     <use xlink:href="#DejaVuSans-Bold-47" transform="translate(2882.828125 0)"/>
     <use xlink:href="#DejaVuSans-Bold-4e" transform="translate(2964.908203 0)"/>
     <use xlink:href="#DejaVuSans-Bold-41" transform="translate(3048.599609 0)"/>
     <use xlink:href="#DejaVuSans-Bold-4e" transform="translate(3125.992188 0)"/>
     <use xlink:href="#DejaVuSans-Bold-54" transform="translate(3209.683594 0)"/>
    </g>
   </g>
   <g id="legend_1">
    <g id="patch_14">
     <path d="M 91.07 125.05 
L 506.575 125.05 
Q 509.775 125.05 509.775 121.85 
L 509.775 76.48 
Q 509.775 73.28 506.575 73.28 
L 91.07 73.28 
Q 87.87 73.28 87.87 76.48 
L 87.87 121.85 
Q 87.87 125.05 91.07 125.05 
z
" style="opacity: 0.8; stroke: #ffffff; stroke-width: 4; stroke-linejoin: miter"/>
    </g>
    <g id="line2d_27">
     <path d="M 94.27 86.2375 
L 110.27 86.2375 
L 126.27 86.2375 
" style="fill: none; stroke: #ff0000; stroke-width: 5; stroke-linecap: square"/>
     <g>
      <use xlink:href="#me5a03115d5" x="110.27" y="86.2375" style="fill: #ff0000; stroke: #ff0000"/>
     </g>
    </g>
    <g id="text_19">
     <!-- DEATH COSTS (War + Disease) -->
     <g style="fill: #ffffff" transform="translate(139.07 91.8375) scale(0.16 -0.16)">
      <defs>
       <path id="DejaVuSans-Bold-28" d="M 2413 -844 
L 1484 -844 
Q 1006 -72 778 623 
Q 550 1319 550 2003 
Q 550 2688 779 3389 
Q 1009 4091 1484 4856 
L 2413 4856 
Q 2013 4116 1813 3408 
Q 1613 2700 1613 2009 
Q 1613 1319 1811 609 
Q 2009 -100 2413 -844 
z
" transform="scale(0.015625)"/>
       <path id="DejaVuSans-Bold-57" d="M 191 4666 
L 1344 4666 
L 2150 1275 
L 2950 4666 
L 4109 4666 
L 4909 1275 
L 5716 4666 
L 6859 4666 
L 5759 0 
L 4372 0 
L 3525 3547 
L 2688 0 
L 1300 0 
L 191 4666 
z
" transform="scale(0.015625)"/>
       <path id="DejaVuSans-Bold-61" d="M 2106 1575 
Q 1756 1575 1579 1456 
Q 1403 1338 1403 1106 
Q 1403 894 1545 773 
Q 1688 653 1941 653 
Q 2256 653 2472 879 
Q 2688 1106 2688 1447 
L 2688 1575 
L 2106 1575 
z
M 3816 1997 
L 3816 0 
L 2688 0 
L 2688 519 
Q 2463 200 2181 54 
Q 1900 -91 1497 -91 
Q 953 -91 614 226 
Q 275 544 275 1050 
Q 275 1666 698 1953 
Q 1122 2241 2028 2241 
L 2688 2241 
L 2688 2328 
Q 2688 2594 2478 2717 
Q 2269 2841 1825 2841 
Q 1466 2841 1156 2769 
Q 847 2697 581 2553 
L 581 3406 
Q 941 3494 1303 3539 
Q 1666 3584 2028 3584 
Q 2975 3584 3395 3211 
Q 3816 2838 3816 1997 
z
" transform="scale(0.015625)"/>
       <path id="DejaVuSans-Bold-72" d="M 3138 2547 
Q 2991 2616 2845 2648 
Q 2700 2681 2553 2681 
Q 2122 2681 1889 2404 
Q 1656 2128 1656 1613 
L 1656 0 
L 538 0 
L 538 3500 
L 1656 3500 
L 1656 2925 
Q 1872 3269 2151 3426 
Q 2431 3584 2822 3584 
Q 2878 3584 2943 3579 
Q 3009 3575 3134 3559 
L 3138 2547 
z
" transform="scale(0.015625)"/>
       <path id="DejaVuSans-Bold-2b" d="M 3053 4013 
L 3053 2375 
L 4684 2375 
L 4684 1638 
L 3053 1638 
L 3053 0 
L 2309 0 
L 2309 1638 
L 678 1638 
L 678 2375 
L 2309 2375 
L 2309 4013 
L 3053 4013 
z
" transform="scale(0.015625)"/>
       <path id="DejaVuSans-Bold-69" d="M 538 3500 
L 1656 3500 
L 1656 0 
L 538 0 
L 538 3500 
z
M 538 4863 
L 1656 4863 
L 1656 3950 
L 538 3950 
L 538 4863 
z
" transform="scale(0.015625)"/>
       <path id="DejaVuSans-Bold-73" d="M 3272 3391 
L 3272 2541 
Q 2913 2691 2578 2766 
Q 2244 2841 1947 2841 
Q 1628 2841 1473 2761 
Q 1319 2681 1319 2516 
Q 1319 2381 1436 2309 
Q 1553 2238 1856 2203 
L 2053 2175 
Q 2913 2066 3209 1816 
Q 3506 1566 3506 1031 
Q 3506 472 3093 190 
Q 2681 -91 1863 -91 
Q 1516 -91 1145 -36 
Q 775 19 384 128 
L 384 978 
Q 719 816 1070 734 
Q 1422 653 1784 653 
Q 2113 653 2278 743 
Q 2444 834 2444 1013 
Q 2444 1163 2330 1236 
Q 2216 1309 1875 1350 
L 1678 1375 
Q 931 1469 631 1722 
Q 331 1975 331 2491 
Q 331 3047 712 3315 
Q 1094 3584 1881 3584 
Q 2191 3584 2531 3537 
Q 2872 3491 3272 3391 
z
" transform="scale(0.015625)"/>
       <path id="DejaVuSans-Bold-65" d="M 4031 1759 
L 4031 1441 
L 1416 1441 
Q 1456 1047 1700 850 
Q 1944 653 2381 653 
Q 2734 653 3104 758 
Q 3475 863 3866 1075 
L 3866 213 
Q 3469 63 3072 -14 
Q 2675 -91 2278 -91 
Q 1328 -91 801 392 
Q 275 875 275 1747 
Q 275 2603 792 3093 
Q 1309 3584 2216 3584 
Q 3041 3584 3536 3087 
Q 4031 2591 4031 1759 
z
M 2881 2131 
Q 2881 2450 2695 2645 
Q 2509 2841 2209 2841 
Q 1884 2841 1681 2658 
Q 1478 2475 1428 2131 
L 2881 2131 
z
" transform="scale(0.015625)"/>
       <path id="DejaVuSans-Bold-29" d="M 513 -844 
Q 913 -100 1113 609 
Q 1313 1319 1313 2009 
Q 1313 2700 1113 3408 
Q 913 4116 513 4856 
L 1441 4856 
Q 1916 4091 2145 3389 
Q 2375 2688 2375 2003 
Q 2375 1319 2147 623 
Q 1919 -72 1441 -844 
L 513 -844 
z
" transform="scale(0.015625)"/>
      </defs>
      <use xlink:href="#DejaVuSans-Bold-44"/>
      <use xlink:href="#DejaVuSans-Bold-45" transform="translate(83.007812 0)"/>
      <use xlink:href="#DejaVuSans-Bold-41" transform="translate(151.318359 0)"/>
      <use xlink:href="#DejaVuSans-Bold-54" transform="translate(220.960938 0)"/>
      <use xlink:href="#DejaVuSans-Bold-48" transform="translate(289.173828 0)"/>
      <use xlink:href="#DejaVuSans-Bold-20" transform="translate(372.865234 0)"/>
      <use xlink:href="#DejaVuSans-Bold-43" transform="translate(407.679688 0)"/>
      <use xlink:href="#DejaVuSans-Bold-4f" transform="translate(481.068359 0)"/>
      <use xlink:href="#DejaVuSans-Bold-53" transform="translate(566.078125 0)"/>
      <use xlink:href="#DejaVuSans-Bold-54" transform="translate(638.099609 0)"/>
      <use xlink:href="#DejaVuSans-Bold-53" transform="translate(706.3125 0)"/>
      <use xlink:href="#DejaVuSans-Bold-20" transform="translate(778.333984 0)"/>
      <use xlink:href="#DejaVuSans-Bold-28" transform="translate(813.148438 0)"/>
      <use xlink:href="#DejaVuSans-Bold-57" transform="translate(858.851562 0)"/>
      <use xlink:href="#DejaVuSans-Bold-61" transform="translate(965.529297 0)"/>
      <use xlink:href="#DejaVuSans-Bold-72" transform="translate(1033.009766 0)"/>
      <use xlink:href="#DejaVuSans-Bold-20" transform="translate(1082.326172 0)"/>
      <use xlink:href="#DejaVuSans-Bold-2b" transform="translate(1117.140625 0)"/>
      <use xlink:href="#DejaVuSans-Bold-20" transform="translate(1200.929688 0)"/>
      <use xlink:href="#DejaVuSans-Bold-44" transform="translate(1235.744141 0)"/>
      <use xlink:href="#DejaVuSans-Bold-69" transform="translate(1318.751953 0)"/>
      <use xlink:href="#DejaVuSans-Bold-73" transform="translate(1353.029297 0)"/>
      <use xlink:href="#DejaVuSans-Bold-65" transform="translate(1412.550781 0)"/>
      <use xlink:href="#DejaVuSans-Bold-61" transform="translate(1480.373047 0)"/>
      <use xlink:href="#DejaVuSans-Bold-73" transform="translate(1547.853516 0)"/>
      <use xlink:href="#DejaVuSans-Bold-65" transform="translate(1607.375 0)"/>
      <use xlink:href="#DejaVuSans-Bold-29" transform="translate(1675.197266 0)"/>
     </g>
    </g>
    <g id="line2d_28">
     <path d="M 94.27 109.7225 
L 110.27 109.7225 
L 126.27 109.7225 
" style="fill: none; stroke: #00ff00; stroke-width: 5; stroke-linecap: square"/>
     <g>
      <use xlink:href="#m1670d4c1ea" x="110.27" y="109.7225" style="fill: #00ff00; stroke: #00ff00; stroke-linejoin: miter"/>
     </g>
    </g>
    <g id="text_20">
     <!-- CURE INVESTMENT (1000 to be visible) -->
     <g style="fill: #ffffff" transform="translate(139.07 115.3225) scale(0.16 -0.16)">
      <defs>
       <path id="DejaVuSans-Bold-56" d="M 31 4666 
L 1241 4666 
L 2478 1222 
L 3713 4666 
L 4922 4666 
L 3194 0 
L 1759 0 
L 31 4666 
z
" transform="scale(0.015625)"/>
       <path id="DejaVuSans-Bold-d7" d="M 4563 3359 
L 3206 2003 
L 4563 653 
L 4038 128 
L 2681 1478 
L 1325 128 
L 800 653 
L 2156 2003 
L 800 3359 
L 1325 3884 
L 2681 2528 
L 4038 3884 
L 4563 3359 
z
" transform="scale(0.015625)"/>
       <path id="DejaVuSans-Bold-74" d="M 1759 4494 
L 1759 3500 
L 2913 3500 
L 2913 2700 
L 1759 2700 
L 1759 1216 
Q 1759 972 1856 886 
Q 1953 800 2241 800 
L 2816 800 
L 2816 0 
L 1856 0 
Q 1194 0 917 276 
Q 641 553 641 1216 
L 641 2700 
L 84 2700 
L 84 3500 
L 641 3500 
L 641 4494 
L 1759 4494 
z
" transform="scale(0.015625)"/>
       <path id="DejaVuSans-Bold-6f" d="M 2203 2784 
Q 1831 2784 1636 2517 
Q 1441 2250 1441 1747 
Q 1441 1244 1636 976 
Q 1831 709 2203 709 
Q 2569 709 2762 976 
Q 2956 1244 2956 1747 
Q 2956 2250 2762 2517 
Q 2569 2784 2203 2784 
z
M 2203 3584 
Q 3106 3584 3614 3096 
Q 4122 2609 4122 1747 
Q 4122 884 3614 396 
Q 3106 -91 2203 -91 
Q 1297 -91 786 396 
Q 275 884 275 1747 
Q 275 2609 786 3096 
Q 1297 3584 2203 3584 
z
" transform="scale(0.015625)"/>
       <path id="DejaVuSans-Bold-62" d="M 2400 722 
Q 2759 722 2948 984 
Q 3138 1247 3138 1747 
Q 3138 2247 2948 2509 
Q 2759 2772 2400 2772 
Q 2041 2772 1848 2508 
Q 1656 2244 1656 1747 
Q 1656 1250 1848 986 
Q 2041 722 2400 722 
z
M 1656 2988 
Q 1888 3294 2169 3439 
Q 2450 3584 2816 3584 
Q 3463 3584 3878 3070 
Q 4294 2556 4294 1747 
Q 4294 938 3878 423 
Q 3463 -91 2816 -91 
Q 2450 -91 2169 54 
Q 1888 200 1656 506 
L 1656 0 
L 538 0 
L 538 4863 
L 1656 4863 
L 1656 2988 
z
" transform="scale(0.015625)"/>
       <path id="DejaVuSans-Bold-76" d="M 97 3500 
L 1216 3500 
L 2088 1081 
L 2956 3500 
L 4078 3500 
L 2700 0 
L 1472 0 
L 97 3500 
z
" transform="scale(0.015625)"/>
       <path id="DejaVuSans-Bold-6c" d="M 538 4863 
L 1656 4863 
L 1656 0 
L 538 0 
L 538 4863 
z
" transform="scale(0.015625)"/>
      </defs>
      <use xlink:href="#DejaVuSans-Bold-43"/>
      <use xlink:href="#DejaVuSans-Bold-55" transform="translate(73.388672 0)"/>
      <use xlink:href="#DejaVuSans-Bold-52" transform="translate(154.589844 0)"/>
      <use xlink:href="#DejaVuSans-Bold-45" transform="translate(231.591797 0)"/>
      <use xlink:href="#DejaVuSans-Bold-20" transform="translate(299.902344 0)"/>
      <use xlink:href="#DejaVuSans-Bold-49" transform="translate(334.716797 0)"/>
      <use xlink:href="#DejaVuSans-Bold-4e" transform="translate(371.923828 0)"/>
      <use xlink:href="#DejaVuSans-Bold-56" transform="translate(455.615234 0)"/>
      <use xlink:href="#DejaVuSans-Bold-45" transform="translate(533.007812 0)"/>
      <use xlink:href="#DejaVuSans-Bold-53" transform="translate(601.318359 0)"/>
      <use xlink:href="#DejaVuSans-Bold-54" transform="translate(673.339844 0)"/>
      <use xlink:href="#DejaVuSans-Bold-4d" transform="translate(741.552734 0)"/>
      <use xlink:href="#DejaVuSans-Bold-45" transform="translate(841.064453 0)"/>
      <use xlink:href="#DejaVuSans-Bold-4e" transform="translate(909.375 0)"/>
      <use xlink:href="#DejaVuSans-Bold-54" transform="translate(993.066406 0)"/>
      <use xlink:href="#DejaVuSans-Bold-20" transform="translate(1061.279297 0)"/>
      <use xlink:href="#DejaVuSans-Bold-28" transform="translate(1096.09375 0)"/>
      <use xlink:href="#DejaVuSans-Bold-d7" transform="translate(1141.796875 0)"/>
      <use xlink:href="#DejaVuSans-Bold-31" transform="translate(1225.585938 0)"/>
      <use xlink:href="#DejaVuSans-Bold-30" transform="translate(1295.166016 0)"/>
      <use xlink:href="#DejaVuSans-Bold-30" transform="translate(1364.746094 0)"/>
      <use xlink:href="#DejaVuSans-Bold-30" transform="translate(1434.326172 0)"/>
      <use xlink:href="#DejaVuSans-Bold-20" transform="translate(1503.90625 0)"/>
      <use xlink:href="#DejaVuSans-Bold-74" transform="translate(1538.720703 0)"/>
      <use xlink:href="#DejaVuSans-Bold-6f" transform="translate(1586.523438 0)"/>
      <use xlink:href="#DejaVuSans-Bold-20" transform="translate(1655.224609 0)"/>
      <use xlink:href="#DejaVuSans-Bold-62" transform="translate(1690.039062 0)"/>
      <use xlink:href="#DejaVuSans-Bold-65" transform="translate(1761.621094 0)"/>
      <use xlink:href="#DejaVuSans-Bold-20" transform="translate(1829.443359 0)"/>
      <use xlink:href="#DejaVuSans-Bold-76" transform="translate(1864.257812 0)"/>
      <use xlink:href="#DejaVuSans-Bold-69" transform="translate(1929.443359 0)"/>
      <use xlink:href="#DejaVuSans-Bold-73" transform="translate(1963.720703 0)"/>
      <use xlink:href="#DejaVuSans-Bold-69" transform="translate(2023.242188 0)"/>
      <use xlink:href="#DejaVuSans-Bold-62" transform="translate(2057.519531 0)"/>
      <use xlink:href="#DejaVuSans-Bold-6c" transform="translate(2129.101562 0)"/>
      <use xlink:href="#DejaVuSans-Bold-65" transform="translate(2163.378906 0)"/>
      <use xlink:href="#DejaVuSans-Bold-29" transform="translate(2231.201172 0)"/>
     </g>
    </g>
   </g>
  </g>
 </g>
 <defs>
  <clipPath id="pe621971214">
   <rect x="79.87" y="65.28" width="1061.33" height="591.14"/>
  </clipPath>
 </defs>
</svg>
