<?xml version="1.0" encoding="utf-8" standalone="no"?>
<!DOCTYPE svg PUBLIC "-//W3C//DTD SVG 1.1//EN"
  "http://www.w3.org/Graphics/SVG/1.1/DTD/svg11.dtd">
<svg xmlns:xlink="http://www.w3.org/1999/xlink" width="1152pt" height="864pt" viewBox="0 0 1152 864" xmlns="http://www.w3.org/2000/svg" version="1.1">
 <metadata>
  <rdf:RDF xmlns:dc="http://purl.org/dc/elements/1.1/" xmlns:cc="http://creativecommons.org/ns#" xmlns:rdf="http://www.w3.org/1999/02/22-rdf-syntax-ns#">
   <cc:Work>
    <dc:type rdf:resource="http://purl.org/dc/dcmitype/StillImage"/>
    <dc:date>2025-10-04T13:24:04.191760</dc:date>
    <dc:format>image/svg+xml</dc:format>
    <dc:creator>
     <cc:Agent>
      <dc:title>Matplotlib v3.10.6, https://matplotlib.org/</dc:title>
     </cc:Agent>
    </dc:creator>
   </cc:Work>
  </rdf:RDF>
 </metadata>
 <defs>
  <style type="text/css">*{stroke-linejoin: round; stroke-linecap: butt}</style>
 </defs>
 <g id="figure_1">
  <g id="patch_1">
   <path d="M 0 864 
L 1152 864 
L 1152 0 
L 0 0 
z
"/>
  </g>
  <g id="axes_1">
   <g id="patch_2">
    <path d="M 91.098119 802.404 
L 1141.2 802.404 
L 1141.2 73.2 
L 91.098119 73.2 
z
"/>
   </g>
   <g id="patch_3">
    <path d="M 138.830022 170005.035168 
L 359.131116 170005.035168 
L 359.131116 296.021599 
L 138.830022 296.021599 
z
" clip-path="url(#p44f9c1010f)" style="fill: #ff0000; stroke: #ffffff; stroke-width: 6; stroke-linejoin: miter"/>
   </g>
   <g id="patch_4">
    <path d="M 505.998512 170005.035168 
L 726.299606 170005.035168 
L 726.299606 117.891789 
L 505.998512 117.891789 
z
" clip-path="url(#p44f9c1010f)" style="fill: #9400d3; stroke: #ffffff; stroke-width: 6; stroke-linejoin: miter"/>
   </g>
   <g id="patch_5">
    <path d="M 873.167002 170005.035168 
L 1093.468096 170005.035168 
L 1093.468096 661.259012 
L 873.167002 661.259012 
z
" clip-path="url(#p44f9c1010f)" style="fill: #00ff00; stroke: #ffffff; stroke-width: 6; stroke-linejoin: miter"/>
   </g>
   <g id="matplotlib.axis_1">
    <g id="xtick_1">
     <g id="line2d_1">
      <defs>
       <path id="m46b36504f0" d="M 0 0 
L 0 10 
" style="stroke: #ffffff; stroke-width: 4"/>
      </defs>
      <g>
       <use xlink:href="#m46b36504f0" x="248.980569" y="802.404" style="fill: #ffffff; stroke: #ffffff; stroke-width: 4"/>
      </g>
     </g>
     <g id="text_1">
      <!-- WAR -->
      <g style="fill: #ffffff" transform="translate(228.166663 829.581188) scale(0.18 -0.18)">
       <defs>
        <path id="DejaVuSans-57" d="M 213 4666 
L 850 4666 
L 1831 722 
L 2809 4666 
L 3519 4666 
L 4500 722 
L 5478 4666 
L 6119 4666 
L 4947 0 
L 4153 0 
L 3169 4050 
L 2175 0 
L 1381 0 
L 213 4666 
z
" transform="scale(0.015625)"/>
        <path id="DejaVuSans-41" d="M 2188 4044 
L 1331 1722 
L 3047 1722 
L 2188 4044 
z
M 1831 4666 
L 2547 4666 
L 4325 0 
L 3669 0 
L 3244 1197 
L 1141 1197 
L 716 0 
L 50 0 
L 1831 4666 
z
" transform="scale(0.015625)"/>
        <path id="DejaVuSans-52" d="M 2841 2188 
Q 3044 2119 3236 1894 
Q 3428 1669 3622 1275 
L 4263 0 
L 3584 0 
L 2988 1197 
Q 2756 1666 2539 1819 
Q 2322 1972 1947 1972 
L 1259 1972 
L 1259 0 
L 628 0 
L 628 4666 
L 2053 4666 
Q 2853 4666 3247 4331 
Q 3641 3997 3641 3322 
Q 3641 2881 3436 2590 
Q 3231 2300 2841 2188 
z
M 1259 4147 
L 1259 2491 
L 2053 2491 
Q 2509 2491 2742 2702 
Q 2975 2913 2975 3322 
Q 2975 3731 2742 3939 
Q 2509 4147 2053 4147 
L 1259 4147 
z
" transform="scale(0.015625)"/>
       </defs>
       <use xlink:href="#DejaVuSans-57"/>
       <use xlink:href="#DejaVuSans-41" transform="translate(93.376953 0)"/>
       <use xlink:href="#DejaVuSans-52" transform="translate(161.785156 0)"/>
      </g>
      <!-- (REAL COST) -->
      <g style="fill: #ffffff" transform="translate(191.405882 849.73725) scale(0.18 -0.18)">
       <defs>
        <path id="DejaVuSans-28" d="M 1984 4856 
Q 1566 4138 1362 3434 
Q 1159 2731 1159 2009 
Q 1159 1288 1364 580 
Q 1569 -128 1984 -844 
L 1484 -844 
Q 1016 -109 783 600 
Q 550 1309 550 2009 
Q 550 2706 781 3412 
Q 1013 4119 1484 4856 
L 1984 4856 
z
" transform="scale(0.015625)"/>
        <path id="DejaVuSans-45" d="M 628 4666 
L 3578 4666 
L 3578 4134 
L 1259 4134 
L 1259 2753 
L 3481 2753 
L 3481 2222 
L 1259 2222 
L 1259 531 
L 3634 531 
L 3634 0 
L 628 0 
L 628 4666 
z
" transform="scale(0.015625)"/>
        <path id="DejaVuSans-4c" d="M 628 4666 
L 1259 4666 
L 1259 531 
L 3531 531 
L 3531 0 
L 628 0 
L 628 4666 
z
" transform="scale(0.015625)"/>
        <path id="DejaVuSans-20" transform="scale(0.015625)"/>
        <path id="DejaVuSans-43" d="M 4122 4306 
L 4122 3641 
Q 3803 3938 3442 4084 
Q 3081 4231 2675 4231 
Q 1875 4231 1450 3742 
Q 1025 3253 1025 2328 
Q 1025 1406 1450 917 
Q 1875 428 2675 428 
Q 3081 428 3442 575 
Q 3803 722 4122 1019 
L 4122 359 
Q 3791 134 3420 21 
Q 3050 -91 2638 -91 
Q 1578 -91 968 557 
Q 359 1206 359 2328 
Q 359 3453 968 4101 
Q 1578 4750 2638 4750 
Q 3056 4750 3426 4639 
Q 3797 4528 4122 4306 
z
" transform="scale(0.015625)"/>
        <path id="DejaVuSans-4f" d="M 2522 4238 
Q 1834 4238 1429 3725 
Q 1025 3213 1025 2328 
Q 1025 1447 1429 934 
Q 1834 422 2522 422 
Q 3209 422 3611 934 
Q 4013 1447 4013 2328 
Q 4013 3213 3611 3725 
Q 3209 4238 2522 4238 
z
M 2522 4750 
Q 3503 4750 4090 4092 
Q 4678 3434 4678 2328 
Q 4678 1225 4090 567 
Q 3503 -91 2522 -91 
Q 1538 -91 948 565 
Q 359 1222 359 2328 
Q 359 3434 948 4092 
Q 1538 4750 2522 4750 
z
" transform="scale(0.015625)"/>
        <path id="DejaVuSans-53" d="M 3425 4513 
L 3425 3897 
Q 3066 4069 2747 4153 
Q 2428 4238 2131 4238 
Q 1616 4238 1336 4038 
Q 1056 3838 1056 3469 
Q 1056 3159 1242 3001 
Q 1428 2844 1947 2747 
L 2328 2669 
Q 3034 2534 3370 2195 
Q 3706 1856 3706 1288 
Q 3706 609 3251 259 
Q 2797 -91 1919 -91 
Q 1588 -91 1214 -16 
Q 841 59 441 206 
L 441 856 
Q 825 641 1194 531 
Q 1563 422 1919 422 
Q 2459 422 2753 634 
Q 3047 847 3047 1241 
Q 3047 1584 2836 1778 
Q 2625 1972 2144 2069 
L 1759 2144 
Q 1053 2284 737 2584 
Q 422 2884 422 3419 
Q 422 4038 858 4394 
Q 1294 4750 2059 4750 
Q 2388 4750 2728 4690 
Q 3069 4631 3425 4513 
z
" transform="scale(0.015625)"/>
        <path id="DejaVuSans-54" d="M -19 4666 
L 3928 4666 
L 3928 4134 
L 2272 4134 
L 2272 0 
L 1638 0 
L 1638 4134 
L -19 4134 
L -19 4666 
z
" transform="scale(0.015625)"/>
        <path id="DejaVuSans-29" d="M 513 4856 
L 1013 4856 
Q 1481 4119 1714 3412 
Q 1947 2706 1947 2009 
Q 1947 1309 1714 600 
Q 1481 -109 1013 -844 
L 513 -844 
Q 928 -128 1133 580 
Q 1338 1288 1338 2009 
Q 1338 2731 1133 3434 
Q 928 4138 513 4856 
z
" transform="scale(0.015625)"/>
       </defs>
       <use xlink:href="#DejaVuSans-28"/>
       <use xlink:href="#DejaVuSans-52" transform="translate(39.013672 0)"/>
       <use xlink:href="#DejaVuSans-45" transform="translate(108.496094 0)"/>
       <use xlink:href="#DejaVuSans-41" transform="translate(171.679688 0)"/>
       <use xlink:href="#DejaVuSans-4c" transform="translate(240.087891 0)"/>
       <use xlink:href="#DejaVuSans-20" transform="translate(295.800781 0)"/>
       <use xlink:href="#DejaVuSans-43" transform="translate(327.587891 0)"/>
       <use xlink:href="#DejaVuSans-4f" transform="translate(397.412109 0)"/>
       <use xlink:href="#DejaVuSans-53" transform="translate(476.123047 0)"/>
       <use xlink:href="#DejaVuSans-54" transform="translate(539.599609 0)"/>
       <use xlink:href="#DejaVuSans-29" transform="translate(600.683594 0)"/>
      </g>
     </g>
    </g>
    <g id="xtick_2">
     <g id="line2d_2">
      <g>
       <use xlink:href="#m46b36504f0" x="616.149059" y="802.404" style="fill: #ffffff; stroke: #ffffff; stroke-width: 4"/>
      </g>
     </g>
     <g id="text_2">
      <!-- DISEASE -->
      <g style="fill: #ffffff" transform="translate(577.606559 829.581188) scale(0.18 -0.18)">
       <defs>
        <path id="DejaVuSans-44" d="M 1259 4147 
L 1259 519 
L 2022 519 
Q 2988 519 3436 956 
Q 3884 1394 3884 2338 
Q 3884 3275 3436 3711 
Q 2988 4147 2022 4147 
L 1259 4147 
z
M 628 4666 
L 1925 4666 
Q 3281 4666 3915 4102 
Q 4550 3538 4550 2338 
Q 4550 1131 3912 565 
Q 3275 0 1925 0 
L 628 0 
L 628 4666 
z
" transform="scale(0.015625)"/>
        <path id="DejaVuSans-49" d="M 628 4666 
L 1259 4666 
L 1259 0 
L 628 0 
L 628 4666 
z
" transform="scale(0.015625)"/>
       </defs>
       <use xlink:href="#DejaVuSans-44"/>
       <use xlink:href="#DejaVuSans-49" transform="translate(77.001953 0)"/>
       <use xlink:href="#DejaVuSans-53" transform="translate(106.494141 0)"/>
       <use xlink:href="#DejaVuSans-45" transform="translate(169.970703 0)"/>
       <use xlink:href="#DejaVuSans-41" transform="translate(233.154297 0)"/>
       <use xlink:href="#DejaVuSans-53" transform="translate(301.5625 0)"/>
       <use xlink:href="#DejaVuSans-45" transform="translate(365.039062 0)"/>
      </g>
      <!-- (TOTAL BURDEN) -->
      <g style="fill: #ffffff" transform="translate(539.348122 849.73725) scale(0.18 -0.18)">
       <defs>
        <path id="DejaVuSans-42" d="M 1259 2228 
L 1259 519 
L 2272 519 
Q 2781 519 3026 730 
Q 3272 941 3272 1375 
Q 3272 1813 3026 2020 
Q 2781 2228 2272 2228 
L 1259 2228 
z
M 1259 4147 
L 1259 2741 
L 2194 2741 
Q 2656 2741 2882 2914 
Q 3109 3088 3109 3444 
Q 3109 3797 2882 3972 
Q 2656 4147 2194 4147 
L 1259 4147 
z
M 628 4666 
L 2241 4666 
Q 2963 4666 3353 4366 
Q 3744 4066 3744 3513 
Q 3744 3084 3544 2831 
Q 3344 2578 2956 2516 
Q 3422 2416 3680 2098 
Q 3938 1781 3938 1306 
Q 3938 681 3513 340 
Q 3088 0 2303 0 
L 628 0 
L 628 4666 
z
" transform="scale(0.015625)"/>
        <path id="DejaVuSans-55" d="M 556 4666 
L 1191 4666 
L 1191 1831 
Q 1191 1081 1462 751 
Q 1734 422 2344 422 
Q 2950 422 3222 751 
Q 3494 1081 3494 1831 
L 3494 4666 
L 4128 4666 
L 4128 1753 
Q 4128 841 3676 375 
Q 3225 -91 2344 -91 
Q 1459 -91 1007 375 
Q 556 841 556 1753 
L 556 4666 
z
" transform="scale(0.015625)"/>
        <path id="DejaVuSans-4e" d="M 628 4666 
L 1478 4666 
L 3547 763 
L 3547 4666 
L 4159 4666 
L 4159 0 
L 3309 0 
L 1241 3903 
L 1241 0 
L 628 0 
L 628 4666 
z
" transform="scale(0.015625)"/>
       </defs>
       <use xlink:href="#DejaVuSans-28"/>
       <use xlink:href="#DejaVuSans-54" transform="translate(39.013672 0)"/>
       <use xlink:href="#DejaVuSans-4f" transform="translate(100.097656 0)"/>
       <use xlink:href="#DejaVuSans-54" transform="translate(178.808594 0)"/>
       <use xlink:href="#DejaVuSans-41" transform="translate(232.142578 0)"/>
       <use xlink:href="#DejaVuSans-4c" transform="translate(300.550781 0)"/>
       <use xlink:href="#DejaVuSans-20" transform="translate(356.263672 0)"/>
       <use xlink:href="#DejaVuSans-42" transform="translate(388.050781 0)"/>
       <use xlink:href="#DejaVuSans-55" transform="translate(456.654297 0)"/>
       <use xlink:href="#DejaVuSans-52" transform="translate(529.847656 0)"/>
       <use xlink:href="#DejaVuSans-44" transform="translate(599.330078 0)"/>
       <use xlink:href="#DejaVuSans-45" transform="translate(676.332031 0)"/>
       <use xlink:href="#DejaVuSans-4e" transform="translate(739.515625 0)"/>
       <use xlink:href="#DejaVuSans-29" transform="translate(814.320312 0)"/>
      </g>
     </g>
    </g>
    <g id="xtick_3">
     <g id="line2d_3">
      <g>
       <use xlink:href="#m46b36504f0" x="983.317549" y="802.404" style="fill: #ffffff; stroke: #ffffff; stroke-width: 4"/>
      </g>
     </g>
     <g id="text_3">
      <!-- CURE -->
      <g style="fill: #ffffff" transform="translate(958.505674 829.581188) scale(0.18 -0.18)">
       <use xlink:href="#DejaVuSans-43"/>
       <use xlink:href="#DejaVuSans-55" transform="translate(69.824219 0)"/>
       <use xlink:href="#DejaVuSans-52" transform="translate(143.017578 0)"/>
       <use xlink:href="#DejaVuSans-45" transform="translate(212.5 0)"/>
      </g>
      <!-- INVESTMENT -->
      <g style="fill: #ffffff" transform="translate(925.193018 849.73725) scale(0.18 -0.18)">
       <defs>
        <path id="DejaVuSans-56" d="M 1831 0 
L 50 4666 
L 709 4666 
L 2188 738 
L 3669 4666 
L 4325 4666 
L 2547 0 
L 1831 0 
z
" transform="scale(0.015625)"/>
        <path id="DejaVuSans-4d" d="M 628 4666 
L 1569 4666 
L 2759 1491 
L 3956 4666 
L 4897 4666 
L 4897 0 
L 4281 0 
L 4281 4097 
L 3078 897 
L 2444 897 
L 1241 4097 
L 1241 0 
L 628 0 
L 628 4666 
z
" transform="scale(0.015625)"/>
       </defs>
       <use xlink:href="#DejaVuSans-49"/>
       <use xlink:href="#DejaVuSans-4e" transform="translate(29.492188 0)"/>
       <use xlink:href="#DejaVuSans-56" transform="translate(104.296875 0)"/>
       <use xlink:href="#DejaVuSans-45" transform="translate(172.705078 0)"/>
       <use xlink:href="#DejaVuSans-53" transform="translate(235.888672 0)"/>
       <use xlink:href="#DejaVuSans-54" transform="translate(299.365234 0)"/>
       <use xlink:href="#DejaVuSans-4d" transform="translate(360.449219 0)"/>
       <use xlink:href="#DejaVuSans-45" transform="translate(446.728516 0)"/>
       <use xlink:href="#DejaVuSans-4e" transform="translate(509.912109 0)"/>
       <use xlink:href="#DejaVuSans-54" transform="translate(584.716797 0)"/>
      </g>
     </g>
    </g>
   </g>
   <g id="matplotlib.axis_2">
    <g id="ytick_1">
     <g id="line2d_4">
      <defs>
       <path id="m2becfb6820" d="M 0 0 
L -10 0 
" style="stroke: #ffffff; stroke-width: 4"/>
      </defs>
      <g>
       <use xlink:href="#m2becfb6820" x="91.098119" y="802.404" style="fill: #ffffff; stroke: #ffffff; stroke-width: 4"/>
      </g>
     </g>
     <g id="text_4">
      <!-- $\mathdefault{10^{-2}}$ -->
      <g style="fill: #ffffff" transform="translate(35.298119 809.242594) scale(0.18 -0.18)">
       <defs>
        <path id="DejaVuSans-31" d="M 794 531 
L 1825 531 
L 1825 4091 
L 703 3866 
L 703 4441 
L 1819 4666 
L 2450 4666 
L 2450 531 
L 3481 531 
L 3481 0 
L 794 0 
L 794 531 
z
" transform="scale(0.015625)"/>
        <path id="DejaVuSans-30" d="M 2034 4250 
Q 1547 4250 1301 3770 
Q 1056 3291 1056 2328 
Q 1056 1369 1301 889 
Q 1547 409 2034 409 
Q 2525 409 2770 889 
Q 3016 1369 3016 2328 
Q 3016 3291 2770 3770 
Q 2525 4250 2034 4250 
z
M 2034 4750 
Q 2819 4750 3233 4129 
Q 3647 3509 3647 2328 
Q 3647 1150 3233 529 
Q 2819 -91 2034 -91 
Q 1250 -91 836 529 
Q 422 1150 422 2328 
Q 422 3509 836 4129 
Q 1250 4750 2034 4750 
z
" transform="scale(0.015625)"/>
        <path id="DejaVuSans-2212" d="M 678 2272 
L 4684 2272 
L 4684 1741 
L 678 1741 
L 678 2272 
z
" transform="scale(0.015625)"/>
        <path id="DejaVuSans-32" d="M 1228 531 
L 3431 531 
L 3431 0 
L 469 0 
L 469 531 
Q 828 903 1448 1529 
Q 2069 2156 2228 2338 
Q 2531 2678 2651 2914 
Q 2772 3150 2772 3378 
Q 2772 3750 2511 3984 
Q 2250 4219 1831 4219 
Q 1534 4219 1204 4116 
Q 875 4013 500 3803 
L 500 4441 
Q 881 4594 1212 4672 
Q 1544 4750 1819 4750 
Q 2544 4750 2975 4387 
Q 3406 4025 3406 3419 
Q 3406 3131 3298 2873 
Q 3191 2616 2906 2266 
Q 2828 2175 2409 1742 
Q 1991 1309 1228 531 
z
" transform="scale(0.015625)"/>
       </defs>
       <use xlink:href="#DejaVuSans-31" transform="translate(0 0.765625)"/>
       <use xlink:href="#DejaVuSans-30" transform="translate(63.623047 0.765625)"/>
       <use xlink:href="#DejaVuSans-2212" transform="translate(128.203125 39.046875) scale(0.7)"/>
       <use xlink:href="#DejaVuSans-32" transform="translate(186.855469 39.046875) scale(0.7)"/>
      </g>
     </g>
    </g>
    <g id="ytick_2">
     <g id="line2d_5">
      <g>
       <use xlink:href="#m2becfb6820" x="91.098119" y="632.862285" style="fill: #ffffff; stroke: #ffffff; stroke-width: 4"/>
      </g>
     </g>
     <g id="text_5">
      <!-- $\mathdefault{10^{-1}}$ -->
      <g style="fill: #ffffff" transform="translate(35.298119 639.700879) scale(0.18 -0.18)">
       <use xlink:href="#DejaVuSans-31" transform="translate(0 0.684375)"/>
       <use xlink:href="#DejaVuSans-30" transform="translate(63.623047 0.684375)"/>
       <use xlink:href="#DejaVuSans-2212" transform="translate(128.203125 38.965625) scale(0.7)"/>
       <use xlink:href="#DejaVuSans-31" transform="translate(186.855469 38.965625) scale(0.7)"/>
      </g>
     </g>
    </g>
    <g id="ytick_3">
     <g id="line2d_6">
      <g>
       <use xlink:href="#m2becfb6820" x="91.098119" y="463.320571" style="fill: #ffffff; stroke: #ffffff; stroke-width: 4"/>
      </g>
     </g>
     <g id="text_6">
      <!-- $\mathdefault{10^{0}}$ -->
      <g style="fill: #ffffff" transform="translate(45.918119 470.159165) scale(0.18 -0.18)">
       <use xlink:href="#DejaVuSans-31" transform="translate(0 0.765625)"/>
       <use xlink:href="#DejaVuSans-30" transform="translate(63.623047 0.765625)"/>
       <use xlink:href="#DejaVuSans-30" transform="translate(128.203125 39.046875) scale(0.7)"/>
      </g>
     </g>
    </g>
    <g id="ytick_4">
     <g id="line2d_7">
      <g>
       <use xlink:href="#m2becfb6820" x="91.098119" y="293.778856" style="fill: #ffffff; stroke: #ffffff; stroke-width: 4"/>
      </g>
     </g>
     <g id="text_7">
      <!-- $\mathdefault{10^{1}}$ -->
      <g style="fill: #ffffff" transform="translate(45.918119 300.61745) scale(0.18 -0.18)">
       <use xlink:href="#DejaVuSans-31" transform="translate(0 0.684375)"/>
       <use xlink:href="#DejaVuSans-30" transform="translate(63.623047 0.684375)"/>
       <use xlink:href="#DejaVuSans-31" transform="translate(128.203125 38.965625) scale(0.7)"/>
      </g>
     </g>
    </g>
    <g id="ytick_5">
     <g id="line2d_8">
      <g>
       <use xlink:href="#m2becfb6820" x="91.098119" y="124.237142" style="fill: #ffffff; stroke: #ffffff; stroke-width: 4"/>
      </g>
     </g>
     <g id="text_8">
      <!-- $\mathdefault{10^{2}}$ -->
      <g style="fill: #ffffff" transform="translate(45.918119 131.075735) scale(0.18 -0.18)">
       <use xlink:href="#DejaVuSans-31" transform="translate(0 0.765625)"/>
       <use xlink:href="#DejaVuSans-30" transform="translate(63.623047 0.765625)"/>
       <use xlink:href="#DejaVuSans-32" transform="translate(128.203125 39.046875) scale(0.7)"/>
      </g>
     </g>
    </g>
    <g id="ytick_6">
     <g id="line2d_9">
      <defs>
       <path id="m6103348bdb" d="M 0 0 
L -2 0 
" style="stroke: #000000; stroke-width: 0.6"/>
      </defs>
      <g>
       <use xlink:href="#m6103348bdb" x="91.098119" y="751.366858" style="stroke: #000000; stroke-width: 0.6"/>
      </g>
     </g>
    </g>
    <g id="ytick_7">
     <g id="line2d_10">
      <g>
       <use xlink:href="#m6103348bdb" x="91.098119" y="721.512044" style="stroke: #000000; stroke-width: 0.6"/>
      </g>
     </g>
    </g>
    <g id="ytick_8">
     <g id="line2d_11">
      <g>
       <use xlink:href="#m6103348bdb" x="91.098119" y="700.329717" style="stroke: #000000; stroke-width: 0.6"/>
      </g>
     </g>
    </g>
    <g id="ytick_9">
     <g id="line2d_12">
      <g>
       <use xlink:href="#m6103348bdb" x="91.098119" y="683.899427" style="stroke: #000000; stroke-width: 0.6"/>
      </g>
     </g>
    </g>
    <g id="ytick_10">
     <g id="line2d_13">
      <g>
       <use xlink:href="#m6103348bdb" x="91.098119" y="670.474903" style="stroke: #000000; stroke-width: 0.6"/>
      </g>
     </g>
    </g>
    <g id="ytick_11">
     <g id="line2d_14">
      <g>
       <use xlink:href="#m6103348bdb" x="91.098119" y="659.124629" style="stroke: #000000; stroke-width: 0.6"/>
      </g>
     </g>
    </g>
    <g id="ytick_12">
     <g id="line2d_15">
      <g>
       <use xlink:href="#m6103348bdb" x="91.098119" y="649.292575" style="stroke: #000000; stroke-width: 0.6"/>
      </g>
     </g>
    </g>
    <g id="ytick_13">
     <g id="line2d_16">
      <g>
       <use xlink:href="#m6103348bdb" x="91.098119" y="640.620089" style="stroke: #000000; stroke-width: 0.6"/>
      </g>
     </g>
    </g>
    <g id="ytick_14">
     <g id="line2d_17">
      <g>
       <use xlink:href="#m6103348bdb" x="91.098119" y="581.825144" style="stroke: #000000; stroke-width: 0.6"/>
      </g>
     </g>
    </g>
    <g id="ytick_15">
     <g id="line2d_18">
      <g>
       <use xlink:href="#m6103348bdb" x="91.098119" y="551.97033" style="stroke: #000000; stroke-width: 0.6"/>
      </g>
     </g>
    </g>
    <g id="ytick_16">
     <g id="line2d_19">
      <g>
       <use xlink:href="#m6103348bdb" x="91.098119" y="530.788002" style="stroke: #000000; stroke-width: 0.6"/>
      </g>
     </g>
    </g>
    <g id="ytick_17">
     <g id="line2d_20">
      <g>
       <use xlink:href="#m6103348bdb" x="91.098119" y="514.357712" style="stroke: #000000; stroke-width: 0.6"/>
      </g>
     </g>
    </g>
    <g id="ytick_18">
     <g id="line2d_21">
      <g>
       <use xlink:href="#m6103348bdb" x="91.098119" y="500.933188" style="stroke: #000000; stroke-width: 0.6"/>
      </g>
     </g>
    </g>
    <g id="ytick_19">
     <g id="line2d_22">
      <g>
       <use xlink:href="#m6103348bdb" x="91.098119" y="489.582915" style="stroke: #000000; stroke-width: 0.6"/>
      </g>
     </g>
    </g>
    <g id="ytick_20">
     <g id="line2d_23">
      <g>
       <use xlink:href="#m6103348bdb" x="91.098119" y="479.750861" style="stroke: #000000; stroke-width: 0.6"/>
      </g>
     </g>
    </g>
    <g id="ytick_21">
     <g id="line2d_24">
      <g>
       <use xlink:href="#m6103348bdb" x="91.098119" y="471.078374" style="stroke: #000000; stroke-width: 0.6"/>
      </g>
     </g>
    </g>
    <g id="ytick_22">
     <g id="line2d_25">
      <g>
       <use xlink:href="#m6103348bdb" x="91.098119" y="412.283429" style="stroke: #000000; stroke-width: 0.6"/>
      </g>
     </g>
    </g>
    <g id="ytick_23">
     <g id="line2d_26">
      <g>
       <use xlink:href="#m6103348bdb" x="91.098119" y="382.428615" style="stroke: #000000; stroke-width: 0.6"/>
      </g>
     </g>
    </g>
    <g id="ytick_24">
     <g id="line2d_27">
      <g>
       <use xlink:href="#m6103348bdb" x="91.098119" y="361.246288" style="stroke: #000000; stroke-width: 0.6"/>
      </g>
     </g>
    </g>
    <g id="ytick_25">
     <g id="line2d_28">
      <g>
       <use xlink:href="#m6103348bdb" x="91.098119" y="344.815998" style="stroke: #000000; stroke-width: 0.6"/>
      </g>
     </g>
    </g>
    <g id="ytick_26">
     <g id="line2d_29">
      <g>
       <use xlink:href="#m6103348bdb" x="91.098119" y="331.391474" style="stroke: #000000; stroke-width: 0.6"/>
      </g>
     </g>
    </g>
    <g id="ytick_27">
     <g id="line2d_30">
      <g>
       <use xlink:href="#m6103348bdb" x="91.098119" y="320.0412" style="stroke: #000000; stroke-width: 0.6"/>
      </g>
     </g>
    </g>
    <g id="ytick_28">
     <g id="line2d_31">
      <g>
       <use xlink:href="#m6103348bdb" x="91.098119" y="310.209146" style="stroke: #000000; stroke-width: 0.6"/>
      </g>
     </g>
    </g>
    <g id="ytick_29">
     <g id="line2d_32">
      <g>
       <use xlink:href="#m6103348bdb" x="91.098119" y="301.53666" style="stroke: #000000; stroke-width: 0.6"/>
      </g>
     </g>
    </g>
    <g id="ytick_30">
     <g id="line2d_33">
      <g>
       <use xlink:href="#m6103348bdb" x="91.098119" y="242.741715" style="stroke: #000000; stroke-width: 0.6"/>
      </g>
     </g>
    </g>
    <g id="ytick_31">
     <g id="line2d_34">
      <g>
       <use xlink:href="#m6103348bdb" x="91.098119" y="212.886901" style="stroke: #000000; stroke-width: 0.6"/>
      </g>
     </g>
    </g>
    <g id="ytick_32">
     <g id="line2d_35">
      <g>
       <use xlink:href="#m6103348bdb" x="91.098119" y="191.704573" style="stroke: #000000; stroke-width: 0.6"/>
      </g>
     </g>
    </g>
    <g id="ytick_33">
     <g id="line2d_36">
      <g>
       <use xlink:href="#m6103348bdb" x="91.098119" y="175.274283" style="stroke: #000000; stroke-width: 0.6"/>
      </g>
     </g>
    </g>
    <g id="ytick_34">
     <g id="line2d_37">
      <g>
       <use xlink:href="#m6103348bdb" x="91.098119" y="161.849759" style="stroke: #000000; stroke-width: 0.6"/>
      </g>
     </g>
    </g>
    <g id="ytick_35">
     <g id="line2d_38">
      <g>
       <use xlink:href="#m6103348bdb" x="91.098119" y="150.499486" style="stroke: #000000; stroke-width: 0.6"/>
      </g>
     </g>
    </g>
    <g id="ytick_36">
     <g id="line2d_39">
      <g>
       <use xlink:href="#m6103348bdb" x="91.098119" y="140.667431" style="stroke: #000000; stroke-width: 0.6"/>
      </g>
     </g>
    </g>
    <g id="ytick_37">
     <g id="line2d_40">
      <g>
       <use xlink:href="#m6103348bdb" x="91.098119" y="131.994945" style="stroke: #000000; stroke-width: 0.6"/>
      </g>
     </g>
    </g>
    <g id="ytick_38">
     <g id="line2d_41">
      <g>
       <use xlink:href="#m6103348bdb" x="91.098119" y="73.2" style="stroke: #000000; stroke-width: 0.6"/>
      </g>
     </g>
    </g>
    <g id="text_9">
     <!-- TRILLIONS PER YEAR (LOG SCALE) -->
     <g style="fill: #ffffff" transform="translate(26.722806 648.360906) rotate(-90) scale(0.22 -0.22)">
      <defs>
       <path id="DejaVuSans-Bold-54" d="M 31 4666 
L 4331 4666 
L 4331 3756 
L 2784 3756 
L 2784 0 
L 1581 0 
L 1581 3756 
L 31 3756 
L 31 4666 
z
" transform="scale(0.015625)"/>
       <path id="DejaVuSans-Bold-52" d="M 2297 2597 
Q 2675 2597 2839 2737 
Q 3003 2878 3003 3200 
Q 3003 3519 2839 3656 
Q 2675 3794 2297 3794 
L 1791 3794 
L 1791 2597 
L 2297 2597 
z
M 1791 1766 
L 1791 0 
L 588 0 
L 588 4666 
L 2425 4666 
Q 3347 4666 3776 4356 
Q 4206 4047 4206 3378 
Q 4206 2916 3982 2619 
Q 3759 2322 3309 2181 
Q 3556 2125 3751 1926 
Q 3947 1728 4147 1325 
L 4800 0 
L 3519 0 
L 2950 1159 
Q 2778 1509 2601 1637 
Q 2425 1766 2131 1766 
L 1791 1766 
z
" transform="scale(0.015625)"/>
       <path id="DejaVuSans-Bold-49" d="M 588 4666 
L 1791 4666 
L 1791 0 
L 588 0 
L 588 4666 
z
" transform="scale(0.015625)"/>
       <path id="DejaVuSans-Bold-4c" d="M 588 4666 
L 1791 4666 
L 1791 909 
L 3903 909 
L 3903 0 
L 588 0 
L 588 4666 
z
" transform="scale(0.015625)"/>
       <path id="DejaVuSans-Bold-4f" d="M 2719 3878 
Q 2169 3878 1866 3472 
Q 1563 3066 1563 2328 
Q 1563 1594 1866 1187 
Q 2169 781 2719 781 
Q 3272 781 3575 1187 
Q 3878 1594 3878 2328 
Q 3878 3066 3575 3472 
Q 3272 3878 2719 3878 
z
M 2719 4750 
Q 3844 4750 4481 4106 
Q 5119 3463 5119 2328 
Q 5119 1197 4481 553 
Q 3844 -91 2719 -91 
Q 1597 -91 958 553 
Q 319 1197 319 2328 
Q 319 3463 958 4106 
Q 1597 4750 2719 4750 
z
" transform="scale(0.015625)"/>
       <path id="DejaVuSans-Bold-4e" d="M 588 4666 
L 1931 4666 
L 3628 1466 
L 3628 4666 
L 4769 4666 
L 4769 0 
L 3425 0 
L 1728 3200 
L 1728 0 
L 588 0 
L 588 4666 
z
" transform="scale(0.015625)"/>
       <path id="DejaVuSans-Bold-53" d="M 3834 4519 
L 3834 3531 
Q 3450 3703 3084 3790 
Q 2719 3878 2394 3878 
Q 1963 3878 1756 3759 
Q 1550 3641 1550 3391 
Q 1550 3203 1689 3098 
Q 1828 2994 2194 2919 
L 2706 2816 
Q 3484 2659 3812 2340 
Q 4141 2022 4141 1434 
Q 4141 663 3683 286 
Q 3225 -91 2284 -91 
Q 1841 -91 1394 -6 
Q 947 78 500 244 
L 500 1259 
Q 947 1022 1364 901 
Q 1781 781 2169 781 
Q 2563 781 2772 912 
Q 2981 1044 2981 1288 
Q 2981 1506 2839 1625 
Q 2697 1744 2272 1838 
L 1806 1941 
Q 1106 2091 782 2419 
Q 459 2747 459 3303 
Q 459 4000 909 4375 
Q 1359 4750 2203 4750 
Q 2588 4750 2994 4692 
Q 3400 4634 3834 4519 
z
" transform="scale(0.015625)"/>
       <path id="DejaVuSans-Bold-20" transform="scale(0.015625)"/>
       <path id="DejaVuSans-Bold-50" d="M 588 4666 
L 2584 4666 
Q 3475 4666 3951 4270 
Q 4428 3875 4428 3144 
Q 4428 2409 3951 2014 
Q 3475 1619 2584 1619 
L 1791 1619 
L 1791 0 
L 588 0 
L 588 4666 
z
M 1791 3794 
L 1791 2491 
L 2456 2491 
Q 2806 2491 2997 2661 
Q 3188 2831 3188 3144 
Q 3188 3456 2997 3625 
Q 2806 3794 2456 3794 
L 1791 3794 
z
" transform="scale(0.015625)"/>
       <path id="DejaVuSans-Bold-45" d="M 588 4666 
L 3834 4666 
L 3834 3756 
L 1791 3756 
L 1791 2888 
L 3713 2888 
L 3713 1978 
L 1791 1978 
L 1791 909 
L 3903 909 
L 3903 0 
L 588 0 
L 588 4666 
z
" transform="scale(0.015625)"/>
       <path id="DejaVuSans-Bold-59" d="M -63 4666 
L 1253 4666 
L 2316 3003 
L 3378 4666 
L 4697 4666 
L 2919 1966 
L 2919 0 
L 1716 0 
L 1716 1966 
L -63 4666 
z
" transform="scale(0.015625)"/>
       <path id="DejaVuSans-Bold-41" d="M 3419 850 
L 1538 850 
L 1241 0 
L 31 0 
L 1759 4666 
L 3194 4666 
L 4922 0 
L 3713 0 
L 3419 850 
z
M 1838 1716 
L 3116 1716 
L 2478 3572 
L 1838 1716 
z
" transform="scale(0.015625)"/>
       <path id="DejaVuSans-Bold-28" d="M 2413 -844 
L 1484 -844 
Q 1006 -72 778 623 
Q 550 1319 550 2003 
Q 550 2688 779 3389 
Q 1009 4091 1484 4856 
L 2413 4856 
Q 2013 4116 1813 3408 
Q 1613 2700 1613 2009 
Q 1613 1319 1811 609 
Q 2009 -100 2413 -844 
z
" transform="scale(0.015625)"/>
       <path id="DejaVuSans-Bold-47" d="M 4781 347 
Q 4331 128 3847 18 
Q 3363 -91 2847 -91 
Q 1681 -91 1000 561 
Q 319 1213 319 2328 
Q 319 3456 1012 4103 
Q 1706 4750 2913 4750 
Q 3378 4750 3804 4662 
Q 4231 4575 4609 4403 
L 4609 3438 
Q 4219 3659 3833 3768 
Q 3447 3878 3059 3878 
Q 2341 3878 1952 3476 
Q 1563 3075 1563 2328 
Q 1563 1588 1938 1184 
Q 2313 781 3003 781 
Q 3191 781 3352 804 
Q 3513 828 3641 878 
L 3641 1784 
L 2906 1784 
L 2906 2591 
L 4781 2591 
L 4781 347 
z
" transform="scale(0.015625)"/>
       <path id="DejaVuSans-Bold-43" d="M 4288 256 
Q 3956 84 3597 -3 
Q 3238 -91 2847 -91 
Q 1681 -91 1000 561 
Q 319 1213 319 2328 
Q 319 3447 1000 4098 
Q 1681 4750 2847 4750 
Q 3238 4750 3597 4662 
Q 3956 4575 4288 4403 
L 4288 3438 
Q 3953 3666 3628 3772 
Q 3303 3878 2944 3878 
Q 2300 3878 1931 3465 
Q 1563 3053 1563 2328 
Q 1563 1606 1931 1193 
Q 2300 781 2944 781 
Q 3303 781 3628 887 
Q 3953 994 4288 1222 
L 4288 256 
z
" transform="scale(0.015625)"/>
       <path id="DejaVuSans-Bold-29" d="M 513 -844 
Q 913 -100 1113 609 
Q 1313 1319 1313 2009 
Q 1313 2700 1113 3408 
Q 913 4116 513 4856 
L 1441 4856 
Q 1916 4091 2145 3389 
Q 2375 2688 2375 2003 
Q 2375 1319 2147 623 
Q 1919 -72 1441 -844 
L 513 -844 
z
" transform="scale(0.015625)"/>
      </defs>
      <use xlink:href="#DejaVuSans-Bold-54"/>
      <use xlink:href="#DejaVuSans-Bold-52" transform="translate(68.212891 0)"/>
      <use xlink:href="#DejaVuSans-Bold-49" transform="translate(145.214844 0)"/>
      <use xlink:href="#DejaVuSans-Bold-4c" transform="translate(182.421875 0)"/>
      <use xlink:href="#DejaVuSans-Bold-4c" transform="translate(246.142578 0)"/>
      <use xlink:href="#DejaVuSans-Bold-49" transform="translate(309.863281 0)"/>
      <use xlink:href="#DejaVuSans-Bold-4f" transform="translate(347.070312 0)"/>
      <use xlink:href="#DejaVuSans-Bold-4e" transform="translate(432.080078 0)"/>
      <use xlink:href="#DejaVuSans-Bold-53" transform="translate(515.771484 0)"/>
      <use xlink:href="#DejaVuSans-Bold-20" transform="translate(587.792969 0)"/>
      <use xlink:href="#DejaVuSans-Bold-50" transform="translate(622.607422 0)"/>
      <use xlink:href="#DejaVuSans-Bold-45" transform="translate(695.898438 0)"/>
      <use xlink:href="#DejaVuSans-Bold-52" transform="translate(764.208984 0)"/>
      <use xlink:href="#DejaVuSans-Bold-20" transform="translate(841.210938 0)"/>
      <use xlink:href="#DejaVuSans-Bold-59" transform="translate(876.025391 0)"/>
      <use xlink:href="#DejaVuSans-Bold-45" transform="translate(948.4375 0)"/>
      <use xlink:href="#DejaVuSans-Bold-41" transform="translate(1016.748047 0)"/>
      <use xlink:href="#DejaVuSans-Bold-52" transform="translate(1094.140625 0)"/>
      <use xlink:href="#DejaVuSans-Bold-20" transform="translate(1171.142578 0)"/>
      <use xlink:href="#DejaVuSans-Bold-28" transform="translate(1205.957031 0)"/>
      <use xlink:href="#DejaVuSans-Bold-4c" transform="translate(1251.660156 0)"/>
      <use xlink:href="#DejaVuSans-Bold-4f" transform="translate(1311.755859 0)"/>
      <use xlink:href="#DejaVuSans-Bold-47" transform="translate(1396.765625 0)"/>
      <use xlink:href="#DejaVuSans-Bold-20" transform="translate(1478.845703 0)"/>
      <use xlink:href="#DejaVuSans-Bold-53" transform="translate(1513.660156 0)"/>
      <use xlink:href="#DejaVuSans-Bold-43" transform="translate(1585.681641 0)"/>
      <use xlink:href="#DejaVuSans-Bold-41" transform="translate(1659.070312 0)"/>
      <use xlink:href="#DejaVuSans-Bold-4c" transform="translate(1736.462891 0)"/>
      <use xlink:href="#DejaVuSans-Bold-45" transform="translate(1800.183594 0)"/>
      <use xlink:href="#DejaVuSans-Bold-29" transform="translate(1868.494141 0)"/>
     </g>
    </g>
   </g>
   <g id="patch_6">
    <path d="M 91.098119 802.404 
L 91.098119 73.2 
" style="fill: none; stroke: #ffffff; stroke-width: 5; stroke-linejoin: miter; stroke-linecap: square"/>
   </g>
   <g id="patch_7">
    <path d="M 91.098119 802.404 
L 1141.2 802.404 
" style="fill: none; stroke: #ffffff; stroke-width: 5; stroke-linejoin: miter; stroke-linecap: square"/>
   </g>
   <g id="text_10">
    <g id="patch_8">
     <path d="M 193.689319 277.366785 
L 304.271819 277.366785 
L 304.271819 227.868035 
L 193.689319 227.868035 
z
" style="stroke: #ffffff; stroke-width: 3; stroke-linejoin: miter"/>
    </g>
    <!-- $9.7T -->
    <g style="fill: #ffffff" transform="translate(204.889319 260.34366) scale(0.28 -0.28)">
     <defs>
      <path id="DejaVuSans-Bold-24" d="M 2484 -941 
L 1978 -941 
L 1975 0 
Q 1584 16 1218 87 
Q 853 159 506 288 
L 506 1106 
Q 866 922 1233 823 
Q 1600 725 1978 713 
L 1978 1684 
L 1875 1703 
Q 1128 1834 814 2115 
Q 500 2397 500 2925 
Q 500 3484 883 3798 
Q 1266 4113 1975 4141 
L 1978 4863 
L 2484 4863 
L 2484 4153 
Q 2797 4128 3109 4075 
Q 3422 4022 3738 3938 
L 3738 3144 
Q 3425 3275 3112 3348 
Q 2800 3422 2484 3438 
L 2484 2541 
L 2584 2522 
Q 3378 2397 3698 2105 
Q 4019 1813 4019 1241 
Q 4019 666 3637 358 
Q 3256 50 2484 6 
L 2484 -941 
z
M 1978 2613 
L 1978 3428 
Q 1756 3416 1623 3308 
Q 1491 3200 1491 3034 
Q 1491 2850 1612 2745 
Q 1734 2641 1978 2613 
z
M 2484 1594 
L 2484 725 
Q 2756 728 2892 831 
Q 3028 934 3028 1141 
Q 3028 1353 2903 1458 
Q 2778 1563 2484 1594 
z
" transform="scale(0.015625)"/>
      <path id="DejaVuSans-Bold-39" d="M 641 103 
L 641 966 
Q 928 831 1190 764 
Q 1453 697 1709 697 
Q 2247 697 2547 995 
Q 2847 1294 2900 1881 
Q 2688 1725 2447 1647 
Q 2206 1569 1925 1569 
Q 1209 1569 770 1986 
Q 331 2403 331 3084 
Q 331 3838 820 4291 
Q 1309 4744 2131 4744 
Q 3044 4744 3544 4128 
Q 4044 3513 4044 2388 
Q 4044 1231 3459 570 
Q 2875 -91 1856 -91 
Q 1528 -91 1228 -42 
Q 928 6 641 103 
z
M 2125 2350 
Q 2441 2350 2600 2554 
Q 2759 2759 2759 3169 
Q 2759 3575 2600 3781 
Q 2441 3988 2125 3988 
Q 1809 3988 1650 3781 
Q 1491 3575 1491 3169 
Q 1491 2759 1650 2554 
Q 1809 2350 2125 2350 
z
" transform="scale(0.015625)"/>
      <path id="DejaVuSans-Bold-2e" d="M 653 1209 
L 1778 1209 
L 1778 0 
L 653 0 
L 653 1209 
z
" transform="scale(0.015625)"/>
      <path id="DejaVuSans-Bold-37" d="M 428 4666 
L 3944 4666 
L 3944 3988 
L 2125 0 
L 953 0 
L 2675 3781 
L 428 3781 
L 428 4666 
z
" transform="scale(0.015625)"/>
     </defs>
     <use xlink:href="#DejaVuSans-Bold-24"/>
     <use xlink:href="#DejaVuSans-Bold-39" transform="translate(69.580078 0)"/>
     <use xlink:href="#DejaVuSans-Bold-2e" transform="translate(139.160156 0)"/>
     <use xlink:href="#DejaVuSans-Bold-37" transform="translate(177.148438 0)"/>
     <use xlink:href="#DejaVuSans-Bold-54" transform="translate(246.728516 0)"/>
    </g>
   </g>
   <g id="text_11">
    <g id="patch_9">
     <path d="M 541.375934 99.236975 
L 690.922184 99.236975 
L 690.922184 49.738225 
L 541.375934 49.738225 
z
" style="stroke: #ffffff; stroke-width: 3; stroke-linejoin: miter"/>
    </g>
    <!-- $109.0T -->
    <g style="fill: #ffffff" transform="translate(552.575934 82.21385) scale(0.28 -0.28)">
     <defs>
      <path id="DejaVuSans-Bold-31" d="M 750 831 
L 1813 831 
L 1813 3847 
L 722 3622 
L 722 4441 
L 1806 4666 
L 2950 4666 
L 2950 831 
L 4013 831 
L 4013 0 
L 750 0 
L 750 831 
z
" transform="scale(0.015625)"/>
      <path id="DejaVuSans-Bold-30" d="M 2944 2338 
Q 2944 3213 2780 3570 
Q 2616 3928 2228 3928 
Q 1841 3928 1675 3570 
Q 1509 3213 1509 2338 
Q 1509 1453 1675 1090 
Q 1841 728 2228 728 
Q 2613 728 2778 1090 
Q 2944 1453 2944 2338 
z
M 4147 2328 
Q 4147 1169 3647 539 
Q 3147 -91 2228 -91 
Q 1306 -91 806 539 
Q 306 1169 306 2328 
Q 306 3491 806 4120 
Q 1306 4750 2228 4750 
Q 3147 4750 3647 4120 
Q 4147 3491 4147 2328 
z
" transform="scale(0.015625)"/>
     </defs>
     <use xlink:href="#DejaVuSans-Bold-24"/>
     <use xlink:href="#DejaVuSans-Bold-31" transform="translate(69.580078 0)"/>
     <use xlink:href="#DejaVuSans-Bold-30" transform="translate(139.160156 0)"/>
     <use xlink:href="#DejaVuSans-Bold-39" transform="translate(208.740234 0)"/>
     <use xlink:href="#DejaVuSans-Bold-2e" transform="translate(278.320312 0)"/>
     <use xlink:href="#DejaVuSans-Bold-30" transform="translate(316.308594 0)"/>
     <use xlink:href="#DejaVuSans-Bold-54" transform="translate(385.888672 0)"/>
    </g>
   </g>
   <g id="text_12">
    <g id="patch_10">
     <path d="M 932.224112 591.567056 
L 1034.410987 591.567056 
L 1034.410987 542.068306 
L 932.224112 542.068306 
z
" style="stroke: #ffffff; stroke-width: 3; stroke-linejoin: miter"/>
    </g>
    <!-- $68B -->
    <g style="fill: #ffffff" transform="translate(943.424112 574.543931) scale(0.28 -0.28)">
     <defs>
      <path id="DejaVuSans-Bold-36" d="M 2316 2303 
Q 2000 2303 1842 2098 
Q 1684 1894 1684 1484 
Q 1684 1075 1842 870 
Q 2000 666 2316 666 
Q 2634 666 2792 870 
Q 2950 1075 2950 1484 
Q 2950 1894 2792 2098 
Q 2634 2303 2316 2303 
z
M 3803 4544 
L 3803 3681 
Q 3506 3822 3243 3889 
Q 2981 3956 2731 3956 
Q 2194 3956 1894 3657 
Q 1594 3359 1544 2772 
Q 1750 2925 1990 3001 
Q 2231 3078 2516 3078 
Q 3231 3078 3670 2659 
Q 4109 2241 4109 1563 
Q 4109 813 3618 361 
Q 3128 -91 2303 -91 
Q 1394 -91 895 523 
Q 397 1138 397 2266 
Q 397 3422 980 4083 
Q 1563 4744 2578 4744 
Q 2900 4744 3203 4694 
Q 3506 4644 3803 4544 
z
" transform="scale(0.015625)"/>
      <path id="DejaVuSans-Bold-38" d="M 2228 2088 
Q 1891 2088 1709 1903 
Q 1528 1719 1528 1375 
Q 1528 1031 1709 848 
Q 1891 666 2228 666 
Q 2563 666 2741 848 
Q 2919 1031 2919 1375 
Q 2919 1722 2741 1905 
Q 2563 2088 2228 2088 
z
M 1350 2484 
Q 925 2613 709 2878 
Q 494 3144 494 3541 
Q 494 4131 934 4440 
Q 1375 4750 2228 4750 
Q 3075 4750 3515 4442 
Q 3956 4134 3956 3541 
Q 3956 3144 3739 2878 
Q 3522 2613 3097 2484 
Q 3572 2353 3814 2058 
Q 4056 1763 4056 1313 
Q 4056 619 3595 264 
Q 3134 -91 2228 -91 
Q 1319 -91 855 264 
Q 391 619 391 1313 
Q 391 1763 633 2058 
Q 875 2353 1350 2484 
z
M 1631 3419 
Q 1631 3141 1786 2991 
Q 1941 2841 2228 2841 
Q 2509 2841 2662 2991 
Q 2816 3141 2816 3419 
Q 2816 3697 2662 3845 
Q 2509 3994 2228 3994 
Q 1941 3994 1786 3844 
Q 1631 3694 1631 3419 
z
" transform="scale(0.015625)"/>
      <path id="DejaVuSans-Bold-42" d="M 2456 2859 
Q 2741 2859 2887 2984 
Q 3034 3109 3034 3353 
Q 3034 3594 2887 3720 
Q 2741 3847 2456 3847 
L 1791 3847 
L 1791 2859 
L 2456 2859 
z
M 2497 819 
Q 2859 819 3042 972 
Q 3225 1125 3225 1434 
Q 3225 1738 3044 1889 
Q 2863 2041 2497 2041 
L 1791 2041 
L 1791 819 
L 2497 819 
z
M 3616 2497 
Q 4003 2384 4215 2081 
Q 4428 1778 4428 1338 
Q 4428 663 3972 331 
Q 3516 0 2584 0 
L 588 0 
L 588 4666 
L 2394 4666 
Q 3366 4666 3802 4372 
Q 4238 4078 4238 3431 
Q 4238 3091 4078 2852 
Q 3919 2613 3616 2497 
z
" transform="scale(0.015625)"/>
     </defs>
     <use xlink:href="#DejaVuSans-Bold-24"/>
     <use xlink:href="#DejaVuSans-Bold-36" transform="translate(69.580078 0)"/>
     <use xlink:href="#DejaVuSans-Bold-38" transform="translate(139.160156 0)"/>
     <use xlink:href="#DejaVuSans-Bold-42" transform="translate(208.740234 0)"/>
    </g>
   </g>
   <g id="text_13">
    <g id="patch_11">
     <path d="M 307.071064 246.869401 
L 558.058564 246.869401 
L 558.058564 98.664901 
L 307.071064 98.664901 
z
" style="fill: #ff0000; stroke: #ffff00; stroke-width: 5; stroke-linejoin: miter"/>
    </g>
    <!-- 11X -->
    <g style="fill: #ffff00" transform="translate(380.664814 159.137401) scale(0.48 -0.48)">
     <defs>
      <path id="DejaVuSans-Bold-58" d="M 3188 2381 
L 4806 0 
L 3553 0 
L 2463 1594 
L 1381 0 
L 122 0 
L 1741 2381 
L 184 4666 
L 1441 4666 
L 2463 3163 
L 3481 4666 
L 4744 4666 
L 3188 2381 
z
" transform="scale(0.015625)"/>
     </defs>
     <use xlink:href="#DejaVuSans-Bold-31"/>
     <use xlink:href="#DejaVuSans-Bold-31" transform="translate(69.580078 0)"/>
     <use xlink:href="#DejaVuSans-Bold-58" transform="translate(139.160156 0)"/>
    </g>
    <!-- BIGGER -->
    <g style="fill: #ffff00" transform="translate(331.071064 212.886901) scale(0.48 -0.48)">
     <use xlink:href="#DejaVuSans-Bold-42"/>
     <use xlink:href="#DejaVuSans-Bold-49" transform="translate(76.220703 0)"/>
     <use xlink:href="#DejaVuSans-Bold-47" transform="translate(113.427734 0)"/>
     <use xlink:href="#DejaVuSans-Bold-47" transform="translate(195.507812 0)"/>
     <use xlink:href="#DejaVuSans-Bold-45" transform="translate(277.587891 0)"/>
     <use xlink:href="#DejaVuSans-Bold-52" transform="translate(345.898438 0)"/>
    </g>
   </g>
   <g id="text_14">
    <g id="patch_12">
     <path d="M 604.135804 546.612712 
L 995.330804 546.612712 
Q 1020.930804 546.612712 1020.930804 521.012712 
L 1020.930804 454.209712 
Q 1020.930804 428.609712 995.330804 428.609712 
L 604.135804 428.609712 
Q 578.535804 428.609712 578.535804 454.209712 
L 578.535804 521.012712 
Q 578.535804 546.612712 604.135804 546.612712 
z
" style="fill: #ff0000; stroke: #ffffff; stroke-width: 5; stroke-linejoin: miter"/>
    </g>
    <!-- TOTAL DEATH TOILET: -->
    <g style="fill: #ffffff" transform="translate(604.135804 478.524712) scale(0.32 -0.32)">
     <defs>
      <path id="DejaVuSans-Bold-44" d="M 1791 3756 
L 1791 909 
L 2222 909 
Q 2959 909 3348 1275 
Q 3738 1641 3738 2338 
Q 3738 3031 3350 3393 
Q 2963 3756 2222 3756 
L 1791 3756 
z
M 588 4666 
L 1856 4666 
Q 2919 4666 3439 4514 
Q 3959 4363 4331 4000 
Q 4659 3684 4818 3271 
Q 4978 2859 4978 2338 
Q 4978 1809 4818 1395 
Q 4659 981 4331 666 
Q 3956 303 3431 151 
Q 2906 0 1856 0 
L 588 0 
L 588 4666 
z
" transform="scale(0.015625)"/>
      <path id="DejaVuSans-Bold-48" d="M 588 4666 
L 1791 4666 
L 1791 2888 
L 3566 2888 
L 3566 4666 
L 4769 4666 
L 4769 0 
L 3566 0 
L 3566 1978 
L 1791 1978 
L 1791 0 
L 588 0 
L 588 4666 
z
" transform="scale(0.015625)"/>
      <path id="DejaVuSans-Bold-3a" d="M 716 3500 
L 1844 3500 
L 1844 2291 
L 716 2291 
L 716 3500 
z
M 716 1209 
L 1844 1209 
L 1844 0 
L 716 0 
L 716 1209 
z
" transform="scale(0.015625)"/>
     </defs>
     <use xlink:href="#DejaVuSans-Bold-54"/>
     <use xlink:href="#DejaVuSans-Bold-4f" transform="translate(68.212891 0)"/>
     <use xlink:href="#DejaVuSans-Bold-54" transform="translate(153.222656 0)"/>
     <use xlink:href="#DejaVuSans-Bold-41" transform="translate(213.685547 0)"/>
     <use xlink:href="#DejaVuSans-Bold-4c" transform="translate(291.078125 0)"/>
     <use xlink:href="#DejaVuSans-Bold-20" transform="translate(354.798828 0)"/>
     <use xlink:href="#DejaVuSans-Bold-44" transform="translate(389.613281 0)"/>
     <use xlink:href="#DejaVuSans-Bold-45" transform="translate(472.621094 0)"/>
     <use xlink:href="#DejaVuSans-Bold-41" transform="translate(540.931641 0)"/>
     <use xlink:href="#DejaVuSans-Bold-54" transform="translate(610.574219 0)"/>
     <use xlink:href="#DejaVuSans-Bold-48" transform="translate(678.787109 0)"/>
     <use xlink:href="#DejaVuSans-Bold-20" transform="translate(762.478516 0)"/>
     <use xlink:href="#DejaVuSans-Bold-54" transform="translate(797.292969 0)"/>
     <use xlink:href="#DejaVuSans-Bold-4f" transform="translate(865.505859 0)"/>
     <use xlink:href="#DejaVuSans-Bold-49" transform="translate(950.515625 0)"/>
     <use xlink:href="#DejaVuSans-Bold-4c" transform="translate(987.722656 0)"/>
     <use xlink:href="#DejaVuSans-Bold-45" transform="translate(1051.443359 0)"/>
     <use xlink:href="#DejaVuSans-Bold-54" transform="translate(1119.753906 0)"/>
     <use xlink:href="#DejaVuSans-Bold-3a" transform="translate(1182.466797 0)"/>
    </g>
    <!-- $118.7T/YEAR -->
    <g style="fill: #ffffff" transform="translate(674.015804 514.357712) scale(0.32 -0.32)">
     <defs>
      <path id="DejaVuSans-Bold-2f" d="M 1644 4666 
L 2338 4666 
L 691 -594 
L 0 -594 
L 1644 4666 
z
" transform="scale(0.015625)"/>
     </defs>
     <use xlink:href="#DejaVuSans-Bold-24"/>
     <use xlink:href="#DejaVuSans-Bold-31" transform="translate(69.580078 0)"/>
     <use xlink:href="#DejaVuSans-Bold-31" transform="translate(139.160156 0)"/>
     <use xlink:href="#DejaVuSans-Bold-38" transform="translate(208.740234 0)"/>
     <use xlink:href="#DejaVuSans-Bold-2e" transform="translate(278.320312 0)"/>
     <use xlink:href="#DejaVuSans-Bold-37" transform="translate(316.308594 0)"/>
     <use xlink:href="#DejaVuSans-Bold-54" transform="translate(385.888672 0)"/>
     <use xlink:href="#DejaVuSans-Bold-2f" transform="translate(454.101562 0)"/>
     <use xlink:href="#DejaVuSans-Bold-59" transform="translate(490.625 0)"/>
     <use xlink:href="#DejaVuSans-Bold-45" transform="translate(563.037109 0)"/>
     <use xlink:href="#DejaVuSans-Bold-41" transform="translate(631.347656 0)"/>
     <use xlink:href="#DejaVuSans-Bold-52" transform="translate(708.740234 0)"/>
    </g>
   </g>
   <g id="text_15">
    <g id="patch_13">
     <path d="M 858.391924 361.807248 
L 1108.243174 361.807248 
L 1108.243174 260.830248 
L 858.391924 260.830248 
z
" style="stroke: #ffff00; stroke-width: 4; stroke-linejoin: miter"/>
    </g>
    <!-- 1,746X -->
    <g style="fill: #ffff00" transform="translate(936.110674 291.066498) scale(0.24 -0.24)">
     <defs>
      <path id="DejaVuSans-Bold-2c" d="M 653 1209 
L 1778 1209 
L 1778 256 
L 1006 -909 
L 341 -909 
L 653 256 
L 653 1209 
z
" transform="scale(0.015625)"/>
      <path id="DejaVuSans-Bold-34" d="M 2356 3675 
L 1038 1722 
L 2356 1722 
L 2356 3675 
z
M 2156 4666 
L 3494 4666 
L 3494 1722 
L 4159 1722 
L 4159 850 
L 3494 850 
L 3494 0 
L 2356 0 
L 2356 850 
L 288 850 
L 288 1881 
L 2156 4666 
z
" transform="scale(0.015625)"/>
     </defs>
     <use xlink:href="#DejaVuSans-Bold-31"/>
     <use xlink:href="#DejaVuSans-Bold-2c" transform="translate(69.580078 0)"/>
     <use xlink:href="#DejaVuSans-Bold-37" transform="translate(107.568359 0)"/>
     <use xlink:href="#DejaVuSans-Bold-34" transform="translate(177.148438 0)"/>
     <use xlink:href="#DejaVuSans-Bold-36" transform="translate(246.728516 0)"/>
     <use xlink:href="#DejaVuSans-Bold-58" transform="translate(316.308594 0)"/>
    </g>
    <!-- MORE ON DEATH -->
    <g style="fill: #ffff00" transform="translate(870.391924 317.941248) scale(0.24 -0.24)">
     <defs>
      <path id="DejaVuSans-Bold-4d" d="M 588 4666 
L 2119 4666 
L 3181 2169 
L 4250 4666 
L 5778 4666 
L 5778 0 
L 4641 0 
L 4641 3413 
L 3566 897 
L 2803 897 
L 1728 3413 
L 1728 0 
L 588 0 
L 588 4666 
z
" transform="scale(0.015625)"/>
     </defs>
     <use xlink:href="#DejaVuSans-Bold-4d"/>
     <use xlink:href="#DejaVuSans-Bold-4f" transform="translate(99.511719 0)"/>
     <use xlink:href="#DejaVuSans-Bold-52" transform="translate(184.521484 0)"/>
     <use xlink:href="#DejaVuSans-Bold-45" transform="translate(261.523438 0)"/>
     <use xlink:href="#DejaVuSans-Bold-20" transform="translate(329.833984 0)"/>
     <use xlink:href="#DejaVuSans-Bold-4f" transform="translate(364.648438 0)"/>
     <use xlink:href="#DejaVuSans-Bold-4e" transform="translate(449.658203 0)"/>
     <use xlink:href="#DejaVuSans-Bold-20" transform="translate(533.349609 0)"/>
     <use xlink:href="#DejaVuSans-Bold-44" transform="translate(568.164062 0)"/>
     <use xlink:href="#DejaVuSans-Bold-45" transform="translate(651.171875 0)"/>
     <use xlink:href="#DejaVuSans-Bold-41" transform="translate(719.482422 0)"/>
     <use xlink:href="#DejaVuSans-Bold-54" transform="translate(789.125 0)"/>
     <use xlink:href="#DejaVuSans-Bold-48" transform="translate(857.337891 0)"/>
    </g>
    <!-- THAN CURES -->
    <g style="fill: #ffff00" transform="translate(896.951299 344.815998) scale(0.24 -0.24)">
     <defs>
      <path id="DejaVuSans-Bold-55" d="M 588 4666 
L 1791 4666 
L 1791 1869 
Q 1791 1291 1980 1042 
Q 2169 794 2597 794 
Q 3028 794 3217 1042 
Q 3406 1291 3406 1869 
L 3406 4666 
L 4609 4666 
L 4609 1869 
Q 4609 878 4112 393 
Q 3616 -91 2597 -91 
Q 1581 -91 1084 393 
Q 588 878 588 1869 
L 588 4666 
z
" transform="scale(0.015625)"/>
     </defs>
     <use xlink:href="#DejaVuSans-Bold-54"/>
     <use xlink:href="#DejaVuSans-Bold-48" transform="translate(68.212891 0)"/>
     <use xlink:href="#DejaVuSans-Bold-41" transform="translate(151.904297 0)"/>
     <use xlink:href="#DejaVuSans-Bold-4e" transform="translate(229.296875 0)"/>
     <use xlink:href="#DejaVuSans-Bold-20" transform="translate(312.988281 0)"/>
     <use xlink:href="#DejaVuSans-Bold-43" transform="translate(347.802734 0)"/>
     <use xlink:href="#DejaVuSans-Bold-55" transform="translate(421.191406 0)"/>
     <use xlink:href="#DejaVuSans-Bold-52" transform="translate(502.392578 0)"/>
     <use xlink:href="#DejaVuSans-Bold-45" transform="translate(579.394531 0)"/>
     <use xlink:href="#DejaVuSans-Bold-53" transform="translate(647.705078 0)"/>
    </g>
   </g>
   <g id="text_16">
    <g id="patch_14">
     <path d="M 171.556091 93.934687 
L 1060.742028 93.934687 
L 1060.742028 -30.713438 
L 171.556091 -30.713438 
z
" style="fill: #ff0000; stroke: #ffffff; stroke-width: 8; stroke-linejoin: miter"/>
    </g>
    <!-- THE $119 TRILLION DEATH TOILET -->
    <g style="fill: #ffffff" transform="translate(213.556091 43.2) scale(0.42 -0.42)">
     <use xlink:href="#DejaVuSans-Bold-54"/>
     <use xlink:href="#DejaVuSans-Bold-48" transform="translate(68.212891 0)"/>
     <use xlink:href="#DejaVuSans-Bold-45" transform="translate(151.904297 0)"/>
     <use xlink:href="#DejaVuSans-Bold-20" transform="translate(220.214844 0)"/>
     <use xlink:href="#DejaVuSans-Bold-24" transform="translate(255.029297 0)"/>
     <use xlink:href="#DejaVuSans-Bold-31" transform="translate(324.609375 0)"/>
     <use xlink:href="#DejaVuSans-Bold-31" transform="translate(394.189453 0)"/>
     <use xlink:href="#DejaVuSans-Bold-39" transform="translate(463.769531 0)"/>
     <use xlink:href="#DejaVuSans-Bold-20" transform="translate(533.349609 0)"/>
     <use xlink:href="#DejaVuSans-Bold-54" transform="translate(568.164062 0)"/>
     <use xlink:href="#DejaVuSans-Bold-52" transform="translate(636.376953 0)"/>
     <use xlink:href="#DejaVuSans-Bold-49" transform="translate(713.378906 0)"/>
     <use xlink:href="#DejaVuSans-Bold-4c" transform="translate(750.585938 0)"/>
     <use xlink:href="#DejaVuSans-Bold-4c" transform="translate(814.306641 0)"/>
     <use xlink:href="#DejaVuSans-Bold-49" transform="translate(878.027344 0)"/>
     <use xlink:href="#DejaVuSans-Bold-4f" transform="translate(915.234375 0)"/>
     <use xlink:href="#DejaVuSans-Bold-4e" transform="translate(1000.244141 0)"/>
     <use xlink:href="#DejaVuSans-Bold-20" transform="translate(1083.935547 0)"/>
     <use xlink:href="#DejaVuSans-Bold-44" transform="translate(1118.75 0)"/>
     <use xlink:href="#DejaVuSans-Bold-45" transform="translate(1201.757812 0)"/>
     <use xlink:href="#DejaVuSans-Bold-41" transform="translate(1270.068359 0)"/>
     <use xlink:href="#DejaVuSans-Bold-54" transform="translate(1339.710938 0)"/>
     <use xlink:href="#DejaVuSans-Bold-48" transform="translate(1407.923828 0)"/>
     <use xlink:href="#DejaVuSans-Bold-20" transform="translate(1491.615234 0)"/>
     <use xlink:href="#DejaVuSans-Bold-54" transform="translate(1526.429688 0)"/>
     <use xlink:href="#DejaVuSans-Bold-4f" transform="translate(1594.642578 0)"/>
     <use xlink:href="#DejaVuSans-Bold-49" transform="translate(1679.652344 0)"/>
     <use xlink:href="#DejaVuSans-Bold-4c" transform="translate(1716.859375 0)"/>
     <use xlink:href="#DejaVuSans-Bold-45" transform="translate(1780.580078 0)"/>
     <use xlink:href="#DejaVuSans-Bold-54" transform="translate(1848.890625 0)"/>
    </g>
   </g>
  </g>
 </g>
 <defs>
  <clipPath id="p44f9c1010f">
   <rect x="91.098119" y="73.2" width="1050.101881" height="729.204"/>
  </clipPath>
 </defs>
</svg>
