<?xml version="1.0" encoding="utf-8" standalone="no"?>
<!DOCTYPE svg PUBLIC "-//W3C//DTD SVG 1.1//EN"
  "http://www.w3.org/Graphics/SVG/1.1/DTD/svg11.dtd">
<svg xmlns:xlink="http://www.w3.org/1999/xlink" width="1296pt" height="720pt" viewBox="0 0 1296 720" xmlns="http://www.w3.org/2000/svg" version="1.1">
 <metadata>
  <rdf:RDF xmlns:dc="http://purl.org/dc/elements/1.1/" xmlns:cc="http://creativecommons.org/ns#" xmlns:rdf="http://www.w3.org/1999/02/22-rdf-syntax-ns#">
   <cc:Work>
    <dc:type rdf:resource="http://purl.org/dc/dcmitype/StillImage"/>
    <dc:date>2025-10-04T13:24:05.970761</dc:date>
    <dc:format>image/svg+xml</dc:format>
    <dc:creator>
     <cc:Agent>
      <dc:title>Matplotlib v3.10.6, https://matplotlib.org/</dc:title>
     </cc:Agent>
    </dc:creator>
   </cc:Work>
  </rdf:RDF>
 </metadata>
 <defs>
  <style type="text/css">*{stroke-linejoin: round; stroke-linecap: butt}</style>
 </defs>
 <g id="figure_1">
  <g id="patch_1">
   <path d="M 0 720 
L 1296 720 
L 1296 0 
L 0 0 
z
"/>
  </g>
  <g id="axes_1">
   <g id="patch_2">
    <path d="M 138.67 667.24 
L 672.987625 667.24 
L 672.987625 78.32 
L 138.67 78.32 
z
"/>
   </g>
   <g id="patch_3">
    <path d="M 138.67 640.470909 
L 647.543929 640.470909 
L 647.543929 577.484813 
L 138.67 577.484813 
z
" clip-path="url(#p6a7192b74e)" style="fill: #ff0000; stroke: #ffffff; stroke-width: 3; stroke-linejoin: miter"/>
   </g>
   <g id="patch_4">
    <path d="M 138.67 561.738289 
L 574.847653 561.738289 
L 574.847653 498.752193 
L 138.67 498.752193 
z
" clip-path="url(#p6a7192b74e)" style="fill: #ff3333; stroke: #ffffff; stroke-width: 3; stroke-linejoin: miter"/>
   </g>
   <g id="patch_5">
    <path d="M 138.67 483.005668 
L 526.38347 483.005668 
L 526.38347 420.019572 
L 138.67 420.019572 
z
" clip-path="url(#p6a7192b74e)" style="fill: #ff4444; stroke: #ffffff; stroke-width: 3; stroke-linejoin: miter"/>
   </g>
   <g id="patch_6">
    <path d="M 138.67 404.273048 
L 502.151378 404.273048 
L 502.151378 341.286952 
L 138.67 341.286952 
z
" clip-path="url(#p6a7192b74e)" style="fill: #ff6666; stroke: #ffffff; stroke-width: 3; stroke-linejoin: miter"/>
   </g>
   <g id="patch_7">
    <path d="M 138.67 325.540428 
L 453.687194 325.540428 
L 453.687194 262.554332 
L 138.67 262.554332 
z
" clip-path="url(#p6a7192b74e)" style="fill: #ff8888; stroke: #ffffff; stroke-width: 3; stroke-linejoin: miter"/>
   </g>
   <g id="patch_8">
    <path d="M 138.67 246.807807 
L 356.758827 246.807807 
L 356.758827 183.821711 
L 138.67 183.821711 
z
" clip-path="url(#p6a7192b74e)" style="fill: #ffaaaa; stroke: #ffffff; stroke-width: 3; stroke-linejoin: miter"/>
   </g>
   <g id="patch_9">
    <path d="M 138.67 168.075187 
L 284.062551 168.075187 
L 284.062551 105.089091 
L 138.67 105.089091 
z
" clip-path="url(#p6a7192b74e)" style="fill: #ffcccc; stroke: #ffffff; stroke-width: 3; stroke-linejoin: miter"/>
   </g>
   <g id="matplotlib.axis_1">
    <g id="xtick_1">
     <g id="line2d_1">
      <defs>
       <path id="mfb186c4291" d="M 0 0 
L 0 3.5 
" style="stroke: #ffffff; stroke-width: 3"/>
      </defs>
      <g>
       <use xlink:href="#mfb186c4291" x="138.67" y="667.24" style="fill: #ffffff; stroke: #ffffff; stroke-width: 3"/>
      </g>
     </g>
     <g id="text_1">
      <!-- 0 -->
      <g style="fill: #ffffff" transform="translate(134.21625 684.877813) scale(0.14 -0.14)">
       <defs>
        <path id="DejaVuSans-30" d="M 2034 4250 
Q 1547 4250 1301 3770 
Q 1056 3291 1056 2328 
Q 1056 1369 1301 889 
Q 1547 409 2034 409 
Q 2525 409 2770 889 
Q 3016 1369 3016 2328 
Q 3016 3291 2770 3770 
Q 2525 4250 2034 4250 
z
M 2034 4750 
Q 2819 4750 3233 4129 
Q 3647 3509 3647 2328 
Q 3647 1150 3233 529 
Q 2819 -91 2034 -91 
Q 1250 -91 836 529 
Q 422 1150 422 2328 
Q 422 3509 836 4129 
Q 1250 4750 2034 4750 
z
" transform="scale(0.015625)"/>
       </defs>
       <use xlink:href="#DejaVuSans-30"/>
      </g>
     </g>
    </g>
    <g id="xtick_2">
     <g id="line2d_2">
      <g>
       <use xlink:href="#mfb186c4291" x="199.25023" y="667.24" style="fill: #ffffff; stroke: #ffffff; stroke-width: 3"/>
      </g>
     </g>
     <g id="text_2">
      <!-- 250 -->
      <g style="fill: #ffffff" transform="translate(185.88898 684.877813) scale(0.14 -0.14)">
       <defs>
        <path id="DejaVuSans-32" d="M 1228 531 
L 3431 531 
L 3431 0 
L 469 0 
L 469 531 
Q 828 903 1448 1529 
Q 2069 2156 2228 2338 
Q 2531 2678 2651 2914 
Q 2772 3150 2772 3378 
Q 2772 3750 2511 3984 
Q 2250 4219 1831 4219 
Q 1534 4219 1204 4116 
Q 875 4013 500 3803 
L 500 4441 
Q 881 4594 1212 4672 
Q 1544 4750 1819 4750 
Q 2544 4750 2975 4387 
Q 3406 4025 3406 3419 
Q 3406 3131 3298 2873 
Q 3191 2616 2906 2266 
Q 2828 2175 2409 1742 
Q 1991 1309 1228 531 
z
" transform="scale(0.015625)"/>
        <path id="DejaVuSans-35" d="M 691 4666 
L 3169 4666 
L 3169 4134 
L 1269 4134 
L 1269 2991 
Q 1406 3038 1543 3061 
Q 1681 3084 1819 3084 
Q 2600 3084 3056 2656 
Q 3513 2228 3513 1497 
Q 3513 744 3044 326 
Q 2575 -91 1722 -91 
Q 1428 -91 1123 -41 
Q 819 9 494 109 
L 494 744 
Q 775 591 1075 516 
Q 1375 441 1709 441 
Q 2250 441 2565 725 
Q 2881 1009 2881 1497 
Q 2881 1984 2565 2268 
Q 2250 2553 1709 2553 
Q 1456 2553 1204 2497 
Q 953 2441 691 2322 
L 691 4666 
z
" transform="scale(0.015625)"/>
       </defs>
       <use xlink:href="#DejaVuSans-32"/>
       <use xlink:href="#DejaVuSans-35" transform="translate(63.623047 0)"/>
       <use xlink:href="#DejaVuSans-30" transform="translate(127.246094 0)"/>
      </g>
     </g>
    </g>
    <g id="xtick_3">
     <g id="line2d_3">
      <g>
       <use xlink:href="#mfb186c4291" x="259.830459" y="667.24" style="fill: #ffffff; stroke: #ffffff; stroke-width: 3"/>
      </g>
     </g>
     <g id="text_3">
      <!-- 500 -->
      <g style="fill: #ffffff" transform="translate(246.469209 684.877813) scale(0.14 -0.14)">
       <use xlink:href="#DejaVuSans-35"/>
       <use xlink:href="#DejaVuSans-30" transform="translate(63.623047 0)"/>
       <use xlink:href="#DejaVuSans-30" transform="translate(127.246094 0)"/>
      </g>
     </g>
    </g>
    <g id="xtick_4">
     <g id="line2d_4">
      <g>
       <use xlink:href="#mfb186c4291" x="320.410689" y="667.24" style="fill: #ffffff; stroke: #ffffff; stroke-width: 3"/>
      </g>
     </g>
     <g id="text_4">
      <!-- 750 -->
      <g style="fill: #ffffff" transform="translate(307.049439 684.877813) scale(0.14 -0.14)">
       <defs>
        <path id="DejaVuSans-37" d="M 525 4666 
L 3525 4666 
L 3525 4397 
L 1831 0 
L 1172 0 
L 2766 4134 
L 525 4134 
L 525 4666 
z
" transform="scale(0.015625)"/>
       </defs>
       <use xlink:href="#DejaVuSans-37"/>
       <use xlink:href="#DejaVuSans-35" transform="translate(63.623047 0)"/>
       <use xlink:href="#DejaVuSans-30" transform="translate(127.246094 0)"/>
      </g>
     </g>
    </g>
    <g id="xtick_5">
     <g id="line2d_5">
      <g>
       <use xlink:href="#mfb186c4291" x="380.990918" y="667.24" style="fill: #ffffff; stroke: #ffffff; stroke-width: 3"/>
      </g>
     </g>
     <g id="text_5">
      <!-- 1000 -->
      <g style="fill: #ffffff" transform="translate(363.175918 684.877813) scale(0.14 -0.14)">
       <defs>
        <path id="DejaVuSans-31" d="M 794 531 
L 1825 531 
L 1825 4091 
L 703 3866 
L 703 4441 
L 1819 4666 
L 2450 4666 
L 2450 531 
L 3481 531 
L 3481 0 
L 794 0 
L 794 531 
z
" transform="scale(0.015625)"/>
       </defs>
       <use xlink:href="#DejaVuSans-31"/>
       <use xlink:href="#DejaVuSans-30" transform="translate(63.623047 0)"/>
       <use xlink:href="#DejaVuSans-30" transform="translate(127.246094 0)"/>
       <use xlink:href="#DejaVuSans-30" transform="translate(190.869141 0)"/>
      </g>
     </g>
    </g>
    <g id="xtick_6">
     <g id="line2d_6">
      <g>
       <use xlink:href="#mfb186c4291" x="441.571148" y="667.24" style="fill: #ffffff; stroke: #ffffff; stroke-width: 3"/>
      </g>
     </g>
     <g id="text_6">
      <!-- 1250 -->
      <g style="fill: #ffffff" transform="translate(423.756148 684.877813) scale(0.14 -0.14)">
       <use xlink:href="#DejaVuSans-31"/>
       <use xlink:href="#DejaVuSans-32" transform="translate(63.623047 0)"/>
       <use xlink:href="#DejaVuSans-35" transform="translate(127.246094 0)"/>
       <use xlink:href="#DejaVuSans-30" transform="translate(190.869141 0)"/>
      </g>
     </g>
    </g>
    <g id="xtick_7">
     <g id="line2d_7">
      <g>
       <use xlink:href="#mfb186c4291" x="502.151378" y="667.24" style="fill: #ffffff; stroke: #ffffff; stroke-width: 3"/>
      </g>
     </g>
     <g id="text_7">
      <!-- 1500 -->
      <g style="fill: #ffffff" transform="translate(484.336378 684.877813) scale(0.14 -0.14)">
       <use xlink:href="#DejaVuSans-31"/>
       <use xlink:href="#DejaVuSans-35" transform="translate(63.623047 0)"/>
       <use xlink:href="#DejaVuSans-30" transform="translate(127.246094 0)"/>
       <use xlink:href="#DejaVuSans-30" transform="translate(190.869141 0)"/>
      </g>
     </g>
    </g>
    <g id="xtick_8">
     <g id="line2d_8">
      <g>
       <use xlink:href="#mfb186c4291" x="562.731607" y="667.24" style="fill: #ffffff; stroke: #ffffff; stroke-width: 3"/>
      </g>
     </g>
     <g id="text_8">
      <!-- 1750 -->
      <g style="fill: #ffffff" transform="translate(544.916607 684.877813) scale(0.14 -0.14)">
       <use xlink:href="#DejaVuSans-31"/>
       <use xlink:href="#DejaVuSans-37" transform="translate(63.623047 0)"/>
       <use xlink:href="#DejaVuSans-35" transform="translate(127.246094 0)"/>
       <use xlink:href="#DejaVuSans-30" transform="translate(190.869141 0)"/>
      </g>
     </g>
    </g>
    <g id="xtick_9">
     <g id="line2d_9">
      <g>
       <use xlink:href="#mfb186c4291" x="623.311837" y="667.24" style="fill: #ffffff; stroke: #ffffff; stroke-width: 3"/>
      </g>
     </g>
     <g id="text_9">
      <!-- 2000 -->
      <g style="fill: #ffffff" transform="translate(605.496837 684.877813) scale(0.14 -0.14)">
       <use xlink:href="#DejaVuSans-32"/>
       <use xlink:href="#DejaVuSans-30" transform="translate(63.623047 0)"/>
       <use xlink:href="#DejaVuSans-30" transform="translate(127.246094 0)"/>
       <use xlink:href="#DejaVuSans-30" transform="translate(190.869141 0)"/>
      </g>
     </g>
    </g>
    <g id="text_10">
     <!-- COST (BILLIONS) -->
     <g style="fill: #ffffff" transform="translate(320.901156 705.466563) scale(0.18 -0.18)">
      <defs>
       <path id="DejaVuSans-Bold-43" d="M 4288 256 
Q 3956 84 3597 -3 
Q 3238 -91 2847 -91 
Q 1681 -91 1000 561 
Q 319 1213 319 2328 
Q 319 3447 1000 4098 
Q 1681 4750 2847 4750 
Q 3238 4750 3597 4662 
Q 3956 4575 4288 4403 
L 4288 3438 
Q 3953 3666 3628 3772 
Q 3303 3878 2944 3878 
Q 2300 3878 1931 3465 
Q 1563 3053 1563 2328 
Q 1563 1606 1931 1193 
Q 2300 781 2944 781 
Q 3303 781 3628 887 
Q 3953 994 4288 1222 
L 4288 256 
z
" transform="scale(0.015625)"/>
       <path id="DejaVuSans-Bold-4f" d="M 2719 3878 
Q 2169 3878 1866 3472 
Q 1563 3066 1563 2328 
Q 1563 1594 1866 1187 
Q 2169 781 2719 781 
Q 3272 781 3575 1187 
Q 3878 1594 3878 2328 
Q 3878 3066 3575 3472 
Q 3272 3878 2719 3878 
z
M 2719 4750 
Q 3844 4750 4481 4106 
Q 5119 3463 5119 2328 
Q 5119 1197 4481 553 
Q 3844 -91 2719 -91 
Q 1597 -91 958 553 
Q 319 1197 319 2328 
Q 319 3463 958 4106 
Q 1597 4750 2719 4750 
z
" transform="scale(0.015625)"/>
       <path id="DejaVuSans-Bold-53" d="M 3834 4519 
L 3834 3531 
Q 3450 3703 3084 3790 
Q 2719 3878 2394 3878 
Q 1963 3878 1756 3759 
Q 1550 3641 1550 3391 
Q 1550 3203 1689 3098 
Q 1828 2994 2194 2919 
L 2706 2816 
Q 3484 2659 3812 2340 
Q 4141 2022 4141 1434 
Q 4141 663 3683 286 
Q 3225 -91 2284 -91 
Q 1841 -91 1394 -6 
Q 947 78 500 244 
L 500 1259 
Q 947 1022 1364 901 
Q 1781 781 2169 781 
Q 2563 781 2772 912 
Q 2981 1044 2981 1288 
Q 2981 1506 2839 1625 
Q 2697 1744 2272 1838 
L 1806 1941 
Q 1106 2091 782 2419 
Q 459 2747 459 3303 
Q 459 4000 909 4375 
Q 1359 4750 2203 4750 
Q 2588 4750 2994 4692 
Q 3400 4634 3834 4519 
z
" transform="scale(0.015625)"/>
       <path id="DejaVuSans-Bold-54" d="M 31 4666 
L 4331 4666 
L 4331 3756 
L 2784 3756 
L 2784 0 
L 1581 0 
L 1581 3756 
L 31 3756 
L 31 4666 
z
" transform="scale(0.015625)"/>
       <path id="DejaVuSans-Bold-20" transform="scale(0.015625)"/>
       <path id="DejaVuSans-Bold-28" d="M 2413 -844 
L 1484 -844 
Q 1006 -72 778 623 
Q 550 1319 550 2003 
Q 550 2688 779 3389 
Q 1009 4091 1484 4856 
L 2413 4856 
Q 2013 4116 1813 3408 
Q 1613 2700 1613 2009 
Q 1613 1319 1811 609 
Q 2009 -100 2413 -844 
z
" transform="scale(0.015625)"/>
       <path id="DejaVuSans-Bold-42" d="M 2456 2859 
Q 2741 2859 2887 2984 
Q 3034 3109 3034 3353 
Q 3034 3594 2887 3720 
Q 2741 3847 2456 3847 
L 1791 3847 
L 1791 2859 
L 2456 2859 
z
M 2497 819 
Q 2859 819 3042 972 
Q 3225 1125 3225 1434 
Q 3225 1738 3044 1889 
Q 2863 2041 2497 2041 
L 1791 2041 
L 1791 819 
L 2497 819 
z
M 3616 2497 
Q 4003 2384 4215 2081 
Q 4428 1778 4428 1338 
Q 4428 663 3972 331 
Q 3516 0 2584 0 
L 588 0 
L 588 4666 
L 2394 4666 
Q 3366 4666 3802 4372 
Q 4238 4078 4238 3431 
Q 4238 3091 4078 2852 
Q 3919 2613 3616 2497 
z
" transform="scale(0.015625)"/>
       <path id="DejaVuSans-Bold-49" d="M 588 4666 
L 1791 4666 
L 1791 0 
L 588 0 
L 588 4666 
z
" transform="scale(0.015625)"/>
       <path id="DejaVuSans-Bold-4c" d="M 588 4666 
L 1791 4666 
L 1791 909 
L 3903 909 
L 3903 0 
L 588 0 
L 588 4666 
z
" transform="scale(0.015625)"/>
       <path id="DejaVuSans-Bold-4e" d="M 588 4666 
L 1931 4666 
L 3628 1466 
L 3628 4666 
L 4769 4666 
L 4769 0 
L 3425 0 
L 1728 3200 
L 1728 0 
L 588 0 
L 588 4666 
z
" transform="scale(0.015625)"/>
       <path id="DejaVuSans-Bold-29" d="M 513 -844 
Q 913 -100 1113 609 
Q 1313 1319 1313 2009 
Q 1313 2700 1113 3408 
Q 913 4116 513 4856 
L 1441 4856 
Q 1916 4091 2145 3389 
Q 2375 2688 2375 2003 
Q 2375 1319 2147 623 
Q 1919 -72 1441 -844 
L 513 -844 
z
" transform="scale(0.015625)"/>
      </defs>
      <use xlink:href="#DejaVuSans-Bold-43"/>
      <use xlink:href="#DejaVuSans-Bold-4f" transform="translate(73.388672 0)"/>
      <use xlink:href="#DejaVuSans-Bold-53" transform="translate(158.398438 0)"/>
      <use xlink:href="#DejaVuSans-Bold-54" transform="translate(230.419922 0)"/>
      <use xlink:href="#DejaVuSans-Bold-20" transform="translate(298.632812 0)"/>
      <use xlink:href="#DejaVuSans-Bold-28" transform="translate(333.447266 0)"/>
      <use xlink:href="#DejaVuSans-Bold-42" transform="translate(379.150391 0)"/>
      <use xlink:href="#DejaVuSans-Bold-49" transform="translate(455.371094 0)"/>
      <use xlink:href="#DejaVuSans-Bold-4c" transform="translate(492.578125 0)"/>
      <use xlink:href="#DejaVuSans-Bold-4c" transform="translate(556.298828 0)"/>
      <use xlink:href="#DejaVuSans-Bold-49" transform="translate(620.019531 0)"/>
      <use xlink:href="#DejaVuSans-Bold-4f" transform="translate(657.226562 0)"/>
      <use xlink:href="#DejaVuSans-Bold-4e" transform="translate(742.236328 0)"/>
      <use xlink:href="#DejaVuSans-Bold-53" transform="translate(825.927734 0)"/>
      <use xlink:href="#DejaVuSans-Bold-29" transform="translate(897.949219 0)"/>
     </g>
    </g>
   </g>
   <g id="matplotlib.axis_2">
    <g id="ytick_1">
     <g id="line2d_10">
      <defs>
       <path id="m72886b7850" d="M 0 0 
L -3.5 0 
" style="stroke: #ffffff; stroke-width: 3"/>
      </defs>
      <g>
       <use xlink:href="#m72886b7850" x="138.67" y="608.977861" style="fill: #ffffff; stroke: #ffffff; stroke-width: 3"/>
      </g>
     </g>
     <g id="text_11">
      <!-- Heart Disease -->
      <g style="fill: #ffffff" transform="translate(21.015313 614.296767) scale(0.14 -0.14)">
       <defs>
        <path id="DejaVuSans-Bold-48" d="M 588 4666 
L 1791 4666 
L 1791 2888 
L 3566 2888 
L 3566 4666 
L 4769 4666 
L 4769 0 
L 3566 0 
L 3566 1978 
L 1791 1978 
L 1791 0 
L 588 0 
L 588 4666 
z
" transform="scale(0.015625)"/>
        <path id="DejaVuSans-Bold-65" d="M 4031 1759 
L 4031 1441 
L 1416 1441 
Q 1456 1047 1700 850 
Q 1944 653 2381 653 
Q 2734 653 3104 758 
Q 3475 863 3866 1075 
L 3866 213 
Q 3469 63 3072 -14 
Q 2675 -91 2278 -91 
Q 1328 -91 801 392 
Q 275 875 275 1747 
Q 275 2603 792 3093 
Q 1309 3584 2216 3584 
Q 3041 3584 3536 3087 
Q 4031 2591 4031 1759 
z
M 2881 2131 
Q 2881 2450 2695 2645 
Q 2509 2841 2209 2841 
Q 1884 2841 1681 2658 
Q 1478 2475 1428 2131 
L 2881 2131 
z
" transform="scale(0.015625)"/>
        <path id="DejaVuSans-Bold-61" d="M 2106 1575 
Q 1756 1575 1579 1456 
Q 1403 1338 1403 1106 
Q 1403 894 1545 773 
Q 1688 653 1941 653 
Q 2256 653 2472 879 
Q 2688 1106 2688 1447 
L 2688 1575 
L 2106 1575 
z
M 3816 1997 
L 3816 0 
L 2688 0 
L 2688 519 
Q 2463 200 2181 54 
Q 1900 -91 1497 -91 
Q 953 -91 614 226 
Q 275 544 275 1050 
Q 275 1666 698 1953 
Q 1122 2241 2028 2241 
L 2688 2241 
L 2688 2328 
Q 2688 2594 2478 2717 
Q 2269 2841 1825 2841 
Q 1466 2841 1156 2769 
Q 847 2697 581 2553 
L 581 3406 
Q 941 3494 1303 3539 
Q 1666 3584 2028 3584 
Q 2975 3584 3395 3211 
Q 3816 2838 3816 1997 
z
" transform="scale(0.015625)"/>
        <path id="DejaVuSans-Bold-72" d="M 3138 2547 
Q 2991 2616 2845 2648 
Q 2700 2681 2553 2681 
Q 2122 2681 1889 2404 
Q 1656 2128 1656 1613 
L 1656 0 
L 538 0 
L 538 3500 
L 1656 3500 
L 1656 2925 
Q 1872 3269 2151 3426 
Q 2431 3584 2822 3584 
Q 2878 3584 2943 3579 
Q 3009 3575 3134 3559 
L 3138 2547 
z
" transform="scale(0.015625)"/>
        <path id="DejaVuSans-Bold-74" d="M 1759 4494 
L 1759 3500 
L 2913 3500 
L 2913 2700 
L 1759 2700 
L 1759 1216 
Q 1759 972 1856 886 
Q 1953 800 2241 800 
L 2816 800 
L 2816 0 
L 1856 0 
Q 1194 0 917 276 
Q 641 553 641 1216 
L 641 2700 
L 84 2700 
L 84 3500 
L 641 3500 
L 641 4494 
L 1759 4494 
z
" transform="scale(0.015625)"/>
        <path id="DejaVuSans-Bold-44" d="M 1791 3756 
L 1791 909 
L 2222 909 
Q 2959 909 3348 1275 
Q 3738 1641 3738 2338 
Q 3738 3031 3350 3393 
Q 2963 3756 2222 3756 
L 1791 3756 
z
M 588 4666 
L 1856 4666 
Q 2919 4666 3439 4514 
Q 3959 4363 4331 4000 
Q 4659 3684 4818 3271 
Q 4978 2859 4978 2338 
Q 4978 1809 4818 1395 
Q 4659 981 4331 666 
Q 3956 303 3431 151 
Q 2906 0 1856 0 
L 588 0 
L 588 4666 
z
" transform="scale(0.015625)"/>
        <path id="DejaVuSans-Bold-69" d="M 538 3500 
L 1656 3500 
L 1656 0 
L 538 0 
L 538 3500 
z
M 538 4863 
L 1656 4863 
L 1656 3950 
L 538 3950 
L 538 4863 
z
" transform="scale(0.015625)"/>
        <path id="DejaVuSans-Bold-73" d="M 3272 3391 
L 3272 2541 
Q 2913 2691 2578 2766 
Q 2244 2841 1947 2841 
Q 1628 2841 1473 2761 
Q 1319 2681 1319 2516 
Q 1319 2381 1436 2309 
Q 1553 2238 1856 2203 
L 2053 2175 
Q 2913 2066 3209 1816 
Q 3506 1566 3506 1031 
Q 3506 472 3093 190 
Q 2681 -91 1863 -91 
Q 1516 -91 1145 -36 
Q 775 19 384 128 
L 384 978 
Q 719 816 1070 734 
Q 1422 653 1784 653 
Q 2113 653 2278 743 
Q 2444 834 2444 1013 
Q 2444 1163 2330 1236 
Q 2216 1309 1875 1350 
L 1678 1375 
Q 931 1469 631 1722 
Q 331 1975 331 2491 
Q 331 3047 712 3315 
Q 1094 3584 1881 3584 
Q 2191 3584 2531 3537 
Q 2872 3491 3272 3391 
z
" transform="scale(0.015625)"/>
       </defs>
       <use xlink:href="#DejaVuSans-Bold-48"/>
       <use xlink:href="#DejaVuSans-Bold-65" transform="translate(83.691406 0)"/>
       <use xlink:href="#DejaVuSans-Bold-61" transform="translate(151.513672 0)"/>
       <use xlink:href="#DejaVuSans-Bold-72" transform="translate(218.994141 0)"/>
       <use xlink:href="#DejaVuSans-Bold-74" transform="translate(268.310547 0)"/>
       <use xlink:href="#DejaVuSans-Bold-20" transform="translate(316.113281 0)"/>
       <use xlink:href="#DejaVuSans-Bold-44" transform="translate(350.927734 0)"/>
       <use xlink:href="#DejaVuSans-Bold-69" transform="translate(433.935547 0)"/>
       <use xlink:href="#DejaVuSans-Bold-73" transform="translate(468.212891 0)"/>
       <use xlink:href="#DejaVuSans-Bold-65" transform="translate(527.734375 0)"/>
       <use xlink:href="#DejaVuSans-Bold-61" transform="translate(595.556641 0)"/>
       <use xlink:href="#DejaVuSans-Bold-73" transform="translate(663.037109 0)"/>
       <use xlink:href="#DejaVuSans-Bold-65" transform="translate(722.558594 0)"/>
      </g>
     </g>
    </g>
    <g id="ytick_2">
     <g id="line2d_11">
      <g>
       <use xlink:href="#m72886b7850" x="138.67" y="530.245241" style="fill: #ffffff; stroke: #ffffff; stroke-width: 3"/>
      </g>
     </g>
     <g id="text_12">
      <!-- Cancer -->
      <g style="fill: #ffffff" transform="translate(77.282188 535.564147) scale(0.14 -0.14)">
       <defs>
        <path id="DejaVuSans-Bold-6e" d="M 4056 2131 
L 4056 0 
L 2931 0 
L 2931 347 
L 2931 1631 
Q 2931 2084 2911 2256 
Q 2891 2428 2841 2509 
Q 2775 2619 2662 2680 
Q 2550 2741 2406 2741 
Q 2056 2741 1856 2470 
Q 1656 2200 1656 1722 
L 1656 0 
L 538 0 
L 538 3500 
L 1656 3500 
L 1656 2988 
Q 1909 3294 2193 3439 
Q 2478 3584 2822 3584 
Q 3428 3584 3742 3212 
Q 4056 2841 4056 2131 
z
" transform="scale(0.015625)"/>
        <path id="DejaVuSans-Bold-63" d="M 3366 3391 
L 3366 2478 
Q 3138 2634 2908 2709 
Q 2678 2784 2431 2784 
Q 1963 2784 1702 2511 
Q 1441 2238 1441 1747 
Q 1441 1256 1702 982 
Q 1963 709 2431 709 
Q 2694 709 2930 787 
Q 3166 866 3366 1019 
L 3366 103 
Q 3103 6 2833 -42 
Q 2563 -91 2291 -91 
Q 1344 -91 809 395 
Q 275 881 275 1747 
Q 275 2613 809 3098 
Q 1344 3584 2291 3584 
Q 2566 3584 2833 3536 
Q 3100 3488 3366 3391 
z
" transform="scale(0.015625)"/>
       </defs>
       <use xlink:href="#DejaVuSans-Bold-43"/>
       <use xlink:href="#DejaVuSans-Bold-61" transform="translate(73.388672 0)"/>
       <use xlink:href="#DejaVuSans-Bold-6e" transform="translate(140.869141 0)"/>
       <use xlink:href="#DejaVuSans-Bold-63" transform="translate(212.060547 0)"/>
       <use xlink:href="#DejaVuSans-Bold-65" transform="translate(271.337891 0)"/>
       <use xlink:href="#DejaVuSans-Bold-72" transform="translate(339.160156 0)"/>
      </g>
     </g>
    </g>
    <g id="ytick_3">
     <g id="line2d_12">
      <g>
       <use xlink:href="#m72886b7850" x="138.67" y="451.51262" style="fill: #ffffff; stroke: #ffffff; stroke-width: 3"/>
      </g>
     </g>
     <g id="text_13">
      <!-- Mental Illness -->
      <g style="fill: #ffffff" transform="translate(21.529375 456.831527) scale(0.14 -0.14)">
       <defs>
        <path id="DejaVuSans-Bold-4d" d="M 588 4666 
L 2119 4666 
L 3181 2169 
L 4250 4666 
L 5778 4666 
L 5778 0 
L 4641 0 
L 4641 3413 
L 3566 897 
L 2803 897 
L 1728 3413 
L 1728 0 
L 588 0 
L 588 4666 
z
" transform="scale(0.015625)"/>
        <path id="DejaVuSans-Bold-6c" d="M 538 4863 
L 1656 4863 
L 1656 0 
L 538 0 
L 538 4863 
z
" transform="scale(0.015625)"/>
       </defs>
       <use xlink:href="#DejaVuSans-Bold-4d"/>
       <use xlink:href="#DejaVuSans-Bold-65" transform="translate(99.511719 0)"/>
       <use xlink:href="#DejaVuSans-Bold-6e" transform="translate(167.333984 0)"/>
       <use xlink:href="#DejaVuSans-Bold-74" transform="translate(238.525391 0)"/>
       <use xlink:href="#DejaVuSans-Bold-61" transform="translate(286.328125 0)"/>
       <use xlink:href="#DejaVuSans-Bold-6c" transform="translate(353.808594 0)"/>
       <use xlink:href="#DejaVuSans-Bold-20" transform="translate(388.085938 0)"/>
       <use xlink:href="#DejaVuSans-Bold-49" transform="translate(422.900391 0)"/>
       <use xlink:href="#DejaVuSans-Bold-6c" transform="translate(460.107422 0)"/>
       <use xlink:href="#DejaVuSans-Bold-6c" transform="translate(494.384766 0)"/>
       <use xlink:href="#DejaVuSans-Bold-6e" transform="translate(528.662109 0)"/>
       <use xlink:href="#DejaVuSans-Bold-65" transform="translate(599.853516 0)"/>
       <use xlink:href="#DejaVuSans-Bold-73" transform="translate(667.675781 0)"/>
       <use xlink:href="#DejaVuSans-Bold-73" transform="translate(727.197266 0)"/>
      </g>
     </g>
    </g>
    <g id="ytick_4">
     <g id="line2d_13">
      <g>
       <use xlink:href="#m72886b7850" x="138.67" y="372.78" style="fill: #ffffff; stroke: #ffffff; stroke-width: 3"/>
      </g>
     </g>
     <g id="text_14">
      <!-- Diabetes -->
      <g style="fill: #ffffff" transform="translate(61.764063 378.098906) scale(0.14 -0.14)">
       <defs>
        <path id="DejaVuSans-Bold-62" d="M 2400 722 
Q 2759 722 2948 984 
Q 3138 1247 3138 1747 
Q 3138 2247 2948 2509 
Q 2759 2772 2400 2772 
Q 2041 2772 1848 2508 
Q 1656 2244 1656 1747 
Q 1656 1250 1848 986 
Q 2041 722 2400 722 
z
M 1656 2988 
Q 1888 3294 2169 3439 
Q 2450 3584 2816 3584 
Q 3463 3584 3878 3070 
Q 4294 2556 4294 1747 
Q 4294 938 3878 423 
Q 3463 -91 2816 -91 
Q 2450 -91 2169 54 
Q 1888 200 1656 506 
L 1656 0 
L 538 0 
L 538 4863 
L 1656 4863 
L 1656 2988 
z
" transform="scale(0.015625)"/>
       </defs>
       <use xlink:href="#DejaVuSans-Bold-44"/>
       <use xlink:href="#DejaVuSans-Bold-69" transform="translate(83.007812 0)"/>
       <use xlink:href="#DejaVuSans-Bold-61" transform="translate(117.285156 0)"/>
       <use xlink:href="#DejaVuSans-Bold-62" transform="translate(184.765625 0)"/>
       <use xlink:href="#DejaVuSans-Bold-65" transform="translate(256.347656 0)"/>
       <use xlink:href="#DejaVuSans-Bold-74" transform="translate(324.169922 0)"/>
       <use xlink:href="#DejaVuSans-Bold-65" transform="translate(371.972656 0)"/>
       <use xlink:href="#DejaVuSans-Bold-73" transform="translate(439.794922 0)"/>
      </g>
     </g>
    </g>
    <g id="ytick_5">
     <g id="line2d_14">
      <g>
       <use xlink:href="#m72886b7850" x="138.67" y="294.04738" style="fill: #ffffff; stroke: #ffffff; stroke-width: 3"/>
      </g>
     </g>
     <g id="text_15">
      <!-- Alzheimer's -->
      <g style="fill: #ffffff" transform="translate(40.020313 299.366286) scale(0.14 -0.14)">
       <defs>
        <path id="DejaVuSans-Bold-41" d="M 3419 850 
L 1538 850 
L 1241 0 
L 31 0 
L 1759 4666 
L 3194 4666 
L 4922 0 
L 3713 0 
L 3419 850 
z
M 1838 1716 
L 3116 1716 
L 2478 3572 
L 1838 1716 
z
" transform="scale(0.015625)"/>
        <path id="DejaVuSans-Bold-7a" d="M 366 3500 
L 3419 3500 
L 3419 2719 
L 1575 800 
L 3419 800 
L 3419 0 
L 288 0 
L 288 781 
L 2131 2700 
L 366 2700 
L 366 3500 
z
" transform="scale(0.015625)"/>
        <path id="DejaVuSans-Bold-68" d="M 4056 2131 
L 4056 0 
L 2931 0 
L 2931 347 
L 2931 1625 
Q 2931 2084 2911 2256 
Q 2891 2428 2841 2509 
Q 2775 2619 2662 2680 
Q 2550 2741 2406 2741 
Q 2056 2741 1856 2470 
Q 1656 2200 1656 1722 
L 1656 0 
L 538 0 
L 538 4863 
L 1656 4863 
L 1656 2988 
Q 1909 3294 2193 3439 
Q 2478 3584 2822 3584 
Q 3428 3584 3742 3212 
Q 4056 2841 4056 2131 
z
" transform="scale(0.015625)"/>
        <path id="DejaVuSans-Bold-6d" d="M 3781 2919 
Q 3994 3244 4286 3414 
Q 4578 3584 4928 3584 
Q 5531 3584 5847 3212 
Q 6163 2841 6163 2131 
L 6163 0 
L 5038 0 
L 5038 1825 
Q 5041 1866 5042 1909 
Q 5044 1953 5044 2034 
Q 5044 2406 4934 2573 
Q 4825 2741 4581 2741 
Q 4263 2741 4089 2478 
Q 3916 2216 3909 1719 
L 3909 0 
L 2784 0 
L 2784 1825 
Q 2784 2406 2684 2573 
Q 2584 2741 2328 2741 
Q 2006 2741 1831 2477 
Q 1656 2213 1656 1722 
L 1656 0 
L 531 0 
L 531 3500 
L 1656 3500 
L 1656 2988 
Q 1863 3284 2130 3434 
Q 2397 3584 2719 3584 
Q 3081 3584 3359 3409 
Q 3638 3234 3781 2919 
z
" transform="scale(0.015625)"/>
        <path id="DejaVuSans-Bold-27" d="M 1350 4666 
L 1350 2931 
L 609 2931 
L 609 4666 
L 1350 4666 
z
" transform="scale(0.015625)"/>
       </defs>
       <use xlink:href="#DejaVuSans-Bold-41"/>
       <use xlink:href="#DejaVuSans-Bold-6c" transform="translate(77.392578 0)"/>
       <use xlink:href="#DejaVuSans-Bold-7a" transform="translate(111.669922 0)"/>
       <use xlink:href="#DejaVuSans-Bold-68" transform="translate(169.873047 0)"/>
       <use xlink:href="#DejaVuSans-Bold-65" transform="translate(241.064453 0)"/>
       <use xlink:href="#DejaVuSans-Bold-69" transform="translate(308.886719 0)"/>
       <use xlink:href="#DejaVuSans-Bold-6d" transform="translate(343.164062 0)"/>
       <use xlink:href="#DejaVuSans-Bold-65" transform="translate(447.363281 0)"/>
       <use xlink:href="#DejaVuSans-Bold-72" transform="translate(515.185547 0)"/>
       <use xlink:href="#DejaVuSans-Bold-27" transform="translate(564.501953 0)"/>
       <use xlink:href="#DejaVuSans-Bold-73" transform="translate(595.117188 0)"/>
      </g>
     </g>
    </g>
    <g id="ytick_6">
     <g id="line2d_15">
      <g>
       <use xlink:href="#m72886b7850" x="138.67" y="215.314759" style="fill: #ffffff; stroke: #ffffff; stroke-width: 3"/>
      </g>
     </g>
     <g id="text_16">
      <!-- Respiratory -->
      <g style="fill: #ffffff" transform="translate(39.55 220.633666) scale(0.14 -0.14)">
       <defs>
        <path id="DejaVuSans-Bold-52" d="M 2297 2597 
Q 2675 2597 2839 2737 
Q 3003 2878 3003 3200 
Q 3003 3519 2839 3656 
Q 2675 3794 2297 3794 
L 1791 3794 
L 1791 2597 
L 2297 2597 
z
M 1791 1766 
L 1791 0 
L 588 0 
L 588 4666 
L 2425 4666 
Q 3347 4666 3776 4356 
Q 4206 4047 4206 3378 
Q 4206 2916 3982 2619 
Q 3759 2322 3309 2181 
Q 3556 2125 3751 1926 
Q 3947 1728 4147 1325 
L 4800 0 
L 3519 0 
L 2950 1159 
Q 2778 1509 2601 1637 
Q 2425 1766 2131 1766 
L 1791 1766 
z
" transform="scale(0.015625)"/>
        <path id="DejaVuSans-Bold-70" d="M 1656 506 
L 1656 -1331 
L 538 -1331 
L 538 3500 
L 1656 3500 
L 1656 2988 
Q 1888 3294 2169 3439 
Q 2450 3584 2816 3584 
Q 3463 3584 3878 3070 
Q 4294 2556 4294 1747 
Q 4294 938 3878 423 
Q 3463 -91 2816 -91 
Q 2450 -91 2169 54 
Q 1888 200 1656 506 
z
M 2400 2772 
Q 2041 2772 1848 2508 
Q 1656 2244 1656 1747 
Q 1656 1250 1848 986 
Q 2041 722 2400 722 
Q 2759 722 2948 984 
Q 3138 1247 3138 1747 
Q 3138 2247 2948 2509 
Q 2759 2772 2400 2772 
z
" transform="scale(0.015625)"/>
        <path id="DejaVuSans-Bold-6f" d="M 2203 2784 
Q 1831 2784 1636 2517 
Q 1441 2250 1441 1747 
Q 1441 1244 1636 976 
Q 1831 709 2203 709 
Q 2569 709 2762 976 
Q 2956 1244 2956 1747 
Q 2956 2250 2762 2517 
Q 2569 2784 2203 2784 
z
M 2203 3584 
Q 3106 3584 3614 3096 
Q 4122 2609 4122 1747 
Q 4122 884 3614 396 
Q 3106 -91 2203 -91 
Q 1297 -91 786 396 
Q 275 884 275 1747 
Q 275 2609 786 3096 
Q 1297 3584 2203 3584 
z
" transform="scale(0.015625)"/>
        <path id="DejaVuSans-Bold-79" d="M 78 3500 
L 1197 3500 
L 2138 1125 
L 2938 3500 
L 4056 3500 
L 2584 -331 
Q 2363 -916 2067 -1148 
Q 1772 -1381 1288 -1381 
L 641 -1381 
L 641 -647 
L 991 -647 
Q 1275 -647 1404 -556 
Q 1534 -466 1606 -231 
L 1638 -134 
L 78 3500 
z
" transform="scale(0.015625)"/>
       </defs>
       <use xlink:href="#DejaVuSans-Bold-52"/>
       <use xlink:href="#DejaVuSans-Bold-65" transform="translate(77.001953 0)"/>
       <use xlink:href="#DejaVuSans-Bold-73" transform="translate(144.824219 0)"/>
       <use xlink:href="#DejaVuSans-Bold-70" transform="translate(204.345703 0)"/>
       <use xlink:href="#DejaVuSans-Bold-69" transform="translate(275.927734 0)"/>
       <use xlink:href="#DejaVuSans-Bold-72" transform="translate(310.205078 0)"/>
       <use xlink:href="#DejaVuSans-Bold-61" transform="translate(359.521484 0)"/>
       <use xlink:href="#DejaVuSans-Bold-74" transform="translate(427.001953 0)"/>
       <use xlink:href="#DejaVuSans-Bold-6f" transform="translate(474.804688 0)"/>
       <use xlink:href="#DejaVuSans-Bold-72" transform="translate(543.505859 0)"/>
       <use xlink:href="#DejaVuSans-Bold-79" transform="translate(592.822266 0)"/>
      </g>
     </g>
    </g>
    <g id="ytick_7">
     <g id="line2d_16">
      <g>
       <use xlink:href="#m72886b7850" x="138.67" y="136.582139" style="fill: #ffffff; stroke: #ffffff; stroke-width: 3"/>
      </g>
     </g>
     <g id="text_17">
      <!-- Kidney Disease -->
      <g style="fill: #ffffff" transform="translate(11.014063 141.901045) scale(0.14 -0.14)">
       <defs>
        <path id="DejaVuSans-Bold-4b" d="M 588 4666 
L 1791 4666 
L 1791 2963 
L 3525 4666 
L 4922 4666 
L 2675 2456 
L 5153 0 
L 3647 0 
L 1791 1838 
L 1791 0 
L 588 0 
L 588 4666 
z
" transform="scale(0.015625)"/>
        <path id="DejaVuSans-Bold-64" d="M 2919 2988 
L 2919 4863 
L 4044 4863 
L 4044 0 
L 2919 0 
L 2919 506 
Q 2688 197 2409 53 
Q 2131 -91 1766 -91 
Q 1119 -91 703 423 
Q 288 938 288 1747 
Q 288 2556 703 3070 
Q 1119 3584 1766 3584 
Q 2128 3584 2408 3439 
Q 2688 3294 2919 2988 
z
M 2181 722 
Q 2541 722 2730 984 
Q 2919 1247 2919 1747 
Q 2919 2247 2730 2509 
Q 2541 2772 2181 2772 
Q 1825 2772 1636 2509 
Q 1447 2247 1447 1747 
Q 1447 1247 1636 984 
Q 1825 722 2181 722 
z
" transform="scale(0.015625)"/>
       </defs>
       <use xlink:href="#DejaVuSans-Bold-4b"/>
       <use xlink:href="#DejaVuSans-Bold-69" transform="translate(77.490234 0)"/>
       <use xlink:href="#DejaVuSans-Bold-64" transform="translate(111.767578 0)"/>
       <use xlink:href="#DejaVuSans-Bold-6e" transform="translate(183.349609 0)"/>
       <use xlink:href="#DejaVuSans-Bold-65" transform="translate(254.541016 0)"/>
       <use xlink:href="#DejaVuSans-Bold-79" transform="translate(322.363281 0)"/>
       <use xlink:href="#DejaVuSans-Bold-20" transform="translate(387.548828 0)"/>
       <use xlink:href="#DejaVuSans-Bold-44" transform="translate(422.363281 0)"/>
       <use xlink:href="#DejaVuSans-Bold-69" transform="translate(505.371094 0)"/>
       <use xlink:href="#DejaVuSans-Bold-73" transform="translate(539.648438 0)"/>
       <use xlink:href="#DejaVuSans-Bold-65" transform="translate(599.169922 0)"/>
       <use xlink:href="#DejaVuSans-Bold-61" transform="translate(666.992188 0)"/>
       <use xlink:href="#DejaVuSans-Bold-73" transform="translate(734.472656 0)"/>
       <use xlink:href="#DejaVuSans-Bold-65" transform="translate(793.994141 0)"/>
      </g>
     </g>
    </g>
   </g>
   <g id="patch_10">
    <path d="M 138.67 667.24 
L 138.67 78.32 
" style="fill: none; stroke: #ffffff; stroke-width: 3; stroke-linejoin: miter; stroke-linecap: square"/>
   </g>
   <g id="patch_11">
    <path d="M 672.987625 667.24 
L 672.987625 78.32 
" style="fill: none; stroke: #ffffff; stroke-width: 3; stroke-linejoin: miter; stroke-linecap: square"/>
   </g>
   <g id="patch_12">
    <path d="M 138.67 667.24 
L 672.987625 667.24 
" style="fill: none; stroke: #ffffff; stroke-width: 3; stroke-linejoin: miter; stroke-linecap: square"/>
   </g>
   <g id="patch_13">
    <path d="M 138.67 78.32 
L 672.987625 78.32 
" style="fill: none; stroke: #ffffff; stroke-width: 3; stroke-linejoin: miter; stroke-linecap: square"/>
   </g>
   <g id="text_18">
    <!-- $2100B -->
    <g style="fill: #ffffff" transform="translate(671.776021 613.392861) scale(0.16 -0.16)">
     <defs>
      <path id="DejaVuSans-Bold-24" d="M 2484 -941 
L 1978 -941 
L 1975 0 
Q 1584 16 1218 87 
Q 853 159 506 288 
L 506 1106 
Q 866 922 1233 823 
Q 1600 725 1978 713 
L 1978 1684 
L 1875 1703 
Q 1128 1834 814 2115 
Q 500 2397 500 2925 
Q 500 3484 883 3798 
Q 1266 4113 1975 4141 
L 1978 4863 
L 2484 4863 
L 2484 4153 
Q 2797 4128 3109 4075 
Q 3422 4022 3738 3938 
L 3738 3144 
Q 3425 3275 3112 3348 
Q 2800 3422 2484 3438 
L 2484 2541 
L 2584 2522 
Q 3378 2397 3698 2105 
Q 4019 1813 4019 1241 
Q 4019 666 3637 358 
Q 3256 50 2484 6 
L 2484 -941 
z
M 1978 2613 
L 1978 3428 
Q 1756 3416 1623 3308 
Q 1491 3200 1491 3034 
Q 1491 2850 1612 2745 
Q 1734 2641 1978 2613 
z
M 2484 1594 
L 2484 725 
Q 2756 728 2892 831 
Q 3028 934 3028 1141 
Q 3028 1353 2903 1458 
Q 2778 1563 2484 1594 
z
" transform="scale(0.015625)"/>
      <path id="DejaVuSans-Bold-32" d="M 1844 884 
L 3897 884 
L 3897 0 
L 506 0 
L 506 884 
L 2209 2388 
Q 2438 2594 2547 2791 
Q 2656 2988 2656 3200 
Q 2656 3528 2436 3728 
Q 2216 3928 1850 3928 
Q 1569 3928 1234 3808 
Q 900 3688 519 3450 
L 519 4475 
Q 925 4609 1322 4679 
Q 1719 4750 2100 4750 
Q 2938 4750 3402 4381 
Q 3866 4013 3866 3353 
Q 3866 2972 3669 2642 
Q 3472 2313 2841 1759 
L 1844 884 
z
" transform="scale(0.015625)"/>
      <path id="DejaVuSans-Bold-31" d="M 750 831 
L 1813 831 
L 1813 3847 
L 722 3622 
L 722 4441 
L 1806 4666 
L 2950 4666 
L 2950 831 
L 4013 831 
L 4013 0 
L 750 0 
L 750 831 
z
" transform="scale(0.015625)"/>
      <path id="DejaVuSans-Bold-30" d="M 2944 2338 
Q 2944 3213 2780 3570 
Q 2616 3928 2228 3928 
Q 1841 3928 1675 3570 
Q 1509 3213 1509 2338 
Q 1509 1453 1675 1090 
Q 1841 728 2228 728 
Q 2613 728 2778 1090 
Q 2944 1453 2944 2338 
z
M 4147 2328 
Q 4147 1169 3647 539 
Q 3147 -91 2228 -91 
Q 1306 -91 806 539 
Q 306 1169 306 2328 
Q 306 3491 806 4120 
Q 1306 4750 2228 4750 
Q 3147 4750 3647 4120 
Q 4147 3491 4147 2328 
z
" transform="scale(0.015625)"/>
     </defs>
     <use xlink:href="#DejaVuSans-Bold-24"/>
     <use xlink:href="#DejaVuSans-Bold-32" transform="translate(69.580078 0)"/>
     <use xlink:href="#DejaVuSans-Bold-31" transform="translate(139.160156 0)"/>
     <use xlink:href="#DejaVuSans-Bold-30" transform="translate(208.740234 0)"/>
     <use xlink:href="#DejaVuSans-Bold-30" transform="translate(278.320312 0)"/>
     <use xlink:href="#DejaVuSans-Bold-42" transform="translate(347.900391 0)"/>
    </g>
   </g>
   <g id="text_19">
    <!-- $1800B -->
    <g style="fill: #ffffff" transform="translate(599.079745 534.660241) scale(0.16 -0.16)">
     <defs>
      <path id="DejaVuSans-Bold-38" d="M 2228 2088 
Q 1891 2088 1709 1903 
Q 1528 1719 1528 1375 
Q 1528 1031 1709 848 
Q 1891 666 2228 666 
Q 2563 666 2741 848 
Q 2919 1031 2919 1375 
Q 2919 1722 2741 1905 
Q 2563 2088 2228 2088 
z
M 1350 2484 
Q 925 2613 709 2878 
Q 494 3144 494 3541 
Q 494 4131 934 4440 
Q 1375 4750 2228 4750 
Q 3075 4750 3515 4442 
Q 3956 4134 3956 3541 
Q 3956 3144 3739 2878 
Q 3522 2613 3097 2484 
Q 3572 2353 3814 2058 
Q 4056 1763 4056 1313 
Q 4056 619 3595 264 
Q 3134 -91 2228 -91 
Q 1319 -91 855 264 
Q 391 619 391 1313 
Q 391 1763 633 2058 
Q 875 2353 1350 2484 
z
M 1631 3419 
Q 1631 3141 1786 2991 
Q 1941 2841 2228 2841 
Q 2509 2841 2662 2991 
Q 2816 3141 2816 3419 
Q 2816 3697 2662 3845 
Q 2509 3994 2228 3994 
Q 1941 3994 1786 3844 
Q 1631 3694 1631 3419 
z
" transform="scale(0.015625)"/>
     </defs>
     <use xlink:href="#DejaVuSans-Bold-24"/>
     <use xlink:href="#DejaVuSans-Bold-31" transform="translate(69.580078 0)"/>
     <use xlink:href="#DejaVuSans-Bold-38" transform="translate(139.160156 0)"/>
     <use xlink:href="#DejaVuSans-Bold-30" transform="translate(208.740234 0)"/>
     <use xlink:href="#DejaVuSans-Bold-30" transform="translate(278.320312 0)"/>
     <use xlink:href="#DejaVuSans-Bold-42" transform="translate(347.900391 0)"/>
    </g>
   </g>
   <g id="text_20">
    <!-- $1600B -->
    <g style="fill: #ffffff" transform="translate(550.615561 455.92762) scale(0.16 -0.16)">
     <defs>
      <path id="DejaVuSans-Bold-36" d="M 2316 2303 
Q 2000 2303 1842 2098 
Q 1684 1894 1684 1484 
Q 1684 1075 1842 870 
Q 2000 666 2316 666 
Q 2634 666 2792 870 
Q 2950 1075 2950 1484 
Q 2950 1894 2792 2098 
Q 2634 2303 2316 2303 
z
M 3803 4544 
L 3803 3681 
Q 3506 3822 3243 3889 
Q 2981 3956 2731 3956 
Q 2194 3956 1894 3657 
Q 1594 3359 1544 2772 
Q 1750 2925 1990 3001 
Q 2231 3078 2516 3078 
Q 3231 3078 3670 2659 
Q 4109 2241 4109 1563 
Q 4109 813 3618 361 
Q 3128 -91 2303 -91 
Q 1394 -91 895 523 
Q 397 1138 397 2266 
Q 397 3422 980 4083 
Q 1563 4744 2578 4744 
Q 2900 4744 3203 4694 
Q 3506 4644 3803 4544 
z
" transform="scale(0.015625)"/>
     </defs>
     <use xlink:href="#DejaVuSans-Bold-24"/>
     <use xlink:href="#DejaVuSans-Bold-31" transform="translate(69.580078 0)"/>
     <use xlink:href="#DejaVuSans-Bold-36" transform="translate(139.160156 0)"/>
     <use xlink:href="#DejaVuSans-Bold-30" transform="translate(208.740234 0)"/>
     <use xlink:href="#DejaVuSans-Bold-30" transform="translate(278.320312 0)"/>
     <use xlink:href="#DejaVuSans-Bold-42" transform="translate(347.900391 0)"/>
    </g>
   </g>
   <g id="text_21">
    <!-- $1500B -->
    <g style="fill: #ffffff" transform="translate(526.38347 377.195) scale(0.16 -0.16)">
     <defs>
      <path id="DejaVuSans-Bold-35" d="M 678 4666 
L 3669 4666 
L 3669 3781 
L 1638 3781 
L 1638 3059 
Q 1775 3097 1914 3117 
Q 2053 3138 2203 3138 
Q 3056 3138 3531 2711 
Q 4006 2284 4006 1522 
Q 4006 766 3489 337 
Q 2972 -91 2053 -91 
Q 1656 -91 1267 -14 
Q 878 63 494 219 
L 494 1166 
Q 875 947 1217 837 
Q 1559 728 1863 728 
Q 2300 728 2551 942 
Q 2803 1156 2803 1522 
Q 2803 1891 2551 2103 
Q 2300 2316 1863 2316 
Q 1603 2316 1309 2248 
Q 1016 2181 678 2041 
L 678 4666 
z
" transform="scale(0.015625)"/>
     </defs>
     <use xlink:href="#DejaVuSans-Bold-24"/>
     <use xlink:href="#DejaVuSans-Bold-31" transform="translate(69.580078 0)"/>
     <use xlink:href="#DejaVuSans-Bold-35" transform="translate(139.160156 0)"/>
     <use xlink:href="#DejaVuSans-Bold-30" transform="translate(208.740234 0)"/>
     <use xlink:href="#DejaVuSans-Bold-30" transform="translate(278.320312 0)"/>
     <use xlink:href="#DejaVuSans-Bold-42" transform="translate(347.900391 0)"/>
    </g>
   </g>
   <g id="text_22">
    <!-- $1300B -->
    <g style="fill: #ffffff" transform="translate(477.919286 298.46238) scale(0.16 -0.16)">
     <defs>
      <path id="DejaVuSans-Bold-33" d="M 2981 2516 
Q 3453 2394 3698 2092 
Q 3944 1791 3944 1325 
Q 3944 631 3412 270 
Q 2881 -91 1863 -91 
Q 1503 -91 1142 -33 
Q 781 25 428 141 
L 428 1069 
Q 766 900 1098 814 
Q 1431 728 1753 728 
Q 2231 728 2486 893 
Q 2741 1059 2741 1369 
Q 2741 1688 2480 1852 
Q 2219 2016 1709 2016 
L 1228 2016 
L 1228 2791 
L 1734 2791 
Q 2188 2791 2409 2933 
Q 2631 3075 2631 3366 
Q 2631 3634 2415 3781 
Q 2200 3928 1806 3928 
Q 1516 3928 1219 3862 
Q 922 3797 628 3669 
L 628 4550 
Q 984 4650 1334 4700 
Q 1684 4750 2022 4750 
Q 2931 4750 3382 4451 
Q 3834 4153 3834 3553 
Q 3834 3144 3618 2883 
Q 3403 2622 2981 2516 
z
" transform="scale(0.015625)"/>
     </defs>
     <use xlink:href="#DejaVuSans-Bold-24"/>
     <use xlink:href="#DejaVuSans-Bold-31" transform="translate(69.580078 0)"/>
     <use xlink:href="#DejaVuSans-Bold-33" transform="translate(139.160156 0)"/>
     <use xlink:href="#DejaVuSans-Bold-30" transform="translate(208.740234 0)"/>
     <use xlink:href="#DejaVuSans-Bold-30" transform="translate(278.320312 0)"/>
     <use xlink:href="#DejaVuSans-Bold-42" transform="translate(347.900391 0)"/>
    </g>
   </g>
   <g id="text_23">
    <!-- $900B -->
    <g style="fill: #ffffff" transform="translate(380.990918 219.729759) scale(0.16 -0.16)">
     <defs>
      <path id="DejaVuSans-Bold-39" d="M 641 103 
L 641 966 
Q 928 831 1190 764 
Q 1453 697 1709 697 
Q 2247 697 2547 995 
Q 2847 1294 2900 1881 
Q 2688 1725 2447 1647 
Q 2206 1569 1925 1569 
Q 1209 1569 770 1986 
Q 331 2403 331 3084 
Q 331 3838 820 4291 
Q 1309 4744 2131 4744 
Q 3044 4744 3544 4128 
Q 4044 3513 4044 2388 
Q 4044 1231 3459 570 
Q 2875 -91 1856 -91 
Q 1528 -91 1228 -42 
Q 928 6 641 103 
z
M 2125 2350 
Q 2441 2350 2600 2554 
Q 2759 2759 2759 3169 
Q 2759 3575 2600 3781 
Q 2441 3988 2125 3988 
Q 1809 3988 1650 3781 
Q 1491 3575 1491 3169 
Q 1491 2759 1650 2554 
Q 1809 2350 2125 2350 
z
" transform="scale(0.015625)"/>
     </defs>
     <use xlink:href="#DejaVuSans-Bold-24"/>
     <use xlink:href="#DejaVuSans-Bold-39" transform="translate(69.580078 0)"/>
     <use xlink:href="#DejaVuSans-Bold-30" transform="translate(139.160156 0)"/>
     <use xlink:href="#DejaVuSans-Bold-30" transform="translate(208.740234 0)"/>
     <use xlink:href="#DejaVuSans-Bold-42" transform="translate(278.320312 0)"/>
    </g>
   </g>
   <g id="text_24">
    <!-- $600B -->
    <g style="fill: #ffffff" transform="translate(308.294643 140.997139) scale(0.16 -0.16)">
     <use xlink:href="#DejaVuSans-Bold-24"/>
     <use xlink:href="#DejaVuSans-Bold-36" transform="translate(69.580078 0)"/>
     <use xlink:href="#DejaVuSans-Bold-30" transform="translate(139.160156 0)"/>
     <use xlink:href="#DejaVuSans-Bold-30" transform="translate(208.740234 0)"/>
     <use xlink:href="#DejaVuSans-Bold-42" transform="translate(278.320312 0)"/>
    </g>
   </g>
   <g id="text_25">
    <!-- MAJOR DISEASE COSTS -->
    <g style="fill: #ffffff" transform="translate(250.468188 58.32) scale(0.24 -0.24)">
     <defs>
      <path id="DejaVuSans-Bold-4a" d="M 588 4666 
L 1791 4666 
L 1791 453 
Q 1791 -419 1317 -850 
Q 844 -1281 -116 -1281 
L -359 -1281 
L -359 -372 
L -172 -372 
Q 203 -372 395 -162 
Q 588 47 588 453 
L 588 4666 
z
" transform="scale(0.015625)"/>
      <path id="DejaVuSans-Bold-45" d="M 588 4666 
L 3834 4666 
L 3834 3756 
L 1791 3756 
L 1791 2888 
L 3713 2888 
L 3713 1978 
L 1791 1978 
L 1791 909 
L 3903 909 
L 3903 0 
L 588 0 
L 588 4666 
z
" transform="scale(0.015625)"/>
     </defs>
     <use xlink:href="#DejaVuSans-Bold-4d"/>
     <use xlink:href="#DejaVuSans-Bold-41" transform="translate(99.511719 0)"/>
     <use xlink:href="#DejaVuSans-Bold-4a" transform="translate(176.904297 0)"/>
     <use xlink:href="#DejaVuSans-Bold-4f" transform="translate(214.111328 0)"/>
     <use xlink:href="#DejaVuSans-Bold-52" transform="translate(299.121094 0)"/>
     <use xlink:href="#DejaVuSans-Bold-20" transform="translate(376.123047 0)"/>
     <use xlink:href="#DejaVuSans-Bold-44" transform="translate(410.9375 0)"/>
     <use xlink:href="#DejaVuSans-Bold-49" transform="translate(493.945312 0)"/>
     <use xlink:href="#DejaVuSans-Bold-53" transform="translate(531.152344 0)"/>
     <use xlink:href="#DejaVuSans-Bold-45" transform="translate(603.173828 0)"/>
     <use xlink:href="#DejaVuSans-Bold-41" transform="translate(671.484375 0)"/>
     <use xlink:href="#DejaVuSans-Bold-53" transform="translate(748.876953 0)"/>
     <use xlink:href="#DejaVuSans-Bold-45" transform="translate(820.898438 0)"/>
     <use xlink:href="#DejaVuSans-Bold-20" transform="translate(889.208984 0)"/>
     <use xlink:href="#DejaVuSans-Bold-43" transform="translate(924.023438 0)"/>
     <use xlink:href="#DejaVuSans-Bold-4f" transform="translate(997.412109 0)"/>
     <use xlink:href="#DejaVuSans-Bold-53" transform="translate(1082.421875 0)"/>
     <use xlink:href="#DejaVuSans-Bold-54" transform="translate(1154.443359 0)"/>
     <use xlink:href="#DejaVuSans-Bold-53" transform="translate(1222.65625 0)"/>
    </g>
   </g>
  </g>
  <g id="axes_2">
   <g id="text_26">
    <g id="patch_14">
     <path d="M 837.091187 127.589125 
L 1198.991187 127.589125 
L 1198.991187 72.490375 
L 837.091187 72.490375 
z
" style="fill: #ff0000; stroke: #ffff00; stroke-width: 4; stroke-linejoin: miter"/>
    </g>
    <!-- DISEASE ECONOMICS -->
    <g style="fill: #ffff00" transform="translate(851.091187 107.766) scale(0.28 -0.28)">
     <use xlink:href="#DejaVuSans-Bold-44"/>
     <use xlink:href="#DejaVuSans-Bold-49" transform="translate(83.007812 0)"/>
     <use xlink:href="#DejaVuSans-Bold-53" transform="translate(120.214844 0)"/>
     <use xlink:href="#DejaVuSans-Bold-45" transform="translate(192.236328 0)"/>
     <use xlink:href="#DejaVuSans-Bold-41" transform="translate(260.546875 0)"/>
     <use xlink:href="#DejaVuSans-Bold-53" transform="translate(337.939453 0)"/>
     <use xlink:href="#DejaVuSans-Bold-45" transform="translate(409.960938 0)"/>
     <use xlink:href="#DejaVuSans-Bold-20" transform="translate(478.271484 0)"/>
     <use xlink:href="#DejaVuSans-Bold-45" transform="translate(513.085938 0)"/>
     <use xlink:href="#DejaVuSans-Bold-43" transform="translate(581.396484 0)"/>
     <use xlink:href="#DejaVuSans-Bold-4f" transform="translate(654.785156 0)"/>
     <use xlink:href="#DejaVuSans-Bold-4e" transform="translate(739.794922 0)"/>
     <use xlink:href="#DejaVuSans-Bold-4f" transform="translate(823.486328 0)"/>
     <use xlink:href="#DejaVuSans-Bold-4d" transform="translate(908.496094 0)"/>
     <use xlink:href="#DejaVuSans-Bold-49" transform="translate(1008.007812 0)"/>
     <use xlink:href="#DejaVuSans-Bold-43" transform="translate(1045.214844 0)"/>
     <use xlink:href="#DejaVuSans-Bold-53" transform="translate(1120.478516 0)"/>
    </g>
   </g>
   <g id="text_27">
    <!-- TOTAL ANNUAL BURDEN -->
    <g style="fill: #ffffff" transform="translate(895.836656 184.3256) scale(0.18 -0.18)">
     <defs>
      <path id="DejaVuSans-Bold-55" d="M 588 4666 
L 1791 4666 
L 1791 1869 
Q 1791 1291 1980 1042 
Q 2169 794 2597 794 
Q 3028 794 3217 1042 
Q 3406 1291 3406 1869 
L 3406 4666 
L 4609 4666 
L 4609 1869 
Q 4609 878 4112 393 
Q 3616 -91 2597 -91 
Q 1581 -91 1084 393 
Q 588 878 588 1869 
L 588 4666 
z
" transform="scale(0.015625)"/>
     </defs>
     <use xlink:href="#DejaVuSans-Bold-54"/>
     <use xlink:href="#DejaVuSans-Bold-4f" transform="translate(68.212891 0)"/>
     <use xlink:href="#DejaVuSans-Bold-54" transform="translate(153.222656 0)"/>
     <use xlink:href="#DejaVuSans-Bold-41" transform="translate(213.685547 0)"/>
     <use xlink:href="#DejaVuSans-Bold-4c" transform="translate(291.078125 0)"/>
     <use xlink:href="#DejaVuSans-Bold-20" transform="translate(354.798828 0)"/>
     <use xlink:href="#DejaVuSans-Bold-41" transform="translate(389.613281 0)"/>
     <use xlink:href="#DejaVuSans-Bold-4e" transform="translate(467.005859 0)"/>
     <use xlink:href="#DejaVuSans-Bold-4e" transform="translate(550.697266 0)"/>
     <use xlink:href="#DejaVuSans-Bold-55" transform="translate(634.388672 0)"/>
     <use xlink:href="#DejaVuSans-Bold-41" transform="translate(712.464844 0)"/>
     <use xlink:href="#DejaVuSans-Bold-4c" transform="translate(789.857422 0)"/>
     <use xlink:href="#DejaVuSans-Bold-20" transform="translate(853.578125 0)"/>
     <use xlink:href="#DejaVuSans-Bold-42" transform="translate(888.392578 0)"/>
     <use xlink:href="#DejaVuSans-Bold-55" transform="translate(964.613281 0)"/>
     <use xlink:href="#DejaVuSans-Bold-52" transform="translate(1045.814453 0)"/>
     <use xlink:href="#DejaVuSans-Bold-44" transform="translate(1122.816406 0)"/>
     <use xlink:href="#DejaVuSans-Bold-45" transform="translate(1205.824219 0)"/>
     <use xlink:href="#DejaVuSans-Bold-4e" transform="translate(1274.134766 0)"/>
    </g>
   </g>
   <g id="text_28">
    <g id="patch_15">
     <path d="M 872.618687 227.3374 
L 1163.463687 227.3374 
L 1163.463687 170.7674 
L 872.618687 170.7674 
z
" style="stroke: #ff0000; stroke-width: 3; stroke-linejoin: miter"/>
    </g>
    <!-- $109 TRILLION -->
    <g style="fill: #ff0000" transform="translate(885.418687 207.8824) scale(0.32 -0.32)">
     <use xlink:href="#DejaVuSans-Bold-24"/>
     <use xlink:href="#DejaVuSans-Bold-31" transform="translate(69.580078 0)"/>
     <use xlink:href="#DejaVuSans-Bold-30" transform="translate(139.160156 0)"/>
     <use xlink:href="#DejaVuSans-Bold-39" transform="translate(208.740234 0)"/>
     <use xlink:href="#DejaVuSans-Bold-20" transform="translate(278.320312 0)"/>
     <use xlink:href="#DejaVuSans-Bold-54" transform="translate(313.134766 0)"/>
     <use xlink:href="#DejaVuSans-Bold-52" transform="translate(381.347656 0)"/>
     <use xlink:href="#DejaVuSans-Bold-49" transform="translate(458.349609 0)"/>
     <use xlink:href="#DejaVuSans-Bold-4c" transform="translate(495.556641 0)"/>
     <use xlink:href="#DejaVuSans-Bold-4c" transform="translate(559.277344 0)"/>
     <use xlink:href="#DejaVuSans-Bold-49" transform="translate(622.998047 0)"/>
     <use xlink:href="#DejaVuSans-Bold-4f" transform="translate(660.205078 0)"/>
     <use xlink:href="#DejaVuSans-Bold-4e" transform="translate(745.214844 0)"/>
    </g>
   </g>
   <g id="text_29">
    <!-- Daily Disease Cost: -->
    <g style="fill: #ffffff" transform="translate(831.030019 260.8852) scale(0.16 -0.16)">
     <defs>
      <path id="DejaVuSans-Bold-3a" d="M 716 3500 
L 1844 3500 
L 1844 2291 
L 716 2291 
L 716 3500 
z
M 716 1209 
L 1844 1209 
L 1844 0 
L 716 0 
L 716 1209 
z
" transform="scale(0.015625)"/>
     </defs>
     <use xlink:href="#DejaVuSans-Bold-44"/>
     <use xlink:href="#DejaVuSans-Bold-61" transform="translate(83.007812 0)"/>
     <use xlink:href="#DejaVuSans-Bold-69" transform="translate(150.488281 0)"/>
     <use xlink:href="#DejaVuSans-Bold-6c" transform="translate(184.765625 0)"/>
     <use xlink:href="#DejaVuSans-Bold-79" transform="translate(219.042969 0)"/>
     <use xlink:href="#DejaVuSans-Bold-20" transform="translate(284.228516 0)"/>
     <use xlink:href="#DejaVuSans-Bold-44" transform="translate(319.042969 0)"/>
     <use xlink:href="#DejaVuSans-Bold-69" transform="translate(402.050781 0)"/>
     <use xlink:href="#DejaVuSans-Bold-73" transform="translate(436.328125 0)"/>
     <use xlink:href="#DejaVuSans-Bold-65" transform="translate(495.849609 0)"/>
     <use xlink:href="#DejaVuSans-Bold-61" transform="translate(563.671875 0)"/>
     <use xlink:href="#DejaVuSans-Bold-73" transform="translate(631.152344 0)"/>
     <use xlink:href="#DejaVuSans-Bold-65" transform="translate(690.673828 0)"/>
     <use xlink:href="#DejaVuSans-Bold-20" transform="translate(758.496094 0)"/>
     <use xlink:href="#DejaVuSans-Bold-43" transform="translate(793.310547 0)"/>
     <use xlink:href="#DejaVuSans-Bold-6f" transform="translate(866.699219 0)"/>
     <use xlink:href="#DejaVuSans-Bold-73" transform="translate(935.400391 0)"/>
     <use xlink:href="#DejaVuSans-Bold-74" transform="translate(994.921875 0)"/>
     <use xlink:href="#DejaVuSans-Bold-3a" transform="translate(1042.724609 0)"/>
    </g>
   </g>
   <g id="text_30">
    <!-- $299 BILLION -->
    <g style="fill: #00ff00" transform="translate(1083.469856 260.8852) scale(0.16 -0.16)">
     <use xlink:href="#DejaVuSans-Bold-24"/>
     <use xlink:href="#DejaVuSans-Bold-32" transform="translate(69.580078 0)"/>
     <use xlink:href="#DejaVuSans-Bold-39" transform="translate(139.160156 0)"/>
     <use xlink:href="#DejaVuSans-Bold-39" transform="translate(208.740234 0)"/>
     <use xlink:href="#DejaVuSans-Bold-20" transform="translate(278.320312 0)"/>
     <use xlink:href="#DejaVuSans-Bold-42" transform="translate(313.134766 0)"/>
     <use xlink:href="#DejaVuSans-Bold-49" transform="translate(389.355469 0)"/>
     <use xlink:href="#DejaVuSans-Bold-4c" transform="translate(426.5625 0)"/>
     <use xlink:href="#DejaVuSans-Bold-4c" transform="translate(490.283203 0)"/>
     <use xlink:href="#DejaVuSans-Bold-49" transform="translate(554.003906 0)"/>
     <use xlink:href="#DejaVuSans-Bold-4f" transform="translate(591.210938 0)"/>
     <use xlink:href="#DejaVuSans-Bold-4e" transform="translate(676.220703 0)"/>
    </g>
   </g>
   <g id="text_31">
    <!-- Hourly Disease Cost: -->
    <g style="fill: #ffffff" transform="translate(831.030019 299.165) scale(0.16 -0.16)">
     <defs>
      <path id="DejaVuSans-Bold-75" d="M 500 1363 
L 500 3500 
L 1625 3500 
L 1625 3150 
Q 1625 2866 1622 2436 
Q 1619 2006 1619 1863 
Q 1619 1441 1641 1255 
Q 1663 1069 1716 984 
Q 1784 875 1895 815 
Q 2006 756 2150 756 
Q 2500 756 2700 1025 
Q 2900 1294 2900 1772 
L 2900 3500 
L 4019 3500 
L 4019 0 
L 2900 0 
L 2900 506 
Q 2647 200 2364 54 
Q 2081 -91 1741 -91 
Q 1134 -91 817 281 
Q 500 653 500 1363 
z
" transform="scale(0.015625)"/>
     </defs>
     <use xlink:href="#DejaVuSans-Bold-48"/>
     <use xlink:href="#DejaVuSans-Bold-6f" transform="translate(83.691406 0)"/>
     <use xlink:href="#DejaVuSans-Bold-75" transform="translate(152.392578 0)"/>
     <use xlink:href="#DejaVuSans-Bold-72" transform="translate(223.583984 0)"/>
     <use xlink:href="#DejaVuSans-Bold-6c" transform="translate(272.900391 0)"/>
     <use xlink:href="#DejaVuSans-Bold-79" transform="translate(307.177734 0)"/>
     <use xlink:href="#DejaVuSans-Bold-20" transform="translate(372.363281 0)"/>
     <use xlink:href="#DejaVuSans-Bold-44" transform="translate(407.177734 0)"/>
     <use xlink:href="#DejaVuSans-Bold-69" transform="translate(490.185547 0)"/>
     <use xlink:href="#DejaVuSans-Bold-73" transform="translate(524.462891 0)"/>
     <use xlink:href="#DejaVuSans-Bold-65" transform="translate(583.984375 0)"/>
     <use xlink:href="#DejaVuSans-Bold-61" transform="translate(651.806641 0)"/>
     <use xlink:href="#DejaVuSans-Bold-73" transform="translate(719.287109 0)"/>
     <use xlink:href="#DejaVuSans-Bold-65" transform="translate(778.808594 0)"/>
     <use xlink:href="#DejaVuSans-Bold-20" transform="translate(846.630859 0)"/>
     <use xlink:href="#DejaVuSans-Bold-43" transform="translate(881.445312 0)"/>
     <use xlink:href="#DejaVuSans-Bold-6f" transform="translate(954.833984 0)"/>
     <use xlink:href="#DejaVuSans-Bold-73" transform="translate(1023.535156 0)"/>
     <use xlink:href="#DejaVuSans-Bold-74" transform="translate(1083.056641 0)"/>
     <use xlink:href="#DejaVuSans-Bold-3a" transform="translate(1130.859375 0)"/>
    </g>
   </g>
   <g id="text_32">
    <!-- $12.4 BILLION -->
    <g style="fill: #00ff00" transform="translate(1077.392356 299.165) scale(0.16 -0.16)">
     <defs>
      <path id="DejaVuSans-Bold-2e" d="M 653 1209 
L 1778 1209 
L 1778 0 
L 653 0 
L 653 1209 
z
" transform="scale(0.015625)"/>
      <path id="DejaVuSans-Bold-34" d="M 2356 3675 
L 1038 1722 
L 2356 1722 
L 2356 3675 
z
M 2156 4666 
L 3494 4666 
L 3494 1722 
L 4159 1722 
L 4159 850 
L 3494 850 
L 3494 0 
L 2356 0 
L 2356 850 
L 288 850 
L 288 1881 
L 2156 4666 
z
" transform="scale(0.015625)"/>
     </defs>
     <use xlink:href="#DejaVuSans-Bold-24"/>
     <use xlink:href="#DejaVuSans-Bold-31" transform="translate(69.580078 0)"/>
     <use xlink:href="#DejaVuSans-Bold-32" transform="translate(139.160156 0)"/>
     <use xlink:href="#DejaVuSans-Bold-2e" transform="translate(208.740234 0)"/>
     <use xlink:href="#DejaVuSans-Bold-34" transform="translate(246.728516 0)"/>
     <use xlink:href="#DejaVuSans-Bold-20" transform="translate(316.308594 0)"/>
     <use xlink:href="#DejaVuSans-Bold-42" transform="translate(351.123047 0)"/>
     <use xlink:href="#DejaVuSans-Bold-49" transform="translate(427.34375 0)"/>
     <use xlink:href="#DejaVuSans-Bold-4c" transform="translate(464.550781 0)"/>
     <use xlink:href="#DejaVuSans-Bold-4c" transform="translate(528.271484 0)"/>
     <use xlink:href="#DejaVuSans-Bold-49" transform="translate(591.992188 0)"/>
     <use xlink:href="#DejaVuSans-Bold-4f" transform="translate(629.199219 0)"/>
     <use xlink:href="#DejaVuSans-Bold-4e" transform="translate(714.208984 0)"/>
    </g>
   </g>
   <g id="text_33">
    <!-- Per Second: -->
    <g style="fill: #ffffff" transform="translate(831.030019 337.4448) scale(0.16 -0.16)">
     <defs>
      <path id="DejaVuSans-Bold-50" d="M 588 4666 
L 2584 4666 
Q 3475 4666 3951 4270 
Q 4428 3875 4428 3144 
Q 4428 2409 3951 2014 
Q 3475 1619 2584 1619 
L 1791 1619 
L 1791 0 
L 588 0 
L 588 4666 
z
M 1791 3794 
L 1791 2491 
L 2456 2491 
Q 2806 2491 2997 2661 
Q 3188 2831 3188 3144 
Q 3188 3456 2997 3625 
Q 2806 3794 2456 3794 
L 1791 3794 
z
" transform="scale(0.015625)"/>
     </defs>
     <use xlink:href="#DejaVuSans-Bold-50"/>
     <use xlink:href="#DejaVuSans-Bold-65" transform="translate(73.291016 0)"/>
     <use xlink:href="#DejaVuSans-Bold-72" transform="translate(141.113281 0)"/>
     <use xlink:href="#DejaVuSans-Bold-20" transform="translate(190.429688 0)"/>
     <use xlink:href="#DejaVuSans-Bold-53" transform="translate(225.244141 0)"/>
     <use xlink:href="#DejaVuSans-Bold-65" transform="translate(297.265625 0)"/>
     <use xlink:href="#DejaVuSans-Bold-63" transform="translate(365.087891 0)"/>
     <use xlink:href="#DejaVuSans-Bold-6f" transform="translate(424.365234 0)"/>
     <use xlink:href="#DejaVuSans-Bold-6e" transform="translate(493.066406 0)"/>
     <use xlink:href="#DejaVuSans-Bold-64" transform="translate(564.257812 0)"/>
     <use xlink:href="#DejaVuSans-Bold-3a" transform="translate(635.839844 0)"/>
    </g>
   </g>
   <g id="text_34">
    <!-- $3.5 MILLION -->
    <g style="fill: #00ff00" transform="translate(1084.797356 337.4448) scale(0.16 -0.16)">
     <use xlink:href="#DejaVuSans-Bold-24"/>
     <use xlink:href="#DejaVuSans-Bold-33" transform="translate(69.580078 0)"/>
     <use xlink:href="#DejaVuSans-Bold-2e" transform="translate(139.160156 0)"/>
     <use xlink:href="#DejaVuSans-Bold-35" transform="translate(177.148438 0)"/>
     <use xlink:href="#DejaVuSans-Bold-20" transform="translate(246.728516 0)"/>
     <use xlink:href="#DejaVuSans-Bold-4d" transform="translate(281.542969 0)"/>
     <use xlink:href="#DejaVuSans-Bold-49" transform="translate(381.054688 0)"/>
     <use xlink:href="#DejaVuSans-Bold-4c" transform="translate(418.261719 0)"/>
     <use xlink:href="#DejaVuSans-Bold-4c" transform="translate(481.982422 0)"/>
     <use xlink:href="#DejaVuSans-Bold-49" transform="translate(545.703125 0)"/>
     <use xlink:href="#DejaVuSans-Bold-4f" transform="translate(582.910156 0)"/>
     <use xlink:href="#DejaVuSans-Bold-4e" transform="translate(667.919922 0)"/>
    </g>
   </g>
   <g id="text_35">
    <!-- Per Human Per Year: -->
    <g style="fill: #ffffff" transform="translate(831.030019 414.0044) scale(0.16 -0.16)">
     <defs>
      <path id="DejaVuSans-Bold-59" d="M -63 4666 
L 1253 4666 
L 2316 3003 
L 3378 4666 
L 4697 4666 
L 2919 1966 
L 2919 0 
L 1716 0 
L 1716 1966 
L -63 4666 
z
" transform="scale(0.015625)"/>
     </defs>
     <use xlink:href="#DejaVuSans-Bold-50"/>
     <use xlink:href="#DejaVuSans-Bold-65" transform="translate(73.291016 0)"/>
     <use xlink:href="#DejaVuSans-Bold-72" transform="translate(141.113281 0)"/>
     <use xlink:href="#DejaVuSans-Bold-20" transform="translate(190.429688 0)"/>
     <use xlink:href="#DejaVuSans-Bold-48" transform="translate(225.244141 0)"/>
     <use xlink:href="#DejaVuSans-Bold-75" transform="translate(308.935547 0)"/>
     <use xlink:href="#DejaVuSans-Bold-6d" transform="translate(380.126953 0)"/>
     <use xlink:href="#DejaVuSans-Bold-61" transform="translate(484.326172 0)"/>
     <use xlink:href="#DejaVuSans-Bold-6e" transform="translate(551.806641 0)"/>
     <use xlink:href="#DejaVuSans-Bold-20" transform="translate(622.998047 0)"/>
     <use xlink:href="#DejaVuSans-Bold-50" transform="translate(657.8125 0)"/>
     <use xlink:href="#DejaVuSans-Bold-65" transform="translate(731.103516 0)"/>
     <use xlink:href="#DejaVuSans-Bold-72" transform="translate(798.925781 0)"/>
     <use xlink:href="#DejaVuSans-Bold-20" transform="translate(848.242188 0)"/>
     <use xlink:href="#DejaVuSans-Bold-59" transform="translate(883.056641 0)"/>
     <use xlink:href="#DejaVuSans-Bold-65" transform="translate(946.34375 0)"/>
     <use xlink:href="#DejaVuSans-Bold-61" transform="translate(1014.166016 0)"/>
     <use xlink:href="#DejaVuSans-Bold-72" transform="translate(1081.646484 0)"/>
     <use xlink:href="#DejaVuSans-Bold-3a" transform="translate(1130.962891 0)"/>
    </g>
   </g>
   <g id="text_36">
    <!-- $13,625 -->
    <g style="fill: #00ff00" transform="translate(1132.179856 414.0044) scale(0.16 -0.16)">
     <defs>
      <path id="DejaVuSans-Bold-2c" d="M 653 1209 
L 1778 1209 
L 1778 256 
L 1006 -909 
L 341 -909 
L 653 256 
L 653 1209 
z
" transform="scale(0.015625)"/>
     </defs>
     <use xlink:href="#DejaVuSans-Bold-24"/>
     <use xlink:href="#DejaVuSans-Bold-31" transform="translate(69.580078 0)"/>
     <use xlink:href="#DejaVuSans-Bold-33" transform="translate(139.160156 0)"/>
     <use xlink:href="#DejaVuSans-Bold-2c" transform="translate(208.740234 0)"/>
     <use xlink:href="#DejaVuSans-Bold-36" transform="translate(246.728516 0)"/>
     <use xlink:href="#DejaVuSans-Bold-32" transform="translate(316.308594 0)"/>
     <use xlink:href="#DejaVuSans-Bold-35" transform="translate(385.888672 0)"/>
    </g>
   </g>
   <g id="text_37">
    <!-- % of Global GDP: -->
    <g style="fill: #ffffff" transform="translate(831.030019 452.2842) scale(0.16 -0.16)">
     <defs>
      <path id="DejaVuSans-Bold-25" d="M 4959 1925 
Q 4738 1925 4616 1733 
Q 4494 1541 4494 1184 
Q 4494 825 4614 633 
Q 4734 441 4959 441 
Q 5184 441 5303 633 
Q 5422 825 5422 1184 
Q 5422 1541 5301 1733 
Q 5181 1925 4959 1925 
z
M 4959 2450 
Q 5541 2450 5875 2112 
Q 6209 1775 6209 1184 
Q 6209 594 5875 251 
Q 5541 -91 4959 -91 
Q 4378 -91 4042 251 
Q 3706 594 3706 1184 
Q 3706 1772 4042 2111 
Q 4378 2450 4959 2450 
z
M 2094 -91 
L 1403 -91 
L 4319 4750 
L 5013 4750 
L 2094 -91 
z
M 1453 4750 
Q 2034 4750 2367 4411 
Q 2700 4072 2700 3481 
Q 2700 2891 2367 2550 
Q 2034 2209 1453 2209 
Q 872 2209 539 2550 
Q 206 2891 206 3481 
Q 206 4072 539 4411 
Q 872 4750 1453 4750 
z
M 1453 4225 
Q 1228 4225 1106 4031 
Q 984 3838 984 3481 
Q 984 3122 1106 2926 
Q 1228 2731 1453 2731 
Q 1678 2731 1798 2926 
Q 1919 3122 1919 3481 
Q 1919 3838 1797 4031 
Q 1675 4225 1453 4225 
z
" transform="scale(0.015625)"/>
      <path id="DejaVuSans-Bold-66" d="M 2841 4863 
L 2841 4128 
L 2222 4128 
Q 1984 4128 1890 4042 
Q 1797 3956 1797 3744 
L 1797 3500 
L 2753 3500 
L 2753 2700 
L 1797 2700 
L 1797 0 
L 678 0 
L 678 2700 
L 122 2700 
L 122 3500 
L 678 3500 
L 678 3744 
Q 678 4316 997 4589 
Q 1316 4863 1984 4863 
L 2841 4863 
z
" transform="scale(0.015625)"/>
      <path id="DejaVuSans-Bold-47" d="M 4781 347 
Q 4331 128 3847 18 
Q 3363 -91 2847 -91 
Q 1681 -91 1000 561 
Q 319 1213 319 2328 
Q 319 3456 1012 4103 
Q 1706 4750 2913 4750 
Q 3378 4750 3804 4662 
Q 4231 4575 4609 4403 
L 4609 3438 
Q 4219 3659 3833 3768 
Q 3447 3878 3059 3878 
Q 2341 3878 1952 3476 
Q 1563 3075 1563 2328 
Q 1563 1588 1938 1184 
Q 2313 781 3003 781 
Q 3191 781 3352 804 
Q 3513 828 3641 878 
L 3641 1784 
L 2906 1784 
L 2906 2591 
L 4781 2591 
L 4781 347 
z
" transform="scale(0.015625)"/>
     </defs>
     <use xlink:href="#DejaVuSans-Bold-25"/>
     <use xlink:href="#DejaVuSans-Bold-20" transform="translate(100.195312 0)"/>
     <use xlink:href="#DejaVuSans-Bold-6f" transform="translate(135.009766 0)"/>
     <use xlink:href="#DejaVuSans-Bold-66" transform="translate(203.710938 0)"/>
     <use xlink:href="#DejaVuSans-Bold-20" transform="translate(247.216797 0)"/>
     <use xlink:href="#DejaVuSans-Bold-47" transform="translate(282.03125 0)"/>
     <use xlink:href="#DejaVuSans-Bold-6c" transform="translate(364.111328 0)"/>
     <use xlink:href="#DejaVuSans-Bold-6f" transform="translate(398.388672 0)"/>
     <use xlink:href="#DejaVuSans-Bold-62" transform="translate(467.089844 0)"/>
     <use xlink:href="#DejaVuSans-Bold-61" transform="translate(538.671875 0)"/>
     <use xlink:href="#DejaVuSans-Bold-6c" transform="translate(606.152344 0)"/>
     <use xlink:href="#DejaVuSans-Bold-20" transform="translate(640.429688 0)"/>
     <use xlink:href="#DejaVuSans-Bold-47" transform="translate(675.244141 0)"/>
     <use xlink:href="#DejaVuSans-Bold-44" transform="translate(757.324219 0)"/>
     <use xlink:href="#DejaVuSans-Bold-50" transform="translate(840.332031 0)"/>
     <use xlink:href="#DejaVuSans-Bold-3a" transform="translate(913.623047 0)"/>
    </g>
   </g>
   <g id="text_38">
    <!-- 15% -->
    <g style="fill: #00ff00" transform="translate(1166.754856 452.2842) scale(0.16 -0.16)">
     <use xlink:href="#DejaVuSans-Bold-31"/>
     <use xlink:href="#DejaVuSans-Bold-35" transform="translate(69.580078 0)"/>
     <use xlink:href="#DejaVuSans-Bold-25" transform="translate(139.160156 0)"/>
    </g>
   </g>
   <g id="text_39">
    <!-- Deaths Per Year: -->
    <g style="fill: #ffffff" transform="translate(831.030019 528.8438) scale(0.16 -0.16)">
     <use xlink:href="#DejaVuSans-Bold-44"/>
     <use xlink:href="#DejaVuSans-Bold-65" transform="translate(83.007812 0)"/>
     <use xlink:href="#DejaVuSans-Bold-61" transform="translate(150.830078 0)"/>
     <use xlink:href="#DejaVuSans-Bold-74" transform="translate(218.310547 0)"/>
     <use xlink:href="#DejaVuSans-Bold-68" transform="translate(266.113281 0)"/>
     <use xlink:href="#DejaVuSans-Bold-73" transform="translate(337.304688 0)"/>
     <use xlink:href="#DejaVuSans-Bold-20" transform="translate(396.826172 0)"/>
     <use xlink:href="#DejaVuSans-Bold-50" transform="translate(431.640625 0)"/>
     <use xlink:href="#DejaVuSans-Bold-65" transform="translate(504.931641 0)"/>
     <use xlink:href="#DejaVuSans-Bold-72" transform="translate(572.753906 0)"/>
     <use xlink:href="#DejaVuSans-Bold-20" transform="translate(622.070312 0)"/>
     <use xlink:href="#DejaVuSans-Bold-59" transform="translate(656.884766 0)"/>
     <use xlink:href="#DejaVuSans-Bold-65" transform="translate(720.171875 0)"/>
     <use xlink:href="#DejaVuSans-Bold-61" transform="translate(787.994141 0)"/>
     <use xlink:href="#DejaVuSans-Bold-72" transform="translate(855.474609 0)"/>
     <use xlink:href="#DejaVuSans-Bold-3a" transform="translate(904.791016 0)"/>
    </g>
   </g>
   <g id="text_40">
    <!-- 55 MILLION -->
    <g style="fill: #00ff00" transform="translate(1102.007356 528.8438) scale(0.16 -0.16)">
     <use xlink:href="#DejaVuSans-Bold-35"/>
     <use xlink:href="#DejaVuSans-Bold-35" transform="translate(69.580078 0)"/>
     <use xlink:href="#DejaVuSans-Bold-20" transform="translate(139.160156 0)"/>
     <use xlink:href="#DejaVuSans-Bold-4d" transform="translate(173.974609 0)"/>
     <use xlink:href="#DejaVuSans-Bold-49" transform="translate(273.486328 0)"/>
     <use xlink:href="#DejaVuSans-Bold-4c" transform="translate(310.693359 0)"/>
     <use xlink:href="#DejaVuSans-Bold-4c" transform="translate(374.414062 0)"/>
     <use xlink:href="#DejaVuSans-Bold-49" transform="translate(438.134766 0)"/>
     <use xlink:href="#DejaVuSans-Bold-4f" transform="translate(475.341797 0)"/>
     <use xlink:href="#DejaVuSans-Bold-4e" transform="translate(560.351562 0)"/>
    </g>
   </g>
   <g id="text_41">
    <!-- Deaths Per Day: -->
    <g style="fill: #ffffff" transform="translate(831.030019 567.1236) scale(0.16 -0.16)">
     <use xlink:href="#DejaVuSans-Bold-44"/>
     <use xlink:href="#DejaVuSans-Bold-65" transform="translate(83.007812 0)"/>
     <use xlink:href="#DejaVuSans-Bold-61" transform="translate(150.830078 0)"/>
     <use xlink:href="#DejaVuSans-Bold-74" transform="translate(218.310547 0)"/>
     <use xlink:href="#DejaVuSans-Bold-68" transform="translate(266.113281 0)"/>
     <use xlink:href="#DejaVuSans-Bold-73" transform="translate(337.304688 0)"/>
     <use xlink:href="#DejaVuSans-Bold-20" transform="translate(396.826172 0)"/>
     <use xlink:href="#DejaVuSans-Bold-50" transform="translate(431.640625 0)"/>
     <use xlink:href="#DejaVuSans-Bold-65" transform="translate(504.931641 0)"/>
     <use xlink:href="#DejaVuSans-Bold-72" transform="translate(572.753906 0)"/>
     <use xlink:href="#DejaVuSans-Bold-20" transform="translate(622.070312 0)"/>
     <use xlink:href="#DejaVuSans-Bold-44" transform="translate(656.884766 0)"/>
     <use xlink:href="#DejaVuSans-Bold-61" transform="translate(739.892578 0)"/>
     <use xlink:href="#DejaVuSans-Bold-79" transform="translate(804.248047 0)"/>
     <use xlink:href="#DejaVuSans-Bold-3a" transform="translate(869.433594 0)"/>
    </g>
   </g>
   <g id="text_42">
    <!-- 150,000 -->
    <g style="fill: #00ff00" transform="translate(1132.179856 567.1236) scale(0.16 -0.16)">
     <use xlink:href="#DejaVuSans-Bold-31"/>
     <use xlink:href="#DejaVuSans-Bold-35" transform="translate(69.580078 0)"/>
     <use xlink:href="#DejaVuSans-Bold-30" transform="translate(139.160156 0)"/>
     <use xlink:href="#DejaVuSans-Bold-2c" transform="translate(208.740234 0)"/>
     <use xlink:href="#DejaVuSans-Bold-30" transform="translate(246.728516 0)"/>
     <use xlink:href="#DejaVuSans-Bold-30" transform="translate(316.308594 0)"/>
     <use xlink:href="#DejaVuSans-Bold-30" transform="translate(385.888672 0)"/>
    </g>
   </g>
   <g id="text_43">
    <!-- Deaths Per Second: -->
    <g style="fill: #ffffff" transform="translate(831.030019 605.4034) scale(0.16 -0.16)">
     <use xlink:href="#DejaVuSans-Bold-44"/>
     <use xlink:href="#DejaVuSans-Bold-65" transform="translate(83.007812 0)"/>
     <use xlink:href="#DejaVuSans-Bold-61" transform="translate(150.830078 0)"/>
     <use xlink:href="#DejaVuSans-Bold-74" transform="translate(218.310547 0)"/>
     <use xlink:href="#DejaVuSans-Bold-68" transform="translate(266.113281 0)"/>
     <use xlink:href="#DejaVuSans-Bold-73" transform="translate(337.304688 0)"/>
     <use xlink:href="#DejaVuSans-Bold-20" transform="translate(396.826172 0)"/>
     <use xlink:href="#DejaVuSans-Bold-50" transform="translate(431.640625 0)"/>
     <use xlink:href="#DejaVuSans-Bold-65" transform="translate(504.931641 0)"/>
     <use xlink:href="#DejaVuSans-Bold-72" transform="translate(572.753906 0)"/>
     <use xlink:href="#DejaVuSans-Bold-20" transform="translate(622.070312 0)"/>
     <use xlink:href="#DejaVuSans-Bold-53" transform="translate(656.884766 0)"/>
     <use xlink:href="#DejaVuSans-Bold-65" transform="translate(728.90625 0)"/>
     <use xlink:href="#DejaVuSans-Bold-63" transform="translate(796.728516 0)"/>
     <use xlink:href="#DejaVuSans-Bold-6f" transform="translate(856.005859 0)"/>
     <use xlink:href="#DejaVuSans-Bold-6e" transform="translate(924.707031 0)"/>
     <use xlink:href="#DejaVuSans-Bold-64" transform="translate(995.898438 0)"/>
     <use xlink:href="#DejaVuSans-Bold-3a" transform="translate(1067.480469 0)"/>
    </g>
   </g>
   <g id="text_44">
    <!-- 1.7 -->
    <g style="fill: #00ff00" transform="translate(1176.709856 605.4034) scale(0.16 -0.16)">
     <defs>
      <path id="DejaVuSans-Bold-37" d="M 428 4666 
L 3944 4666 
L 3944 3988 
L 2125 0 
L 953 0 
L 2675 3781 
L 428 3781 
L 428 4666 
z
" transform="scale(0.015625)"/>
     </defs>
     <use xlink:href="#DejaVuSans-Bold-31"/>
     <use xlink:href="#DejaVuSans-Bold-2e" transform="translate(69.580078 0)"/>
     <use xlink:href="#DejaVuSans-Bold-37" transform="translate(107.568359 0)"/>
    </g>
   </g>
  </g>
  <g id="text_45">
   <g id="patch_16">
    <path d="M 233.775 57.886875 
L 1062.225 57.886875 
L 1062.225 -48.954375 
L 233.775 -48.954375 
z
" style="stroke: #ffffff; stroke-width: 6; stroke-linejoin: miter"/>
   </g>
   <!-- THE $109 TRILLION DISEASE BURDEN -->
   <g style="fill: #ffffff" transform="translate(269.775 14.4) scale(0.36 -0.36)">
    <use xlink:href="#DejaVuSans-Bold-54"/>
    <use xlink:href="#DejaVuSans-Bold-48" transform="translate(68.212891 0)"/>
    <use xlink:href="#DejaVuSans-Bold-45" transform="translate(151.904297 0)"/>
    <use xlink:href="#DejaVuSans-Bold-20" transform="translate(220.214844 0)"/>
    <use xlink:href="#DejaVuSans-Bold-24" transform="translate(255.029297 0)"/>
    <use xlink:href="#DejaVuSans-Bold-31" transform="translate(324.609375 0)"/>
    <use xlink:href="#DejaVuSans-Bold-30" transform="translate(394.189453 0)"/>
    <use xlink:href="#DejaVuSans-Bold-39" transform="translate(463.769531 0)"/>
    <use xlink:href="#DejaVuSans-Bold-20" transform="translate(533.349609 0)"/>
    <use xlink:href="#DejaVuSans-Bold-54" transform="translate(568.164062 0)"/>
    <use xlink:href="#DejaVuSans-Bold-52" transform="translate(636.376953 0)"/>
    <use xlink:href="#DejaVuSans-Bold-49" transform="translate(713.378906 0)"/>
    <use xlink:href="#DejaVuSans-Bold-4c" transform="translate(750.585938 0)"/>
    <use xlink:href="#DejaVuSans-Bold-4c" transform="translate(814.306641 0)"/>
    <use xlink:href="#DejaVuSans-Bold-49" transform="translate(878.027344 0)"/>
    <use xlink:href="#DejaVuSans-Bold-4f" transform="translate(915.234375 0)"/>
    <use xlink:href="#DejaVuSans-Bold-4e" transform="translate(1000.244141 0)"/>
    <use xlink:href="#DejaVuSans-Bold-20" transform="translate(1083.935547 0)"/>
    <use xlink:href="#DejaVuSans-Bold-44" transform="translate(1118.75 0)"/>
    <use xlink:href="#DejaVuSans-Bold-49" transform="translate(1201.757812 0)"/>
    <use xlink:href="#DejaVuSans-Bold-53" transform="translate(1238.964844 0)"/>
    <use xlink:href="#DejaVuSans-Bold-45" transform="translate(1310.986328 0)"/>
    <use xlink:href="#DejaVuSans-Bold-41" transform="translate(1379.296875 0)"/>
    <use xlink:href="#DejaVuSans-Bold-53" transform="translate(1456.689453 0)"/>
    <use xlink:href="#DejaVuSans-Bold-45" transform="translate(1528.710938 0)"/>
    <use xlink:href="#DejaVuSans-Bold-20" transform="translate(1597.021484 0)"/>
    <use xlink:href="#DejaVuSans-Bold-42" transform="translate(1631.835938 0)"/>
    <use xlink:href="#DejaVuSans-Bold-55" transform="translate(1708.056641 0)"/>
    <use xlink:href="#DejaVuSans-Bold-52" transform="translate(1789.257812 0)"/>
    <use xlink:href="#DejaVuSans-Bold-44" transform="translate(1866.259766 0)"/>
    <use xlink:href="#DejaVuSans-Bold-45" transform="translate(1949.267578 0)"/>
    <use xlink:href="#DejaVuSans-Bold-4e" transform="translate(2017.578125 0)"/>
   </g>
  </g>
 </g>
 <defs>
  <clipPath id="p6a7192b74e">
   <rect x="138.67" y="78.32" width="534.317625" height="588.92"/>
  </clipPath>
 </defs>
</svg>
